<svg width="60" height="25" viewBox="0 0 60 25" fill="none" xmlns="http://www.w3.org/2000/svg">
<mask id="path-1-outside-1_13_529" maskUnits="userSpaceOnUse" x="0" y="-0.16626" width="60" height="25" fill="black">
<rect fill="white" y="-0.16626" width="60" height="25"/>
<path d="M15.6751 5.52974C19.5951 5.52974 23.1511 7.85374 23.1511 12.1097C23.1511 15.0217 21.3311 16.9257 18.8671 18.3257C15.9831 19.9497 12.0911 20.7617 8.78709 20.9577C8.45109 20.9857 8.22709 20.7617 8.22709 20.5657C8.22709 20.3977 8.39509 20.2577 8.81509 20.1737C11.8671 19.5857 14.7511 18.6337 17.0191 17.2337C19.3711 15.7777 20.9951 13.8737 20.9951 11.6617C20.9951 8.46974 18.6991 6.62174 15.5911 6.62174C14.0231 6.62174 12.3711 7.12574 10.6631 8.02174C9.29109 8.74974 7.89109 9.64574 6.40709 10.7097C5.59509 11.2977 5.11909 11.6617 4.81109 12.0817C4.53109 12.4457 4.33509 12.6417 3.91509 12.6417C3.43909 12.6417 2.51509 12.2497 1.70309 11.3817C1.19909 10.8497 0.807094 10.0937 0.807094 9.61774C0.807094 9.33774 0.975094 9.08574 1.14309 9.08574C1.28309 9.08574 1.39509 9.19774 1.59109 9.39374C2.06709 9.86974 2.57109 10.1497 2.90709 10.1497C3.29909 10.1497 3.74709 10.0377 4.55909 9.61774C6.85509 8.41374 8.39509 7.62974 9.82309 6.98574C11.8951 6.03374 13.7991 5.52974 15.6751 5.52974ZM34.1155 0.71374C34.7595 0.71374 35.8515 1.24574 36.5235 1.94574C37.1115 2.56174 37.5035 3.03774 37.5035 3.48574C37.5035 3.82174 37.3075 4.21374 36.8595 4.38174C36.6075 4.46574 36.2155 4.68974 35.8795 4.96974C35.0395 5.66974 33.9475 6.62174 32.9115 7.60174C31.6235 8.86174 30.2515 10.2617 29.2995 11.3537C29.0475 11.6337 28.9355 11.8297 28.9355 12.0537C28.9355 12.3057 29.0755 12.5297 29.4115 12.8657C29.6915 13.1177 30.1395 13.5097 30.6435 13.9297C33.3035 16.1417 35.3195 17.9337 36.9435 19.9217C37.9515 21.1537 38.3715 21.8537 38.3715 22.5537C38.3715 23.4777 37.8675 23.9537 37.2795 23.9537C36.8315 23.9537 36.5235 23.6177 36.0475 22.7777C34.2835 19.6697 31.6795 16.9537 28.5435 14.0697C27.8435 13.4257 27.5075 12.8097 27.5075 12.2497C27.5075 11.7177 27.6195 11.3257 28.1515 10.7097C28.9355 9.75774 29.9155 8.66574 31.3435 7.04174C32.1275 6.17374 33.0235 5.16574 34.0315 3.96174C34.5635 3.31774 34.8155 2.92574 34.8155 2.56174C34.8155 2.25374 34.4235 1.83374 33.7515 1.35774C33.4995 1.16174 33.4155 1.13374 33.4155 1.02174C33.4155 0.85374 33.7235 0.71374 34.1155 0.71374ZM47.2582 13.2857L47.3142 13.3417C49.2742 11.8297 51.2902 11.1297 53.1942 11.1297C57.3102 11.1297 59.5782 13.7057 59.5782 16.7297C59.5782 20.9577 55.7702 23.3377 51.6542 23.3377C48.6022 23.3377 46.4462 22.0777 46.4462 20.1737C46.4462 18.6617 47.7062 17.8497 49.2462 17.8497C51.8502 17.8497 53.5302 20.1457 53.9502 21.4337C56.1902 20.6777 57.4782 18.7737 57.4782 16.5897C57.4782 13.4817 55.4342 12.1377 53.0542 12.1377C50.4502 12.1377 48.2662 13.4257 46.7262 14.9937C45.7462 16.0017 45.1302 16.6457 44.5422 17.4577C44.4022 17.6537 44.1222 17.8217 43.8422 17.8217C43.3102 17.8217 42.8342 17.3737 42.8342 16.7297C42.8342 16.4497 42.9182 16.1417 43.3102 15.7217C45.4662 13.3977 47.7902 10.9897 49.8062 8.52574C51.0102 7.04174 52.1582 5.64174 53.5582 3.79374C53.7542 3.54174 53.6702 3.48574 53.5582 3.48574C53.4462 3.48574 53.1942 3.56974 53.0262 3.62574C51.7662 4.04574 50.3382 4.57774 49.2182 5.02574C48.7142 5.22174 48.5182 5.33374 48.2662 5.61374C48.0982 5.78174 47.8462 5.92174 47.5102 5.92174C47.1462 5.92174 46.5582 5.61374 46.1102 5.10974C45.6062 4.57774 45.1022 3.84974 45.1022 3.06574C45.1022 2.78574 45.2702 2.47774 45.4382 2.47774C45.5502 2.47774 45.6622 2.58974 45.8022 2.78574C46.4182 3.59774 46.8102 3.87774 47.2862 3.87774C47.6502 3.87774 48.1262 3.82174 48.7422 3.68174C50.0022 3.37374 51.1782 3.03774 52.4382 2.61774C52.8302 2.50574 53.0542 2.33774 53.2782 2.11374C53.4742 1.91774 53.6982 1.83374 53.9222 1.83374C54.3702 1.83374 55.0702 2.25374 55.6862 2.70174C56.2462 3.09374 56.5262 3.45774 56.5262 3.90574C56.5262 4.18574 56.3022 4.38174 55.7982 4.49374C55.5182 4.54974 55.2662 4.68974 54.6502 5.30574C53.7262 6.22974 52.5782 7.43374 50.9262 9.36574C49.8902 10.5697 48.3782 12.0257 47.2582 13.2857ZM52.2142 21.8537C51.7942 20.2577 50.2822 18.7177 48.9102 18.7177C47.9022 18.7177 47.3702 19.3337 47.3702 20.0057C47.3702 21.1537 48.8542 21.9377 51.0942 21.9377C51.5702 21.9377 51.9622 21.9097 52.2142 21.8537Z"/>
</mask>
<path d="M15.6751 5.52974C19.5951 5.52974 23.1511 7.85374 23.1511 12.1097C23.1511 15.0217 21.3311 16.9257 18.8671 18.3257C15.9831 19.9497 12.0911 20.7617 8.78709 20.9577C8.45109 20.9857 8.22709 20.7617 8.22709 20.5657C8.22709 20.3977 8.39509 20.2577 8.81509 20.1737C11.8671 19.5857 14.7511 18.6337 17.0191 17.2337C19.3711 15.7777 20.9951 13.8737 20.9951 11.6617C20.9951 8.46974 18.6991 6.62174 15.5911 6.62174C14.0231 6.62174 12.3711 7.12574 10.6631 8.02174C9.29109 8.74974 7.89109 9.64574 6.40709 10.7097C5.59509 11.2977 5.11909 11.6617 4.81109 12.0817C4.53109 12.4457 4.33509 12.6417 3.91509 12.6417C3.43909 12.6417 2.51509 12.2497 1.70309 11.3817C1.19909 10.8497 0.807094 10.0937 0.807094 9.61774C0.807094 9.33774 0.975094 9.08574 1.14309 9.08574C1.28309 9.08574 1.39509 9.19774 1.59109 9.39374C2.06709 9.86974 2.57109 10.1497 2.90709 10.1497C3.29909 10.1497 3.74709 10.0377 4.55909 9.61774C6.85509 8.41374 8.39509 7.62974 9.82309 6.98574C11.8951 6.03374 13.7991 5.52974 15.6751 5.52974ZM34.1155 0.71374C34.7595 0.71374 35.8515 1.24574 36.5235 1.94574C37.1115 2.56174 37.5035 3.03774 37.5035 3.48574C37.5035 3.82174 37.3075 4.21374 36.8595 4.38174C36.6075 4.46574 36.2155 4.68974 35.8795 4.96974C35.0395 5.66974 33.9475 6.62174 32.9115 7.60174C31.6235 8.86174 30.2515 10.2617 29.2995 11.3537C29.0475 11.6337 28.9355 11.8297 28.9355 12.0537C28.9355 12.3057 29.0755 12.5297 29.4115 12.8657C29.6915 13.1177 30.1395 13.5097 30.6435 13.9297C33.3035 16.1417 35.3195 17.9337 36.9435 19.9217C37.9515 21.1537 38.3715 21.8537 38.3715 22.5537C38.3715 23.4777 37.8675 23.9537 37.2795 23.9537C36.8315 23.9537 36.5235 23.6177 36.0475 22.7777C34.2835 19.6697 31.6795 16.9537 28.5435 14.0697C27.8435 13.4257 27.5075 12.8097 27.5075 12.2497C27.5075 11.7177 27.6195 11.3257 28.1515 10.7097C28.9355 9.75774 29.9155 8.66574 31.3435 7.04174C32.1275 6.17374 33.0235 5.16574 34.0315 3.96174C34.5635 3.31774 34.8155 2.92574 34.8155 2.56174C34.8155 2.25374 34.4235 1.83374 33.7515 1.35774C33.4995 1.16174 33.4155 1.13374 33.4155 1.02174C33.4155 0.85374 33.7235 0.71374 34.1155 0.71374ZM47.2582 13.2857L47.3142 13.3417C49.2742 11.8297 51.2902 11.1297 53.1942 11.1297C57.3102 11.1297 59.5782 13.7057 59.5782 16.7297C59.5782 20.9577 55.7702 23.3377 51.6542 23.3377C48.6022 23.3377 46.4462 22.0777 46.4462 20.1737C46.4462 18.6617 47.7062 17.8497 49.2462 17.8497C51.8502 17.8497 53.5302 20.1457 53.9502 21.4337C56.1902 20.6777 57.4782 18.7737 57.4782 16.5897C57.4782 13.4817 55.4342 12.1377 53.0542 12.1377C50.4502 12.1377 48.2662 13.4257 46.7262 14.9937C45.7462 16.0017 45.1302 16.6457 44.5422 17.4577C44.4022 17.6537 44.1222 17.8217 43.8422 17.8217C43.3102 17.8217 42.8342 17.3737 42.8342 16.7297C42.8342 16.4497 42.9182 16.1417 43.3102 15.7217C45.4662 13.3977 47.7902 10.9897 49.8062 8.52574C51.0102 7.04174 52.1582 5.64174 53.5582 3.79374C53.7542 3.54174 53.6702 3.48574 53.5582 3.48574C53.4462 3.48574 53.1942 3.56974 53.0262 3.62574C51.7662 4.04574 50.3382 4.57774 49.2182 5.02574C48.7142 5.22174 48.5182 5.33374 48.2662 5.61374C48.0982 5.78174 47.8462 5.92174 47.5102 5.92174C47.1462 5.92174 46.5582 5.61374 46.1102 5.10974C45.6062 4.57774 45.1022 3.84974 45.1022 3.06574C45.1022 2.78574 45.2702 2.47774 45.4382 2.47774C45.5502 2.47774 45.6622 2.58974 45.8022 2.78574C46.4182 3.59774 46.8102 3.87774 47.2862 3.87774C47.6502 3.87774 48.1262 3.82174 48.7422 3.68174C50.0022 3.37374 51.1782 3.03774 52.4382 2.61774C52.8302 2.50574 53.0542 2.33774 53.2782 2.11374C53.4742 1.91774 53.6982 1.83374 53.9222 1.83374C54.3702 1.83374 55.0702 2.25374 55.6862 2.70174C56.2462 3.09374 56.5262 3.45774 56.5262 3.90574C56.5262 4.18574 56.3022 4.38174 55.7982 4.49374C55.5182 4.54974 55.2662 4.68974 54.6502 5.30574C53.7262 6.22974 52.5782 7.43374 50.9262 9.36574C49.8902 10.5697 48.3782 12.0257 47.2582 13.2857ZM52.2142 21.8537C51.7942 20.2577 50.2822 18.7177 48.9102 18.7177C47.9022 18.7177 47.3702 19.3337 47.3702 20.0057C47.3702 21.1537 48.8542 21.9377 51.0942 21.9377C51.5702 21.9377 51.9622 21.9097 52.2142 21.8537Z" fill="#2E2521"/>
<path d="M18.8671 18.3257L18.9652 18.5L18.9659 18.4996L18.8671 18.3257ZM8.78709 20.9577L8.77525 20.758L8.77048 20.7584L8.78709 20.9577ZM8.81509 20.1737L8.77726 19.9773L8.77587 19.9776L8.81509 20.1737ZM17.0191 17.2337L17.1241 17.4039L17.1244 17.4038L17.0191 17.2337ZM10.6631 8.02174L10.5702 7.84463L10.5694 7.84507L10.6631 8.02174ZM6.40709 10.7097L6.29056 10.5472L6.28979 10.5478L6.40709 10.7097ZM4.81109 12.0817L4.96966 12.2037L4.97237 12.2L4.81109 12.0817ZM1.70309 11.3817L1.84915 11.2451L1.84828 11.2442L1.70309 11.3817ZM1.59109 9.39374L1.44967 9.53516L1.59109 9.39374ZM4.55909 9.61774L4.65098 9.79539L4.65198 9.79486L4.55909 9.61774ZM9.82309 6.98574L9.90532 7.16806L9.90659 7.16747L9.82309 6.98574ZM15.6751 5.72974C17.5978 5.72974 19.4201 6.29994 20.7575 7.37937C22.0905 8.45522 22.9511 10.0435 22.9511 12.1097H23.3511C23.3511 9.91999 22.4337 8.21826 21.0087 7.06811C19.5881 5.92154 17.6724 5.32974 15.6751 5.32974V5.72974ZM22.9511 12.1097C22.9511 14.9173 21.2044 16.7677 18.7683 18.1518L18.9659 18.4996C21.4578 17.0838 23.3511 15.1262 23.3511 12.1097H22.9511ZM18.769 18.1515C15.921 19.7552 12.0622 20.5631 8.77525 20.7581L8.79894 21.1574C12.12 20.9604 16.0452 20.1443 18.9652 18.5L18.769 18.1515ZM8.77048 20.7584C8.51947 20.7793 8.42709 20.6152 8.42709 20.5657H8.02709C8.02709 20.9083 8.38272 21.1921 8.8037 21.157L8.77048 20.7584ZM8.42709 20.5657C8.42709 20.5615 8.42417 20.5402 8.47869 20.5018C8.54023 20.4585 8.65589 20.4095 8.85432 20.3699L8.77587 19.9776C8.5543 20.0219 8.37596 20.085 8.2485 20.1747C8.11402 20.2693 8.02709 20.402 8.02709 20.5657H8.42709ZM8.85293 20.3701C11.9188 19.7795 14.8284 18.8211 17.1241 17.4039L16.914 17.0636C14.6738 18.4464 11.8154 19.392 8.77726 19.9774L8.85293 20.3701ZM17.1244 17.4038C19.4962 15.9355 21.1951 13.979 21.1951 11.6617H20.7951C20.7951 13.7685 19.246 15.62 16.9138 17.0637L17.1244 17.4038ZM21.1951 11.6617C21.1951 10.0146 20.601 8.69832 19.5919 7.79568C18.5856 6.89546 17.1837 6.42174 15.5911 6.42174V6.82174C17.1064 6.82174 18.4066 7.27201 19.3253 8.0938C20.2412 8.91316 20.7951 10.1168 20.7951 11.6617H21.1951ZM15.5911 6.42174C13.9806 6.42174 12.2963 6.93913 10.5702 7.84463L10.756 8.19885C12.4459 7.31235 14.0656 6.82174 15.5911 6.82174V6.42174ZM10.5694 7.84507C9.18729 8.57841 7.77953 9.47964 6.29056 10.5472L6.52363 10.8723C8.00266 9.81184 9.3949 8.92107 10.7568 8.19841L10.5694 7.84507ZM6.28979 10.5478C5.48454 11.1309 4.97999 11.5132 4.64981 11.9635L4.97237 12.2C5.2582 11.8103 5.70565 11.4646 6.5244 10.8717L6.28979 10.5478ZM4.65257 11.9598C4.51243 12.142 4.40993 12.2589 4.30175 12.3338C4.20244 12.4026 4.08921 12.4417 3.91509 12.4417V12.8417C4.16098 12.8417 4.35575 12.7829 4.52944 12.6627C4.69425 12.5486 4.82976 12.3855 4.96962 12.2037L4.65257 11.9598ZM3.91509 12.4417C3.72223 12.4417 3.40537 12.3589 3.02831 12.1603C2.65598 11.9642 2.23986 11.6628 1.84915 11.2451L1.55704 11.5184C1.97833 11.9687 2.4302 12.2973 2.84188 12.5142C3.24882 12.7286 3.63196 12.8417 3.91509 12.8417V12.4417ZM1.84828 11.2442C1.60993 10.9926 1.39684 10.6864 1.24418 10.3877C1.08914 10.0844 1.00709 9.80967 1.00709 9.61774H0.607094C0.607094 9.90181 0.721045 10.2431 0.888007 10.5698C1.05735 10.9011 1.29226 11.2389 1.5579 11.5193L1.84828 11.2442ZM1.00709 9.61774C1.00709 9.51557 1.03835 9.42019 1.08033 9.35489C1.12805 9.28067 1.15914 9.28574 1.14309 9.28574V8.88574C0.959045 8.88574 0.822142 9.01681 0.743858 9.13859C0.659839 9.26928 0.607094 9.43991 0.607094 9.61774H1.00709ZM1.14309 9.28574C1.15322 9.28574 1.17454 9.28757 1.22609 9.32624C1.28211 9.36825 1.34777 9.43326 1.44967 9.53516L1.73252 9.25232C1.63842 9.15822 1.55008 9.06923 1.46609 9.00624C1.37765 8.93991 1.27297 8.88574 1.14309 8.88574V9.28574ZM1.44967 9.53516C1.69812 9.78361 1.95712 9.98428 2.20265 10.1241C2.44417 10.2615 2.68964 10.3497 2.90709 10.3497V9.94974C2.78854 9.94974 2.61401 9.89795 2.40053 9.77643C2.19107 9.6572 1.96007 9.47987 1.73252 9.25232L1.44967 9.53516ZM2.90709 10.3497C3.34527 10.3497 3.82666 10.2218 4.65098 9.79538L4.46721 9.4401C3.66753 9.85373 3.25292 9.94974 2.90709 9.94974V10.3497ZM4.65198 9.79486C6.94787 8.59092 8.48324 7.80938 9.90532 7.16806L9.74087 6.80342C8.30694 7.4501 6.76231 8.23656 4.46621 9.44062L4.65198 9.79486ZM9.90659 7.16747C11.961 6.22357 13.8361 5.72974 15.6751 5.72974V5.32974C13.7621 5.32974 11.8292 5.84391 9.73959 6.804L9.90659 7.16747ZM36.5235 1.94574L36.6682 1.80764L36.6678 1.80723L36.5235 1.94574ZM36.8595 4.38174L36.9228 4.57161L36.9297 4.56901L36.8595 4.38174ZM35.8795 4.96974L36.0075 5.12338L35.8795 4.96974ZM32.9115 7.60174L32.774 7.45643L32.7716 7.45877L32.9115 7.60174ZM29.2995 11.3537L29.4482 11.4875L29.4503 11.4852L29.2995 11.3537ZM29.4115 12.8657L29.2699 13.0074L29.2777 13.0144L29.4115 12.8657ZM30.6435 13.9297L30.5155 14.0834L30.5156 14.0835L30.6435 13.9297ZM36.9435 19.9217L36.7886 20.0483L36.7887 20.0484L36.9435 19.9217ZM36.0475 22.7777L36.2215 22.6791L36.2214 22.679L36.0475 22.7777ZM28.5435 14.0697L28.4081 14.2169L28.4081 14.217L28.5435 14.0697ZM28.1515 10.7097L28.3029 10.8405L28.3059 10.8369L28.1515 10.7097ZM31.3435 7.04174L31.1951 6.90767L31.1933 6.90967L31.3435 7.04174ZM34.0315 3.96174L34.1849 4.09013L34.1857 4.08912L34.0315 3.96174ZM33.7515 1.35774L33.6286 1.51577L33.6359 1.52094L33.7515 1.35774ZM34.1155 0.91374C34.3925 0.91374 34.7938 1.03153 35.219 1.24584C35.6399 1.45798 36.0615 1.75329 36.3792 2.08425L36.6678 1.80723C36.3135 1.43819 35.8531 1.1175 35.399 0.888641C34.9492 0.661948 34.4825 0.51374 34.1155 0.51374V0.91374ZM36.3788 2.08383C36.6725 2.39147 36.9073 2.65413 37.0687 2.89126C37.2307 3.12937 37.3035 3.32016 37.3035 3.48574H37.7035C37.7035 3.20332 37.5803 2.93211 37.3993 2.66621C37.2177 2.39934 36.9625 2.11601 36.6682 1.80764L36.3788 2.08383ZM37.3035 3.48574C37.3035 3.74767 37.1508 4.05888 36.7893 4.19447L36.9297 4.56901C37.4642 4.3686 37.7035 3.8958 37.7035 3.48574H37.3035ZM36.7963 4.192C36.5143 4.28598 36.1008 4.52499 35.7515 4.8161L36.0075 5.12338C36.3302 4.85449 36.7007 4.6455 36.9227 4.57148L36.7963 4.192ZM35.7515 4.8161C34.9089 5.51825 33.8137 6.47304 32.7741 7.45645L33.0489 7.74703C34.0813 6.77043 35.1701 5.82123 36.0075 5.12338L35.7515 4.8161ZM32.7716 7.45877C31.4825 8.71987 30.106 10.1243 29.1487 11.2223L29.4503 11.4852C30.397 10.3992 31.7645 9.00361 33.0514 7.74471L32.7716 7.45877ZM29.1508 11.2199C28.8927 11.5067 28.7355 11.7511 28.7355 12.0537H29.1355C29.1355 11.9084 29.2023 11.7607 29.4482 11.4875L29.1508 11.2199ZM28.7355 12.0537C28.7355 12.3929 28.9309 12.668 29.2701 13.0072L29.5529 12.7243C29.2201 12.3915 29.1355 12.2185 29.1355 12.0537H28.7355ZM29.2777 13.0144C29.5595 13.268 30.0094 13.6617 30.5155 14.0834L30.7715 13.7761C30.2696 13.3578 29.8235 12.9674 29.5453 12.7171L29.2777 13.0144ZM30.5156 14.0835C33.175 16.295 35.1778 18.0764 36.7886 20.0483L37.0984 19.7952C35.4612 17.791 33.432 15.9885 30.7714 13.776L30.5156 14.0835ZM36.7887 20.0484C37.8034 21.2885 38.1715 21.9354 38.1715 22.5537H38.5715C38.5715 21.7721 38.0996 21.019 37.0983 19.7951L36.7887 20.0484ZM38.1715 22.5537C38.1715 22.9802 38.0555 23.2805 37.8937 23.4706C37.7334 23.6591 37.5167 23.7537 37.2795 23.7537V24.1537C37.6303 24.1537 37.9596 24.0104 38.1983 23.7298C38.4355 23.451 38.5715 23.0513 38.5715 22.5537H38.1715ZM37.2795 23.7537C37.1173 23.7537 36.9765 23.6975 36.8141 23.538C36.6432 23.3702 36.4587 23.0977 36.2215 22.6791L35.8735 22.8763C36.1123 23.2978 36.3198 23.6133 36.5339 23.8235C36.7565 24.042 36.9937 24.1537 37.2795 24.1537V23.7537ZM36.2214 22.679C34.4413 19.5427 31.818 16.8094 28.6789 13.9225L28.4081 14.217C31.541 17.0981 34.1256 19.7968 35.8736 22.8765L36.2214 22.679ZM28.6789 13.9226C27.9964 13.2946 27.7075 12.7282 27.7075 12.2497H27.3075C27.3075 12.8913 27.6906 13.5568 28.4081 14.2169L28.6789 13.9226ZM27.7075 12.2497C27.7075 11.9991 27.7338 11.7949 27.8162 11.5841C27.8996 11.3711 28.0455 11.1385 28.3029 10.8405L28.0001 10.579C27.7255 10.897 27.5494 11.1684 27.4438 11.4384C27.3372 11.7106 27.3075 11.9684 27.3075 12.2497H27.7075ZM28.3059 10.8369C29.0872 9.88819 30.0634 8.80042 31.4937 7.17381L31.1933 6.90967C29.7676 8.53106 28.7838 9.62729 27.9971 10.5826L28.3059 10.8369ZM31.4919 7.1758C32.2768 6.30681 33.1746 5.29678 34.1849 4.09013L33.8781 3.83335C32.8724 5.0347 31.9782 6.04067 31.1951 6.90768L31.4919 7.1758ZM34.1857 4.08912C34.4528 3.76582 34.6578 3.49612 34.7961 3.25684C34.9352 3.01631 35.0155 2.79206 35.0155 2.56174H34.6155C34.6155 2.69542 34.5698 2.84917 34.4499 3.05664C34.3292 3.26536 34.1422 3.51366 33.8773 3.83436L34.1857 4.08912ZM35.0155 2.56174C35.0155 2.33015 34.8736 2.10019 34.6844 1.88923C34.4884 1.6706 34.2091 1.43675 33.8671 1.19453L33.6359 1.52094C33.9659 1.75473 34.2186 1.96888 34.3866 2.15625C34.5615 2.35129 34.6155 2.48533 34.6155 2.56174H35.0155ZM33.8743 1.19987C33.8089 1.14903 33.7544 1.10903 33.7114 1.07733C33.6664 1.04414 33.6391 1.02367 33.62 1.0071C33.6012 0.99085 33.603 0.988871 33.6077 0.997406C33.6149 1.01038 33.6155 1.022 33.6155 1.02174H33.2155C33.2155 1.07748 33.2266 1.13459 33.2574 1.19045C33.2857 1.24186 33.3243 1.28013 33.358 1.30938C33.3914 1.33831 33.4324 1.36859 33.474 1.39927C33.5176 1.43145 33.5681 1.46844 33.6287 1.51561L33.8743 1.19987ZM33.6155 1.02174C33.6155 1.04503 33.6041 1.05172 33.6146 1.04067C33.626 1.02869 33.652 1.0087 33.6997 0.987502C33.7946 0.945351 33.9406 0.91374 34.1155 0.91374V0.51374C33.8984 0.51374 33.6944 0.552128 33.5373 0.621977C33.459 0.656783 33.3835 0.703288 33.3249 0.764808C33.2654 0.827257 33.2155 0.914451 33.2155 1.02174H33.6155ZM47.2582 13.2857L47.1087 13.1529L46.9835 13.2938L47.1168 13.4272L47.2582 13.2857ZM47.3142 13.3417L47.1728 13.4832L47.2971 13.6075L47.4364 13.5001L47.3142 13.3417ZM53.9502 21.4337L53.7601 21.4957L53.8227 21.6879L54.0142 21.6232L53.9502 21.4337ZM46.7262 14.9937L46.5835 14.8536L46.5828 14.8543L46.7262 14.9937ZM44.5422 17.4577L44.3802 17.3404L44.3795 17.3415L44.5422 17.4577ZM43.3102 15.7217L43.4564 15.8582L43.4568 15.8578L43.3102 15.7217ZM49.8062 8.52574L49.961 8.65239L49.9615 8.65175L49.8062 8.52574ZM53.5582 3.79374L53.4003 3.67094L53.3988 3.67297L53.5582 3.79374ZM53.0262 3.62574L52.963 3.436L53.0262 3.62574ZM49.2182 5.02574L49.2907 5.21215L49.2925 5.21143L49.2182 5.02574ZM48.2662 5.61374L48.4078 5.75536L48.4149 5.74753L48.2662 5.61374ZM46.1102 5.10974L46.2598 4.9768L46.2554 4.97219L46.1102 5.10974ZM45.8022 2.78574L45.6394 2.90204L45.6429 2.90662L45.8022 2.78574ZM48.7422 3.68174L48.7865 3.87679L48.7897 3.87602L48.7422 3.68174ZM52.4382 2.61774L52.3832 2.42525L52.375 2.428L52.4382 2.61774ZM53.2782 2.11374L53.4196 2.25516V2.25516L53.2782 2.11374ZM55.6862 2.70174L55.5686 2.86351L55.5715 2.86559L55.6862 2.70174ZM55.7982 4.49374L55.8375 4.6899L55.8416 4.68898L55.7982 4.49374ZM54.6502 5.30574L54.5088 5.16432L54.6502 5.30574ZM50.9262 9.36574L51.0778 9.49619L51.0782 9.49572L50.9262 9.36574ZM52.2142 21.8537L52.2576 22.049L52.4605 22.0039L52.4076 21.8028L52.2142 21.8537ZM47.1168 13.4272L47.1728 13.4832L47.4556 13.2003L47.3996 13.1443L47.1168 13.4272ZM47.4364 13.5001C49.3671 12.0107 51.3411 11.3297 53.1942 11.3297V10.9297C51.2393 10.9297 49.1813 11.6488 47.1921 13.1834L47.4364 13.5001ZM53.1942 11.3297C55.2097 11.3297 56.7538 11.9596 57.7924 12.9411C58.8311 13.9227 59.3782 15.2689 59.3782 16.7297H59.7782C59.7782 15.1666 59.1913 13.7127 58.0671 12.6504C56.9427 11.5878 55.2948 10.9297 53.1942 10.9297V11.3297ZM59.3782 16.7297C59.3782 18.7765 58.4593 20.3717 57.0381 21.4605C55.6123 22.5528 53.6762 23.1377 51.6542 23.1377V23.5377C53.7482 23.5377 55.7741 22.9327 57.2813 21.778C58.7931 20.6198 59.7782 18.911 59.7782 16.7297H59.3782ZM51.6542 23.1377C50.1525 23.1377 48.8892 22.8273 48.0087 22.2983C47.1319 21.7716 46.6462 21.0382 46.6462 20.1737H46.2462C46.2462 21.2133 46.8385 22.0619 47.8027 22.6412C48.7632 23.2182 50.1039 23.5377 51.6542 23.5377V23.1377ZM46.6462 20.1737C46.6462 19.48 46.9323 18.9573 47.391 18.603C47.8552 18.2444 48.5088 18.0497 49.2462 18.0497V17.6497C48.4436 17.6497 47.6972 17.8611 47.1465 18.2865C46.5902 18.7161 46.2462 19.3555 46.2462 20.1737H46.6462ZM49.2462 18.0497C50.4857 18.0497 51.5105 18.5955 52.2817 19.3058C53.0555 20.0185 53.5611 20.8856 53.7601 21.4957L54.1404 21.3717C53.9193 20.6939 53.3749 19.7689 52.5527 19.0116C51.7279 18.252 50.6107 17.6497 49.2462 17.6497V18.0497ZM54.0142 21.6232C56.3363 20.8395 57.6782 18.8586 57.6782 16.5897H57.2782C57.2782 18.6888 56.0441 20.516 53.8863 21.2442L54.0142 21.6232ZM57.6782 16.5897C57.6782 14.9892 57.1502 13.8181 56.2922 13.0493C55.438 12.2838 54.2799 11.9377 53.0542 11.9377V12.3377C54.2086 12.3377 55.2624 12.6636 56.0252 13.3472C56.7843 14.0274 57.2782 15.0823 57.2782 16.5897H57.6782ZM53.0542 11.9377C50.3815 11.9377 48.1491 13.2596 46.5835 14.8536L46.8689 15.1339C48.3834 13.5919 50.519 12.3377 53.0542 12.3377V11.9377ZM46.5828 14.8543C45.604 15.8611 44.978 16.515 44.3802 17.3404L44.7042 17.575C45.2824 16.7765 45.8884 16.1424 46.8696 15.1332L46.5828 14.8543ZM44.3795 17.3415C44.2731 17.4904 44.0512 17.6217 43.8422 17.6217V18.0217C44.1933 18.0217 44.5314 17.817 44.705 17.574L44.3795 17.3415ZM43.8422 17.6217C43.4276 17.6217 43.0342 17.2703 43.0342 16.7297H42.6342C42.6342 17.4771 43.1928 18.0217 43.8422 18.0217V17.6217ZM43.0342 16.7297C43.0342 16.5078 43.0936 16.247 43.4564 15.8582L43.164 15.5853C42.7429 16.0365 42.6342 16.3916 42.6342 16.7297H43.0342ZM43.4568 15.8578C45.609 13.538 47.9398 11.1227 49.961 8.65239L49.6514 8.39909C47.6406 10.8568 45.3235 13.2575 43.1636 15.5857L43.4568 15.8578ZM49.9615 8.65175C51.165 7.16846 52.3152 5.7657 53.7176 3.91451L53.3988 3.67297C52.0012 5.51778 50.8555 6.91502 49.6509 8.39973L49.9615 8.65175ZM53.7161 3.91653C53.7703 3.84677 53.8125 3.78148 53.8397 3.71998C53.8654 3.66156 53.8878 3.58351 53.8686 3.50027C53.8464 3.40408 53.7798 3.34494 53.7146 3.31583C53.6572 3.29015 53.5987 3.28574 53.5582 3.28574V3.68574C53.5738 3.68574 53.5678 3.68833 53.5514 3.68103C53.5416 3.67663 53.5258 3.6676 53.5105 3.6506C53.4944 3.63268 53.4837 3.61136 53.4788 3.59021C53.4701 3.55247 53.4838 3.53567 53.4737 3.55862C53.4649 3.5785 53.4441 3.61471 53.4003 3.67095L53.7161 3.91653ZM53.5582 3.28574C53.47 3.28574 53.3529 3.31538 53.2583 3.34243C53.1554 3.37183 53.0462 3.40825 52.963 3.436L53.0895 3.81548C53.1742 3.78723 53.2751 3.75365 53.3682 3.72704C53.4695 3.69809 53.5344 3.68574 53.5582 3.68574V3.28574ZM52.963 3.436C51.6987 3.85743 50.267 4.39083 49.1439 4.84004L49.2925 5.21143C50.4095 4.76465 51.8338 4.23405 53.0895 3.81548L52.963 3.436ZM49.1457 4.83934C48.8921 4.93796 48.7031 5.0202 48.5436 5.11748C48.38 5.21725 48.2534 5.32901 48.1176 5.47995L48.4149 5.74753C48.531 5.61847 48.6285 5.53423 48.7518 5.459C48.8793 5.38128 49.0403 5.30952 49.2907 5.21214L49.1457 4.83934ZM48.1248 5.47232C47.9889 5.60818 47.786 5.72174 47.5102 5.72174V6.12174C47.9064 6.12174 48.2075 5.9553 48.4076 5.75516L48.1248 5.47232ZM47.5102 5.72174C47.3766 5.72174 47.1736 5.66217 46.9399 5.53049C46.7106 5.40129 46.4689 5.21225 46.2597 4.97687L45.9607 5.24261C46.1995 5.51123 46.4759 5.72819 46.7435 5.87899C47.0068 6.02731 47.2798 6.12174 47.5102 6.12174V5.72174ZM46.2554 4.97219C45.7594 4.44859 45.3022 3.76935 45.3022 3.06574H44.9022C44.9022 3.93013 45.4531 4.70689 45.965 5.24729L46.2554 4.97219ZM45.3022 3.06574C45.3022 2.96194 45.3344 2.84851 45.3815 2.76479C45.4049 2.72329 45.4276 2.69683 45.4439 2.68304C45.4609 2.66865 45.4588 2.67774 45.4382 2.67774V2.27774C45.3337 2.27774 45.2475 2.32532 45.1858 2.37743C45.1234 2.43015 45.0726 2.49819 45.0329 2.56869C44.954 2.70897 44.9022 2.88954 44.9022 3.06574H45.3022ZM45.4382 2.67774C45.4243 2.67774 45.4346 2.67047 45.4774 2.70821C45.5194 2.74528 45.5718 2.80727 45.6395 2.90199L45.965 2.66949C45.8926 2.56821 45.819 2.47619 45.742 2.40827C45.6658 2.34101 45.5641 2.27774 45.4382 2.27774V2.67774ZM45.6429 2.90662C46.2609 3.72127 46.7058 4.07774 47.2862 4.07774V3.67774C46.9146 3.67774 46.5755 3.47421 45.9616 2.66486L45.6429 2.90662ZM47.2862 4.07774C47.6696 4.07774 48.1611 4.01892 48.7865 3.87677L48.6979 3.48671C48.0914 3.62456 47.6309 3.67774 47.2862 3.67774V4.07774ZM48.7897 3.87602C50.0548 3.56678 51.236 3.22928 52.5015 2.80748L52.375 2.428C51.1204 2.8462 49.9497 3.1807 48.6947 3.48746L48.7897 3.87602ZM52.4932 2.81004C52.9257 2.68647 53.1781 2.49669 53.4196 2.25516L53.1368 1.97232C52.9303 2.17878 52.7348 2.32501 52.3833 2.42543L52.4932 2.81004ZM53.4196 2.25516C53.579 2.09577 53.7525 2.03374 53.9222 2.03374V1.63374C53.6439 1.63374 53.3694 1.73971 53.1368 1.97232L53.4196 2.25516ZM53.9222 2.03374C54.0951 2.03374 54.3456 2.11863 54.6486 2.27698C54.9445 2.43166 55.2647 2.64245 55.5686 2.86349L55.8039 2.53999C55.4918 2.31303 55.154 2.08982 54.8339 1.92249C54.5208 1.75884 54.1974 1.63374 53.9222 1.63374V2.03374ZM55.5715 2.86559C56.1171 3.2475 56.3262 3.55935 56.3262 3.90574H56.7262C56.7262 3.35613 56.3753 2.93997 55.8009 2.53789L55.5715 2.86559ZM56.3262 3.90574C56.3262 3.98281 56.2994 4.04628 56.2241 4.10835C56.14 4.17759 55.9931 4.24554 55.7548 4.2985L55.8416 4.68898C56.1073 4.62994 56.3244 4.54389 56.4784 4.41713C56.641 4.2832 56.7262 4.10867 56.7262 3.90574H56.3262ZM55.759 4.29762C55.4165 4.36613 55.1283 4.54484 54.5088 5.16432L54.7916 5.44716C55.4042 4.83464 55.62 4.73335 55.8374 4.68986L55.759 4.29762ZM54.5088 5.16432C53.5812 6.09193 52.4296 7.29975 50.7742 9.23576L51.0782 9.49572C52.7268 7.56773 53.8713 6.36755 54.7916 5.44716L54.5088 5.16432ZM50.7746 9.23529C50.2609 9.83231 49.6279 10.4933 48.9797 11.166C48.3333 11.8368 47.672 12.5192 47.1087 13.1529L47.4077 13.4186C47.9644 12.7923 48.6191 12.1167 49.2677 11.4435C49.9146 10.7722 50.5555 10.1032 51.0778 9.49619L50.7746 9.23529ZM52.4076 21.8028C52.1874 20.9661 51.6839 20.1509 51.0585 19.5437C50.4362 18.9395 49.6679 18.5177 48.9102 18.5177V18.9177C49.5246 18.9177 50.1983 19.266 50.7799 19.8307C51.3585 20.3926 51.821 21.1454 52.0208 21.9046L52.4076 21.8028ZM48.9102 18.5177C48.3648 18.5177 47.9288 18.6851 47.6269 18.9625C47.3252 19.2397 47.1702 19.6158 47.1702 20.0057H47.5702C47.5702 19.7237 47.6812 19.4558 47.8975 19.257C48.1137 19.0584 48.4476 18.9177 48.9102 18.9177V18.5177ZM47.1702 20.0057C47.1702 20.6809 47.6102 21.22 48.2997 21.5796C48.9886 21.9388 49.9544 22.1377 51.0942 22.1377V21.7377C49.994 21.7377 49.0979 21.5447 48.4847 21.2249C47.8722 20.9055 47.5702 20.4785 47.5702 20.0057H47.1702ZM51.0942 22.1377C51.5738 22.1377 51.9836 22.1099 52.2576 22.049L52.1708 21.6585C51.9408 21.7096 51.5667 21.7377 51.0942 21.7377V22.1377Z" fill="#2E2521" mask="url(#path-1-outside-1_13_529)"/>
</svg>
