<svg width="113" height="24" viewBox="0 0 113 24" fill="none" xmlns="http://www.w3.org/2000/svg">
<mask id="path-1-outside-1_13_523" maskUnits="userSpaceOnUse" x="0" y="-0.16626" width="113" height="24" fill="black">
<rect fill="white" y="-0.16626" width="113" height="24"/>
<path d="M23.1643 14.9657C23.1643 15.8057 22.6883 16.1697 22.1563 16.1697C21.8763 16.1697 21.6523 16.0857 21.3443 15.8617C21.0363 15.6377 20.7563 15.5537 20.3083 15.5537C19.4123 15.5537 18.4323 15.6097 17.1443 15.6937C16.8923 15.7217 16.7523 15.5257 16.7523 15.3297C16.7523 15.1617 16.8363 15.0497 17.0603 14.9937C18.2643 14.7417 19.2443 14.5457 20.1963 14.2097C20.5323 14.0977 20.6443 14.0137 20.6443 13.7057C20.6443 13.2017 20.2243 12.2497 19.6923 11.5497C18.6283 10.1497 17.7323 9.36574 16.6123 8.60974C16.4443 8.49774 16.3323 8.32974 16.3323 8.21774C16.3323 8.07774 16.5003 7.93774 16.7523 7.93774C16.8083 7.93774 16.8923 7.93774 17.0043 7.99374C18.2923 8.52574 19.6923 9.33774 20.9243 10.6537C22.1003 11.8857 23.1643 13.3417 23.1643 14.9657ZM9.36034 7.71374C9.89234 7.60174 10.5363 7.54574 11.0123 7.54574C11.9083 7.54574 12.6643 7.90974 13.2243 8.69374C13.8403 9.56174 14.0363 10.7937 14.0363 12.0257C14.0363 14.0417 13.5883 16.1977 12.9443 17.9617C12.4683 19.3057 11.7403 20.6217 10.7603 21.5457C9.89234 22.3577 9.13634 22.8057 8.26834 22.8057C7.62434 22.8057 7.34434 22.6377 7.23234 22.0777C7.14834 21.6017 7.06434 21.3777 6.81234 21.0697C6.36434 20.5377 5.86034 20.0057 5.18834 19.3057C5.07634 19.1937 5.04834 19.1097 5.04834 19.0257C5.04834 18.9137 5.18834 18.7177 5.32834 18.7177C5.44034 18.7177 5.52434 18.7737 5.63634 18.8577C6.44834 19.4177 7.12034 19.8657 7.84834 20.2857C8.07234 20.3977 8.35234 20.4817 8.66034 20.4817C9.02434 20.4817 9.38834 20.3137 9.72434 19.9497C10.6483 18.9697 11.2363 17.6537 11.7123 16.1417C12.1883 14.5457 12.4403 12.6137 12.4403 11.3817C12.4403 10.1497 12.3003 9.44974 11.9643 9.02974C11.6843 8.66574 11.3763 8.55374 10.7603 8.55374C10.1723 8.55374 9.44434 8.72174 8.82834 8.88974C7.96034 10.6817 7.17634 12.4457 6.33634 14.0697C4.88034 16.8977 3.62034 19.3617 2.10834 21.9377C1.88434 22.3017 1.60434 22.4977 1.12834 22.4977C0.624344 22.4977 0.232344 22.1617 0.232344 21.7137C0.232344 21.3497 0.344344 21.0417 0.596344 20.6777C2.24834 18.1857 3.76034 15.6657 5.16034 13.0897C5.88834 11.7177 6.50434 10.5697 7.06434 9.39374C6.02834 9.75774 4.93634 10.2057 4.12434 10.5417C3.73234 10.7097 3.50834 10.7937 3.31234 10.9617C3.11634 11.1297 2.92034 11.2697 2.61234 11.2697C2.22034 11.2697 1.80034 11.0457 1.35234 10.5977C0.764344 10.0097 0.288344 9.28174 0.288344 8.63774C0.288344 8.32974 0.428344 7.96574 0.568344 7.96574C0.680344 7.96574 0.736344 8.02174 0.876344 8.21774C1.38034 8.86174 1.80034 9.25374 2.24834 9.25374C2.83634 9.25374 3.34034 9.11374 4.26434 8.88974C5.24434 8.66574 6.30834 8.38574 7.65234 8.02174C8.21234 6.73374 8.60434 5.64174 8.91234 4.63374C9.05234 4.21374 9.10834 3.90574 9.10834 3.54174C9.10834 3.28974 9.05234 3.14974 8.68834 2.89774C8.43634 2.72974 7.90434 2.56174 7.45634 2.47774C7.17634 2.42174 7.06434 2.36574 7.06434 2.22574C7.06434 2.08574 7.23234 1.97374 7.42834 1.86174C7.65234 1.74974 8.04434 1.63774 8.43634 1.63774C9.36034 1.63774 10.3683 2.08574 11.2363 2.81374C11.5723 3.09374 11.6843 3.42974 11.6843 3.73774C11.6843 4.01774 11.5163 4.21374 11.1523 4.38174C10.9563 4.46574 10.7043 4.80174 10.4803 5.27774C10.1443 6.03374 9.75234 6.84574 9.36034 7.71374ZM29.2027 14.8537L29.2587 14.8817C30.3787 13.6777 31.5547 13.1177 32.7307 13.1177C33.7667 13.1177 34.6347 13.4817 35.2227 14.2377C35.7827 14.9657 36.1187 16.0297 36.2307 17.4017C36.3147 18.5497 36.4827 19.6137 36.8187 20.1457C37.2107 20.7337 37.6587 20.9577 38.4427 20.9577C39.8707 20.9577 41.7187 20.0057 43.1747 18.2977C44.4347 16.8137 45.4707 14.7977 46.1707 12.6697C46.2547 12.4177 46.3387 12.2777 46.5627 12.2777C46.7587 12.2777 46.8707 12.4457 46.8707 12.6417C46.8707 12.7257 46.8427 12.8937 46.8147 13.0897C46.4227 15.3017 45.6107 17.8217 43.9307 19.9497C42.5587 21.7137 40.6267 22.9177 38.3307 22.9177C37.2387 22.9177 36.2027 22.6097 35.5027 21.6297C34.9427 20.8737 34.6627 19.8097 34.5787 17.8777C34.5227 16.4497 34.3827 15.4697 34.0467 14.8817C33.6827 14.2377 33.2627 14.0137 32.5627 14.0137C31.4987 14.0137 30.4067 14.5737 29.4267 15.9177C28.5307 17.2057 27.7467 18.8297 26.7107 21.3777C26.5427 21.8817 26.1787 22.3857 25.4507 22.3857C24.9747 22.3857 24.5547 22.0777 24.5547 21.3217C24.5547 21.0137 24.6107 20.7897 24.8347 20.3697C26.5707 16.9817 28.5587 13.3697 30.1827 10.2897C31.4987 7.76974 32.5627 5.66974 33.0107 4.57774C33.2627 3.96174 33.3747 3.56974 33.3747 3.28974C33.3747 2.81374 33.0947 2.42174 32.2547 1.91774C32.0307 1.77774 31.9187 1.72174 31.9187 1.58174C31.9187 1.41374 32.3107 1.24574 32.8147 1.24574C33.4587 1.24574 34.2427 1.66574 35.0547 2.39374C35.8387 3.09374 36.0627 3.51374 36.0627 3.90574C36.0627 4.35374 35.8667 4.54974 35.5307 4.74574C35.0547 5.02574 34.8867 5.22174 34.4107 6.00574C33.0667 8.24574 31.4987 10.9897 29.2027 14.8537ZM65.006 2.67374C65.174 2.67374 65.37 2.72974 65.454 2.75774C66.21 2.98174 67.05 3.40174 67.89 4.15774C68.562 4.74574 68.954 5.24974 68.954 5.83774C68.954 6.28574 68.674 6.67774 68.17 6.67774C67.806 6.67774 67.498 6.42574 67.246 5.92174C66.826 5.08174 65.706 3.84974 64.894 3.23374C64.782 3.14974 64.698 3.03774 64.698 2.95374C64.698 2.81374 64.81 2.67374 65.006 2.67374ZM67.274 0.769739C67.414 0.769739 67.638 0.82574 67.89 0.881739C68.646 1.07774 69.346 1.41374 70.13 1.97374C70.802 2.44974 71.418 3.09374 71.418 3.73774C71.418 4.29774 71.082 4.63374 70.662 4.63374C70.298 4.63374 70.074 4.49374 69.766 3.96174C69.262 3.09374 68.142 1.88974 67.19 1.32974C67.078 1.27374 66.994 1.16174 66.994 1.04974C66.994 0.909739 67.106 0.769739 67.274 0.769739ZM71.194 15.1617C71.194 16.0017 70.718 16.3657 70.186 16.3657C69.906 16.3657 69.682 16.2817 69.374 16.0577C69.066 15.8337 68.786 15.7497 68.338 15.7497C67.442 15.7497 66.462 15.8057 65.174 15.8897C64.922 15.9177 64.782 15.7217 64.782 15.5257C64.782 15.3577 64.866 15.2457 65.09 15.1897C66.294 14.9377 67.274 14.7417 68.226 14.4057C68.562 14.2937 68.674 14.2097 68.674 13.9017C68.674 13.3977 68.254 12.4457 67.722 11.7457C66.658 10.3457 65.762 9.56174 64.642 8.80574C64.474 8.69374 64.362 8.52574 64.362 8.41374C64.362 8.27374 64.53 8.13374 64.782 8.13374C64.838 8.13374 64.922 8.13374 65.034 8.18974C66.322 8.72174 67.722 9.53374 68.954 10.8497C70.13 12.0817 71.194 13.5377 71.194 15.1617ZM57.39 7.90974C57.922 7.79774 58.566 7.74174 59.042 7.74174C59.938 7.74174 60.694 8.10574 61.254 8.88974C61.87 9.75774 62.066 10.9897 62.066 12.2217C62.066 14.2377 61.618 16.3937 60.974 18.1577C60.498 19.5017 59.77 20.8177 58.79 21.7417C57.922 22.5537 57.166 23.0017 56.298 23.0017C55.654 23.0017 55.374 22.8337 55.262 22.2737C55.178 21.7977 55.094 21.5737 54.842 21.2657C54.394 20.7337 53.89 20.2017 53.218 19.5017C53.106 19.3897 53.078 19.3057 53.078 19.2217C53.078 19.1097 53.218 18.9137 53.358 18.9137C53.47 18.9137 53.554 18.9697 53.666 19.0537C54.478 19.6137 55.15 20.0617 55.878 20.4817C56.102 20.5937 56.382 20.6777 56.69 20.6777C57.054 20.6777 57.418 20.5097 57.754 20.1457C58.678 19.1657 59.266 17.8497 59.742 16.3377C60.218 14.7417 60.47 12.8097 60.47 11.5777C60.47 10.3457 60.33 9.64574 59.994 9.22574C59.714 8.86174 59.406 8.74974 58.79 8.74974C58.202 8.74974 57.474 8.91774 56.858 9.08574C55.99 10.8777 55.206 12.6417 54.366 14.2657C52.91 17.0937 51.65 19.5577 50.138 22.1337C49.914 22.4977 49.634 22.6937 49.158 22.6937C48.654 22.6937 48.262 22.3577 48.262 21.9097C48.262 21.5457 48.374 21.2377 48.626 20.8737C50.278 18.3817 51.79 15.8617 53.19 13.2857C53.918 11.9137 54.534 10.7657 55.094 9.58974C54.058 9.95374 52.966 10.4017 52.154 10.7377C51.762 10.9057 51.538 10.9897 51.342 11.1577C51.146 11.3257 50.95 11.4657 50.642 11.4657C50.25 11.4657 49.83 11.2417 49.382 10.7937C48.794 10.2057 48.318 9.47774 48.318 8.83374C48.318 8.52574 48.458 8.16174 48.598 8.16174C48.71 8.16174 48.766 8.21774 48.906 8.41374C49.41 9.05774 49.83 9.44974 50.278 9.44974C50.866 9.44974 51.37 9.30974 52.294 9.08574C53.274 8.86174 54.338 8.58174 55.682 8.21774C56.242 6.92974 56.634 5.83774 56.942 4.82974C57.082 4.40974 57.138 4.10174 57.138 3.73774C57.138 3.48574 57.082 3.34574 56.718 3.09374C56.466 2.92574 55.934 2.75774 55.486 2.67374C55.206 2.61774 55.094 2.56174 55.094 2.42174C55.094 2.28174 55.262 2.16974 55.458 2.05774C55.682 1.94574 56.074 1.83374 56.466 1.83374C57.39 1.83374 58.398 2.28174 59.266 3.00974C59.602 3.28974 59.714 3.62574 59.714 3.93374C59.714 4.21374 59.546 4.40974 59.182 4.57774C58.986 4.66174 58.734 4.99774 58.51 5.47374C58.174 6.22974 57.782 7.04174 57.39 7.90974ZM81.7106 3.96174C80.7306 3.56974 79.9186 2.95374 79.4146 2.33774C78.9386 1.77774 78.7986 1.30174 78.7986 1.02174C78.7986 0.881739 78.9386 0.769739 79.0226 0.769739C79.1346 0.769739 79.2466 0.82574 79.3586 0.96574C80.2266 2.05774 81.5146 2.50574 83.3346 2.61774C84.2026 2.67374 84.7906 2.75774 85.2386 3.03774C85.6866 3.31774 85.7986 3.65374 85.7986 4.04574C85.7986 4.60574 85.4066 4.74574 84.9586 4.74574C84.6506 4.74574 84.1466 4.68974 83.8666 4.68974C83.3626 4.68974 82.8586 4.80174 82.3826 4.99774C81.3186 5.44574 80.5346 5.80974 79.4986 6.31374C79.2746 6.42574 79.0506 6.45374 78.9386 6.45374C78.7986 6.45374 78.6866 6.34174 78.6866 6.22974C78.6866 6.08974 78.7426 5.94974 78.9106 5.83774C79.8066 5.24974 80.5346 4.77374 81.7106 3.96174ZM80.2826 16.2537C80.7586 15.9737 81.2906 15.7777 81.8226 15.7777C82.8026 15.7777 83.5026 16.2537 84.0066 17.0657C84.5666 18.0177 84.9026 19.3617 85.3226 20.2857C85.7706 21.2377 86.1626 21.5737 87.5906 21.5737C88.4866 21.5737 89.4106 21.4337 90.2506 21.2657C90.6146 21.1817 91.0346 21.0977 91.4546 21.0977C91.9866 21.0977 92.5186 21.2377 92.8826 21.5177C93.2466 21.7977 93.4146 22.1057 93.4146 22.4417C93.4146 22.9457 93.0506 23.2817 91.9026 23.3937C91.1186 23.4777 89.8866 23.5057 89.0466 23.5057C88.0666 23.5057 86.8066 23.4497 86.0506 23.2257C84.7346 22.9177 84.0906 22.0497 83.6986 20.7057C83.3906 19.6137 83.1106 18.2697 82.7186 17.4297C82.4386 16.8697 82.0186 16.6177 81.4026 16.6177C80.4226 16.6177 79.4986 17.6257 78.4066 18.7737C77.2866 19.9497 76.1946 21.2937 74.9626 22.8617C74.7386 23.1417 74.4586 23.2817 74.0666 23.2817C73.4226 23.2817 73.1426 22.7497 73.1426 22.1057C73.1426 21.7977 73.2826 21.4617 73.7866 20.9857C75.4386 19.3897 77.5106 17.2617 79.5546 15.0777C81.3186 13.1737 83.0546 11.2977 84.3426 9.58974C84.4546 9.42174 84.3706 9.28174 84.1746 9.33774C82.3826 9.95374 80.2266 10.9337 78.5186 11.8577C78.0706 12.1097 77.8746 12.2217 77.7066 12.3617C77.4826 12.5297 77.2866 12.6417 76.9226 12.6417C76.5306 12.6417 76.1666 12.3617 75.6626 11.8297C75.2426 11.4097 74.8226 10.7657 74.8226 10.2617C74.8226 9.86974 74.8506 9.72974 74.9066 9.50574C74.9626 9.33774 75.0466 9.22574 75.1586 9.22574C75.2426 9.22574 75.2986 9.28174 75.4946 9.61774C75.6626 9.89774 75.8026 10.1217 75.9986 10.2897C76.2226 10.5137 76.5026 10.6537 76.8666 10.6537C77.0626 10.6537 77.3706 10.6257 77.9586 10.4297C79.5266 9.86974 81.5146 9.14174 83.2226 8.49774C83.7826 8.30174 83.9506 8.18974 84.1466 7.99374C84.3706 7.74174 84.5666 7.60174 84.7906 7.60174C85.0986 7.60174 85.7986 7.90974 86.3866 8.38574C87.0866 8.91774 87.4506 9.22574 87.4506 9.70174C87.4506 10.0937 87.1146 10.2337 86.7226 10.2897C86.2186 10.3457 85.9386 10.5417 85.7146 10.7657C83.9226 12.5857 82.3546 14.1257 80.2826 16.2537ZM99.8093 13.2857L99.8653 13.3417C101.825 11.8297 103.841 11.1297 105.745 11.1297C109.861 11.1297 112.129 13.7057 112.129 16.7297C112.129 20.9577 108.321 23.3377 104.205 23.3377C101.153 23.3377 98.9973 22.0777 98.9973 20.1737C98.9973 18.6617 100.257 17.8497 101.797 17.8497C104.401 17.8497 106.081 20.1457 106.501 21.4337C108.741 20.6777 110.029 18.7737 110.029 16.5897C110.029 13.4817 107.985 12.1377 105.605 12.1377C103.001 12.1377 100.817 13.4257 99.2773 14.9937C98.2973 16.0017 97.6813 16.6457 97.0933 17.4577C96.9533 17.6537 96.6733 17.8217 96.3933 17.8217C95.8613 17.8217 95.3853 17.3737 95.3853 16.7297C95.3853 16.4497 95.4693 16.1417 95.8613 15.7217C98.0173 13.3977 100.341 10.9897 102.357 8.52574C103.561 7.04174 104.709 5.64174 106.109 3.79374C106.305 3.54174 106.221 3.48574 106.109 3.48574C105.997 3.48574 105.745 3.56974 105.577 3.62574C104.317 4.04574 102.889 4.57774 101.769 5.02574C101.265 5.22174 101.069 5.33374 100.817 5.61374C100.649 5.78174 100.397 5.92174 100.061 5.92174C99.6973 5.92174 99.1093 5.61374 98.6613 5.10974C98.1573 4.57774 97.6533 3.84974 97.6533 3.06574C97.6533 2.78574 97.8213 2.47774 97.9893 2.47774C98.1013 2.47774 98.2133 2.58974 98.3533 2.78574C98.9693 3.59774 99.3613 3.87774 99.8373 3.87774C100.201 3.87774 100.677 3.82174 101.293 3.68174C102.553 3.37374 103.729 3.03774 104.989 2.61774C105.381 2.50574 105.605 2.33774 105.829 2.11374C106.025 1.91774 106.249 1.83374 106.473 1.83374C106.921 1.83374 107.621 2.25374 108.237 2.70174C108.797 3.09374 109.077 3.45774 109.077 3.90574C109.077 4.18574 108.853 4.38174 108.349 4.49374C108.069 4.54974 107.817 4.68974 107.201 5.30574C106.277 6.22974 105.129 7.43374 103.477 9.36574C102.441 10.5697 100.929 12.0257 99.8093 13.2857ZM104.765 21.8537C104.345 20.2577 102.833 18.7177 101.461 18.7177C100.453 18.7177 99.9213 19.3337 99.9213 20.0057C99.9213 21.1537 101.405 21.9377 103.645 21.9377C104.121 21.9377 104.513 21.9097 104.765 21.8537Z"/>
</mask>
<path d="M23.1643 14.9657C23.1643 15.8057 22.6883 16.1697 22.1563 16.1697C21.8763 16.1697 21.6523 16.0857 21.3443 15.8617C21.0363 15.6377 20.7563 15.5537 20.3083 15.5537C19.4123 15.5537 18.4323 15.6097 17.1443 15.6937C16.8923 15.7217 16.7523 15.5257 16.7523 15.3297C16.7523 15.1617 16.8363 15.0497 17.0603 14.9937C18.2643 14.7417 19.2443 14.5457 20.1963 14.2097C20.5323 14.0977 20.6443 14.0137 20.6443 13.7057C20.6443 13.2017 20.2243 12.2497 19.6923 11.5497C18.6283 10.1497 17.7323 9.36574 16.6123 8.60974C16.4443 8.49774 16.3323 8.32974 16.3323 8.21774C16.3323 8.07774 16.5003 7.93774 16.7523 7.93774C16.8083 7.93774 16.8923 7.93774 17.0043 7.99374C18.2923 8.52574 19.6923 9.33774 20.9243 10.6537C22.1003 11.8857 23.1643 13.3417 23.1643 14.9657ZM9.36034 7.71374C9.89234 7.60174 10.5363 7.54574 11.0123 7.54574C11.9083 7.54574 12.6643 7.90974 13.2243 8.69374C13.8403 9.56174 14.0363 10.7937 14.0363 12.0257C14.0363 14.0417 13.5883 16.1977 12.9443 17.9617C12.4683 19.3057 11.7403 20.6217 10.7603 21.5457C9.89234 22.3577 9.13634 22.8057 8.26834 22.8057C7.62434 22.8057 7.34434 22.6377 7.23234 22.0777C7.14834 21.6017 7.06434 21.3777 6.81234 21.0697C6.36434 20.5377 5.86034 20.0057 5.18834 19.3057C5.07634 19.1937 5.04834 19.1097 5.04834 19.0257C5.04834 18.9137 5.18834 18.7177 5.32834 18.7177C5.44034 18.7177 5.52434 18.7737 5.63634 18.8577C6.44834 19.4177 7.12034 19.8657 7.84834 20.2857C8.07234 20.3977 8.35234 20.4817 8.66034 20.4817C9.02434 20.4817 9.38834 20.3137 9.72434 19.9497C10.6483 18.9697 11.2363 17.6537 11.7123 16.1417C12.1883 14.5457 12.4403 12.6137 12.4403 11.3817C12.4403 10.1497 12.3003 9.44974 11.9643 9.02974C11.6843 8.66574 11.3763 8.55374 10.7603 8.55374C10.1723 8.55374 9.44434 8.72174 8.82834 8.88974C7.96034 10.6817 7.17634 12.4457 6.33634 14.0697C4.88034 16.8977 3.62034 19.3617 2.10834 21.9377C1.88434 22.3017 1.60434 22.4977 1.12834 22.4977C0.624344 22.4977 0.232344 22.1617 0.232344 21.7137C0.232344 21.3497 0.344344 21.0417 0.596344 20.6777C2.24834 18.1857 3.76034 15.6657 5.16034 13.0897C5.88834 11.7177 6.50434 10.5697 7.06434 9.39374C6.02834 9.75774 4.93634 10.2057 4.12434 10.5417C3.73234 10.7097 3.50834 10.7937 3.31234 10.9617C3.11634 11.1297 2.92034 11.2697 2.61234 11.2697C2.22034 11.2697 1.80034 11.0457 1.35234 10.5977C0.764344 10.0097 0.288344 9.28174 0.288344 8.63774C0.288344 8.32974 0.428344 7.96574 0.568344 7.96574C0.680344 7.96574 0.736344 8.02174 0.876344 8.21774C1.38034 8.86174 1.80034 9.25374 2.24834 9.25374C2.83634 9.25374 3.34034 9.11374 4.26434 8.88974C5.24434 8.66574 6.30834 8.38574 7.65234 8.02174C8.21234 6.73374 8.60434 5.64174 8.91234 4.63374C9.05234 4.21374 9.10834 3.90574 9.10834 3.54174C9.10834 3.28974 9.05234 3.14974 8.68834 2.89774C8.43634 2.72974 7.90434 2.56174 7.45634 2.47774C7.17634 2.42174 7.06434 2.36574 7.06434 2.22574C7.06434 2.08574 7.23234 1.97374 7.42834 1.86174C7.65234 1.74974 8.04434 1.63774 8.43634 1.63774C9.36034 1.63774 10.3683 2.08574 11.2363 2.81374C11.5723 3.09374 11.6843 3.42974 11.6843 3.73774C11.6843 4.01774 11.5163 4.21374 11.1523 4.38174C10.9563 4.46574 10.7043 4.80174 10.4803 5.27774C10.1443 6.03374 9.75234 6.84574 9.36034 7.71374ZM29.2027 14.8537L29.2587 14.8817C30.3787 13.6777 31.5547 13.1177 32.7307 13.1177C33.7667 13.1177 34.6347 13.4817 35.2227 14.2377C35.7827 14.9657 36.1187 16.0297 36.2307 17.4017C36.3147 18.5497 36.4827 19.6137 36.8187 20.1457C37.2107 20.7337 37.6587 20.9577 38.4427 20.9577C39.8707 20.9577 41.7187 20.0057 43.1747 18.2977C44.4347 16.8137 45.4707 14.7977 46.1707 12.6697C46.2547 12.4177 46.3387 12.2777 46.5627 12.2777C46.7587 12.2777 46.8707 12.4457 46.8707 12.6417C46.8707 12.7257 46.8427 12.8937 46.8147 13.0897C46.4227 15.3017 45.6107 17.8217 43.9307 19.9497C42.5587 21.7137 40.6267 22.9177 38.3307 22.9177C37.2387 22.9177 36.2027 22.6097 35.5027 21.6297C34.9427 20.8737 34.6627 19.8097 34.5787 17.8777C34.5227 16.4497 34.3827 15.4697 34.0467 14.8817C33.6827 14.2377 33.2627 14.0137 32.5627 14.0137C31.4987 14.0137 30.4067 14.5737 29.4267 15.9177C28.5307 17.2057 27.7467 18.8297 26.7107 21.3777C26.5427 21.8817 26.1787 22.3857 25.4507 22.3857C24.9747 22.3857 24.5547 22.0777 24.5547 21.3217C24.5547 21.0137 24.6107 20.7897 24.8347 20.3697C26.5707 16.9817 28.5587 13.3697 30.1827 10.2897C31.4987 7.76974 32.5627 5.66974 33.0107 4.57774C33.2627 3.96174 33.3747 3.56974 33.3747 3.28974C33.3747 2.81374 33.0947 2.42174 32.2547 1.91774C32.0307 1.77774 31.9187 1.72174 31.9187 1.58174C31.9187 1.41374 32.3107 1.24574 32.8147 1.24574C33.4587 1.24574 34.2427 1.66574 35.0547 2.39374C35.8387 3.09374 36.0627 3.51374 36.0627 3.90574C36.0627 4.35374 35.8667 4.54974 35.5307 4.74574C35.0547 5.02574 34.8867 5.22174 34.4107 6.00574C33.0667 8.24574 31.4987 10.9897 29.2027 14.8537ZM65.006 2.67374C65.174 2.67374 65.37 2.72974 65.454 2.75774C66.21 2.98174 67.05 3.40174 67.89 4.15774C68.562 4.74574 68.954 5.24974 68.954 5.83774C68.954 6.28574 68.674 6.67774 68.17 6.67774C67.806 6.67774 67.498 6.42574 67.246 5.92174C66.826 5.08174 65.706 3.84974 64.894 3.23374C64.782 3.14974 64.698 3.03774 64.698 2.95374C64.698 2.81374 64.81 2.67374 65.006 2.67374ZM67.274 0.769739C67.414 0.769739 67.638 0.82574 67.89 0.881739C68.646 1.07774 69.346 1.41374 70.13 1.97374C70.802 2.44974 71.418 3.09374 71.418 3.73774C71.418 4.29774 71.082 4.63374 70.662 4.63374C70.298 4.63374 70.074 4.49374 69.766 3.96174C69.262 3.09374 68.142 1.88974 67.19 1.32974C67.078 1.27374 66.994 1.16174 66.994 1.04974C66.994 0.909739 67.106 0.769739 67.274 0.769739ZM71.194 15.1617C71.194 16.0017 70.718 16.3657 70.186 16.3657C69.906 16.3657 69.682 16.2817 69.374 16.0577C69.066 15.8337 68.786 15.7497 68.338 15.7497C67.442 15.7497 66.462 15.8057 65.174 15.8897C64.922 15.9177 64.782 15.7217 64.782 15.5257C64.782 15.3577 64.866 15.2457 65.09 15.1897C66.294 14.9377 67.274 14.7417 68.226 14.4057C68.562 14.2937 68.674 14.2097 68.674 13.9017C68.674 13.3977 68.254 12.4457 67.722 11.7457C66.658 10.3457 65.762 9.56174 64.642 8.80574C64.474 8.69374 64.362 8.52574 64.362 8.41374C64.362 8.27374 64.53 8.13374 64.782 8.13374C64.838 8.13374 64.922 8.13374 65.034 8.18974C66.322 8.72174 67.722 9.53374 68.954 10.8497C70.13 12.0817 71.194 13.5377 71.194 15.1617ZM57.39 7.90974C57.922 7.79774 58.566 7.74174 59.042 7.74174C59.938 7.74174 60.694 8.10574 61.254 8.88974C61.87 9.75774 62.066 10.9897 62.066 12.2217C62.066 14.2377 61.618 16.3937 60.974 18.1577C60.498 19.5017 59.77 20.8177 58.79 21.7417C57.922 22.5537 57.166 23.0017 56.298 23.0017C55.654 23.0017 55.374 22.8337 55.262 22.2737C55.178 21.7977 55.094 21.5737 54.842 21.2657C54.394 20.7337 53.89 20.2017 53.218 19.5017C53.106 19.3897 53.078 19.3057 53.078 19.2217C53.078 19.1097 53.218 18.9137 53.358 18.9137C53.47 18.9137 53.554 18.9697 53.666 19.0537C54.478 19.6137 55.15 20.0617 55.878 20.4817C56.102 20.5937 56.382 20.6777 56.69 20.6777C57.054 20.6777 57.418 20.5097 57.754 20.1457C58.678 19.1657 59.266 17.8497 59.742 16.3377C60.218 14.7417 60.47 12.8097 60.47 11.5777C60.47 10.3457 60.33 9.64574 59.994 9.22574C59.714 8.86174 59.406 8.74974 58.79 8.74974C58.202 8.74974 57.474 8.91774 56.858 9.08574C55.99 10.8777 55.206 12.6417 54.366 14.2657C52.91 17.0937 51.65 19.5577 50.138 22.1337C49.914 22.4977 49.634 22.6937 49.158 22.6937C48.654 22.6937 48.262 22.3577 48.262 21.9097C48.262 21.5457 48.374 21.2377 48.626 20.8737C50.278 18.3817 51.79 15.8617 53.19 13.2857C53.918 11.9137 54.534 10.7657 55.094 9.58974C54.058 9.95374 52.966 10.4017 52.154 10.7377C51.762 10.9057 51.538 10.9897 51.342 11.1577C51.146 11.3257 50.95 11.4657 50.642 11.4657C50.25 11.4657 49.83 11.2417 49.382 10.7937C48.794 10.2057 48.318 9.47774 48.318 8.83374C48.318 8.52574 48.458 8.16174 48.598 8.16174C48.71 8.16174 48.766 8.21774 48.906 8.41374C49.41 9.05774 49.83 9.44974 50.278 9.44974C50.866 9.44974 51.37 9.30974 52.294 9.08574C53.274 8.86174 54.338 8.58174 55.682 8.21774C56.242 6.92974 56.634 5.83774 56.942 4.82974C57.082 4.40974 57.138 4.10174 57.138 3.73774C57.138 3.48574 57.082 3.34574 56.718 3.09374C56.466 2.92574 55.934 2.75774 55.486 2.67374C55.206 2.61774 55.094 2.56174 55.094 2.42174C55.094 2.28174 55.262 2.16974 55.458 2.05774C55.682 1.94574 56.074 1.83374 56.466 1.83374C57.39 1.83374 58.398 2.28174 59.266 3.00974C59.602 3.28974 59.714 3.62574 59.714 3.93374C59.714 4.21374 59.546 4.40974 59.182 4.57774C58.986 4.66174 58.734 4.99774 58.51 5.47374C58.174 6.22974 57.782 7.04174 57.39 7.90974ZM81.7106 3.96174C80.7306 3.56974 79.9186 2.95374 79.4146 2.33774C78.9386 1.77774 78.7986 1.30174 78.7986 1.02174C78.7986 0.881739 78.9386 0.769739 79.0226 0.769739C79.1346 0.769739 79.2466 0.82574 79.3586 0.96574C80.2266 2.05774 81.5146 2.50574 83.3346 2.61774C84.2026 2.67374 84.7906 2.75774 85.2386 3.03774C85.6866 3.31774 85.7986 3.65374 85.7986 4.04574C85.7986 4.60574 85.4066 4.74574 84.9586 4.74574C84.6506 4.74574 84.1466 4.68974 83.8666 4.68974C83.3626 4.68974 82.8586 4.80174 82.3826 4.99774C81.3186 5.44574 80.5346 5.80974 79.4986 6.31374C79.2746 6.42574 79.0506 6.45374 78.9386 6.45374C78.7986 6.45374 78.6866 6.34174 78.6866 6.22974C78.6866 6.08974 78.7426 5.94974 78.9106 5.83774C79.8066 5.24974 80.5346 4.77374 81.7106 3.96174ZM80.2826 16.2537C80.7586 15.9737 81.2906 15.7777 81.8226 15.7777C82.8026 15.7777 83.5026 16.2537 84.0066 17.0657C84.5666 18.0177 84.9026 19.3617 85.3226 20.2857C85.7706 21.2377 86.1626 21.5737 87.5906 21.5737C88.4866 21.5737 89.4106 21.4337 90.2506 21.2657C90.6146 21.1817 91.0346 21.0977 91.4546 21.0977C91.9866 21.0977 92.5186 21.2377 92.8826 21.5177C93.2466 21.7977 93.4146 22.1057 93.4146 22.4417C93.4146 22.9457 93.0506 23.2817 91.9026 23.3937C91.1186 23.4777 89.8866 23.5057 89.0466 23.5057C88.0666 23.5057 86.8066 23.4497 86.0506 23.2257C84.7346 22.9177 84.0906 22.0497 83.6986 20.7057C83.3906 19.6137 83.1106 18.2697 82.7186 17.4297C82.4386 16.8697 82.0186 16.6177 81.4026 16.6177C80.4226 16.6177 79.4986 17.6257 78.4066 18.7737C77.2866 19.9497 76.1946 21.2937 74.9626 22.8617C74.7386 23.1417 74.4586 23.2817 74.0666 23.2817C73.4226 23.2817 73.1426 22.7497 73.1426 22.1057C73.1426 21.7977 73.2826 21.4617 73.7866 20.9857C75.4386 19.3897 77.5106 17.2617 79.5546 15.0777C81.3186 13.1737 83.0546 11.2977 84.3426 9.58974C84.4546 9.42174 84.3706 9.28174 84.1746 9.33774C82.3826 9.95374 80.2266 10.9337 78.5186 11.8577C78.0706 12.1097 77.8746 12.2217 77.7066 12.3617C77.4826 12.5297 77.2866 12.6417 76.9226 12.6417C76.5306 12.6417 76.1666 12.3617 75.6626 11.8297C75.2426 11.4097 74.8226 10.7657 74.8226 10.2617C74.8226 9.86974 74.8506 9.72974 74.9066 9.50574C74.9626 9.33774 75.0466 9.22574 75.1586 9.22574C75.2426 9.22574 75.2986 9.28174 75.4946 9.61774C75.6626 9.89774 75.8026 10.1217 75.9986 10.2897C76.2226 10.5137 76.5026 10.6537 76.8666 10.6537C77.0626 10.6537 77.3706 10.6257 77.9586 10.4297C79.5266 9.86974 81.5146 9.14174 83.2226 8.49774C83.7826 8.30174 83.9506 8.18974 84.1466 7.99374C84.3706 7.74174 84.5666 7.60174 84.7906 7.60174C85.0986 7.60174 85.7986 7.90974 86.3866 8.38574C87.0866 8.91774 87.4506 9.22574 87.4506 9.70174C87.4506 10.0937 87.1146 10.2337 86.7226 10.2897C86.2186 10.3457 85.9386 10.5417 85.7146 10.7657C83.9226 12.5857 82.3546 14.1257 80.2826 16.2537ZM99.8093 13.2857L99.8653 13.3417C101.825 11.8297 103.841 11.1297 105.745 11.1297C109.861 11.1297 112.129 13.7057 112.129 16.7297C112.129 20.9577 108.321 23.3377 104.205 23.3377C101.153 23.3377 98.9973 22.0777 98.9973 20.1737C98.9973 18.6617 100.257 17.8497 101.797 17.8497C104.401 17.8497 106.081 20.1457 106.501 21.4337C108.741 20.6777 110.029 18.7737 110.029 16.5897C110.029 13.4817 107.985 12.1377 105.605 12.1377C103.001 12.1377 100.817 13.4257 99.2773 14.9937C98.2973 16.0017 97.6813 16.6457 97.0933 17.4577C96.9533 17.6537 96.6733 17.8217 96.3933 17.8217C95.8613 17.8217 95.3853 17.3737 95.3853 16.7297C95.3853 16.4497 95.4693 16.1417 95.8613 15.7217C98.0173 13.3977 100.341 10.9897 102.357 8.52574C103.561 7.04174 104.709 5.64174 106.109 3.79374C106.305 3.54174 106.221 3.48574 106.109 3.48574C105.997 3.48574 105.745 3.56974 105.577 3.62574C104.317 4.04574 102.889 4.57774 101.769 5.02574C101.265 5.22174 101.069 5.33374 100.817 5.61374C100.649 5.78174 100.397 5.92174 100.061 5.92174C99.6973 5.92174 99.1093 5.61374 98.6613 5.10974C98.1573 4.57774 97.6533 3.84974 97.6533 3.06574C97.6533 2.78574 97.8213 2.47774 97.9893 2.47774C98.1013 2.47774 98.2133 2.58974 98.3533 2.78574C98.9693 3.59774 99.3613 3.87774 99.8373 3.87774C100.201 3.87774 100.677 3.82174 101.293 3.68174C102.553 3.37374 103.729 3.03774 104.989 2.61774C105.381 2.50574 105.605 2.33774 105.829 2.11374C106.025 1.91774 106.249 1.83374 106.473 1.83374C106.921 1.83374 107.621 2.25374 108.237 2.70174C108.797 3.09374 109.077 3.45774 109.077 3.90574C109.077 4.18574 108.853 4.38174 108.349 4.49374C108.069 4.54974 107.817 4.68974 107.201 5.30574C106.277 6.22974 105.129 7.43374 103.477 9.36574C102.441 10.5697 100.929 12.0257 99.8093 13.2857ZM104.765 21.8537C104.345 20.2577 102.833 18.7177 101.461 18.7177C100.453 18.7177 99.9213 19.3337 99.9213 20.0057C99.9213 21.1537 101.405 21.9377 103.645 21.9377C104.121 21.9377 104.513 21.9097 104.765 21.8537Z" fill="#2E2521"/>
<path d="M21.3443 15.8617L21.2267 16.0235L21.3443 15.8617ZM17.1443 15.6937L17.1313 15.494L17.1223 15.495L17.1443 15.6937ZM17.0603 14.9937L17.0193 14.7978L17.0118 14.7997L17.0603 14.9937ZM20.1963 14.2097L20.1331 14.02L20.1298 14.0211L20.1963 14.2097ZM19.6923 11.5497L19.8516 11.4287L19.6923 11.5497ZM16.6123 8.60974L16.7242 8.44397L16.7233 8.44333L16.6123 8.60974ZM17.0043 7.99374L16.9149 8.17263L16.9213 8.17584L16.928 8.17859L17.0043 7.99374ZM20.9243 10.6537L20.7783 10.7904L20.7797 10.7918L20.9243 10.6537ZM9.36034 7.71374L9.17807 7.63142L9.01584 7.99065L9.40155 7.90945L9.36034 7.71374ZM13.2243 8.69374L13.3874 8.57799L13.3871 8.57749L13.2243 8.69374ZM12.9443 17.9617L12.7565 17.8931L12.7558 17.895L12.9443 17.9617ZM10.7603 21.5457L10.897 21.6918L10.8975 21.6913L10.7603 21.5457ZM7.23234 22.0777L7.03534 22.1125L7.03623 22.117L7.23234 22.0777ZM6.81234 21.0697L6.96715 20.9431L6.96533 20.9409L6.81234 21.0697ZM5.18834 19.3057L5.33265 19.1672L5.32977 19.1643L5.18834 19.3057ZM5.63634 18.8577L5.51625 19.0179L5.5228 19.0224L5.63634 18.8577ZM7.84834 20.2857L7.74822 20.4593L7.7589 20.4646L7.84834 20.2857ZM9.72434 19.9497L9.57882 19.8125L9.57738 19.8141L9.72434 19.9497ZM11.7123 16.1417L11.9031 16.2018L11.904 16.1989L11.7123 16.1417ZM11.9643 9.02974L11.8058 9.1517L11.8082 9.15468L11.9643 9.02974ZM8.82834 8.88974L8.77572 8.69679L8.68799 8.72071L8.64835 8.80255L8.82834 8.88974ZM6.33634 14.0697L6.1587 13.9779L6.15853 13.9782L6.33634 14.0697ZM2.10834 21.9377L2.27871 22.0426L2.28083 22.039L2.10834 21.9377ZM0.596344 20.6777L0.760816 20.7916L0.763041 20.7882L0.596344 20.6777ZM5.16034 13.0897L5.33608 13.1852L5.33701 13.1835L5.16034 13.0897ZM7.06434 9.39374L7.24492 9.47973L7.4516 9.04569L6.99805 9.20505L7.06434 9.39374ZM4.12434 10.5417L4.04787 10.3569L4.04556 10.3579L4.12434 10.5417ZM3.31234 10.9617L3.18219 10.8099H3.18219L3.31234 10.9617ZM1.35234 10.5977L1.21092 10.7392H1.21092L1.35234 10.5977ZM0.876344 8.21774L0.713441 8.3341L0.718843 8.341L0.876344 8.21774ZM4.26434 8.88974L4.21978 8.69475L4.21722 8.69537L4.26434 8.88974ZM7.65234 8.02174L7.70463 8.21478L7.79743 8.18965L7.83576 8.10148L7.65234 8.02174ZM8.91234 4.63374L8.72255 4.57047L8.72107 4.5753L8.91234 4.63374ZM8.68834 2.89774L8.8022 2.73328L8.79928 2.73133L8.68834 2.89774ZM7.45634 2.47774L7.41712 2.67387L7.41949 2.67431L7.45634 2.47774ZM7.42834 1.86174L7.33876 1.68258L7.32912 1.68809L7.42834 1.86174ZM11.2363 2.81374L11.1078 2.96698L11.1083 2.96738L11.2363 2.81374ZM11.1523 4.38174L11.2312 4.56564L11.2362 4.56333L11.1523 4.38174ZM10.4803 5.27774L10.2993 5.19256L10.2976 5.19651L10.4803 5.27774ZM22.9643 14.9657C22.9643 15.348 22.8567 15.5951 22.7146 15.7453C22.5726 15.8953 22.3763 15.9697 22.1563 15.9697V16.3697C22.4684 16.3697 22.7761 16.2622 23.0051 16.0202C23.234 15.7784 23.3643 15.4235 23.3643 14.9657H22.9643ZM22.1563 15.9697C21.9309 15.9697 21.7473 15.9075 21.462 15.7L21.2267 16.0235C21.5574 16.264 21.8218 16.3697 22.1563 16.3697V15.9697ZM21.462 15.7C21.1144 15.4472 20.7914 15.3537 20.3083 15.3537V15.7537C20.7213 15.7537 20.9583 15.8283 21.2267 16.0235L21.462 15.7ZM20.3083 15.3537C19.405 15.3537 18.4189 15.4102 17.1313 15.4942L17.1574 15.8933C18.4458 15.8093 19.4197 15.7537 20.3083 15.7537V15.3537ZM17.1223 15.495C17.0572 15.5022 17.0214 15.4817 16.9988 15.458C16.9717 15.4294 16.9523 15.3827 16.9523 15.3297H16.5523C16.5523 15.4728 16.603 15.622 16.7088 15.7335C16.8193 15.8498 16.9795 15.9133 17.1664 15.8925L17.1223 15.495ZM16.9523 15.3297C16.9523 15.2805 16.9637 15.2619 16.9729 15.2514C16.9853 15.2373 17.0191 15.2102 17.1089 15.1878L17.0118 14.7997C16.8776 14.8333 16.7574 14.8902 16.6718 14.988C16.583 15.0896 16.5523 15.2109 16.5523 15.3297H16.9523ZM17.1013 15.1895C18.3008 14.9384 19.2956 14.7397 20.2629 14.3983L20.1298 14.0211C19.1931 14.3517 18.2279 14.545 17.0194 14.798L17.1013 15.1895ZM20.2596 14.3995C20.4243 14.3446 20.5826 14.2832 20.6912 14.1692C20.8126 14.0417 20.8443 13.8819 20.8443 13.7057H20.4443C20.4443 13.8376 20.4201 13.8738 20.4015 13.8933C20.3701 13.9263 20.3044 13.9629 20.1331 14.02L20.2596 14.3995ZM20.8443 13.7057C20.8443 13.4111 20.7254 13.016 20.5508 12.6205C20.3735 12.2188 20.1277 11.7921 19.8516 11.4287L19.5331 11.6708C19.789 12.0074 20.0192 12.4067 20.1849 12.782C20.3533 13.1634 20.4443 13.4963 20.4443 13.7057H20.8443ZM19.8516 11.4287C18.7736 10.0103 17.8613 9.21149 16.7242 8.44397L16.5005 8.77551C17.6034 9.51999 18.4831 10.2891 19.5331 11.6708L19.8516 11.4287ZM16.7233 8.44333C16.6596 8.40088 16.6077 8.34831 16.5732 8.29905C16.5351 8.2447 16.5323 8.21519 16.5323 8.21774H16.1323C16.1323 8.33229 16.1855 8.44278 16.2455 8.52843C16.309 8.61917 16.3971 8.7066 16.5014 8.77615L16.7233 8.44333ZM16.5323 8.21774C16.5323 8.23062 16.5263 8.21501 16.5641 8.18799C16.5994 8.16279 16.6624 8.13774 16.7523 8.13774V7.73774C16.5903 7.73774 16.4433 7.78269 16.3316 7.86249C16.2224 7.94047 16.1323 8.06486 16.1323 8.21774H16.5323ZM16.7523 8.13774C16.7798 8.13774 16.8002 8.13798 16.8245 8.14202C16.8477 8.14589 16.8775 8.15395 16.9149 8.17263L17.0938 7.81485C16.94 7.73796 16.8186 7.73774 16.7523 7.73774V8.13774ZM16.928 8.17859C18.1968 8.70266 19.5705 9.50028 20.7783 10.7904L21.0703 10.5171C19.8141 9.1752 18.3879 8.34882 17.0807 7.80889L16.928 8.17859ZM20.7797 10.7918C21.9524 12.0205 22.9643 13.4261 22.9643 14.9657H23.3643C23.3643 13.2574 22.2482 11.751 21.069 10.5156L20.7797 10.7918ZM9.40155 7.90945C9.91835 7.80065 10.5484 7.74574 11.0123 7.74574V7.34574C10.5243 7.34574 9.86634 7.40283 9.31914 7.51803L9.40155 7.90945ZM11.0123 7.74574C11.845 7.74574 12.5399 8.07954 13.0616 8.80999L13.3871 8.57749C12.7888 7.73993 11.9717 7.34574 11.0123 7.34574V7.74574ZM13.0612 8.80949C13.6406 9.62585 13.8363 10.8061 13.8363 12.0257H14.2363C14.2363 10.7814 14.0401 9.49763 13.3874 8.57799L13.0612 8.80949ZM13.8363 12.0257C13.8363 14.0149 13.3937 16.1477 12.7565 17.8932L13.1322 18.0303C13.783 16.2478 14.2363 14.0685 14.2363 12.0257H13.8363ZM12.7558 17.895C12.2863 19.2206 11.5725 20.5051 10.6231 21.4002L10.8975 21.6913C11.9082 20.7383 12.6504 19.3908 13.1329 18.0285L12.7558 17.895ZM10.6237 21.3997C9.76709 22.201 9.05892 22.6057 8.26834 22.6057V23.0057C9.21377 23.0057 10.0176 22.5144 10.897 21.6918L10.6237 21.3997ZM8.26834 22.6057C7.9559 22.6057 7.77619 22.5632 7.6634 22.4864C7.55967 22.4158 7.47926 22.2925 7.42846 22.0385L7.03623 22.117C7.09743 22.423 7.21302 22.6637 7.43829 22.8171C7.65449 22.9643 7.93678 23.0057 8.26834 23.0057V22.6057ZM7.4293 22.043C7.38654 21.8007 7.34162 21.609 7.27045 21.435C7.19808 21.2581 7.10219 21.1082 6.96714 20.9431L6.65755 21.1964C6.7745 21.3393 6.84661 21.4554 6.90024 21.5865C6.95507 21.7205 6.99415 21.8788 7.03539 22.1125L7.4293 22.043ZM6.96533 20.9409C6.51255 20.4032 6.00422 19.8668 5.33262 19.1672L5.04407 19.4442C5.71647 20.1447 6.21614 20.6722 6.65936 21.1986L6.96533 20.9409ZM5.32977 19.1643C5.28508 19.1196 5.2663 19.0896 5.25794 19.0714C5.25071 19.0558 5.24834 19.043 5.24834 19.0257H4.84834C4.84834 19.1737 4.90591 19.3061 5.04692 19.4472L5.32977 19.1643ZM5.24834 19.0257C5.24834 19.0356 5.24639 19.0312 5.25488 19.0122C5.26238 18.9955 5.27434 18.976 5.28949 18.9578C5.30483 18.9394 5.31949 18.9271 5.3301 18.9206C5.34104 18.9139 5.34009 18.9177 5.32834 18.9177V18.5177C5.16999 18.5177 5.04908 18.6215 4.9822 18.7017C4.91463 18.7828 4.84834 18.904 4.84834 19.0257H5.24834ZM5.32834 18.9177C5.36579 18.9177 5.40038 18.9308 5.51634 19.0177L5.75634 18.6977C5.64831 18.6167 5.51489 18.5177 5.32834 18.5177V18.9177ZM5.5228 19.0224C6.33584 19.5831 7.0132 20.0348 7.7484 20.459L7.94829 20.1125C7.22749 19.6967 6.56085 19.2524 5.74989 18.6931L5.5228 19.0224ZM7.7589 20.4646C8.00578 20.5881 8.31625 20.6817 8.66034 20.6817V20.2817C8.38843 20.2817 8.13891 20.2074 7.93779 20.1069L7.7589 20.4646ZM8.66034 20.6817C9.09209 20.6817 9.50637 20.4807 9.87131 20.0854L9.57738 19.8141C9.27032 20.1467 8.9566 20.2817 8.66034 20.2817V20.6817ZM9.86986 20.0869C10.825 19.0739 11.4241 17.7234 11.9031 16.2018L11.5216 16.0817C11.0486 17.5841 10.4717 18.8656 9.57883 19.8125L9.86986 20.0869ZM11.904 16.1989C12.3855 14.5845 12.6403 12.6332 12.6403 11.3817H12.2403C12.2403 12.5943 11.9912 14.507 11.5207 16.0846L11.904 16.1989ZM12.6403 11.3817C12.6403 10.1509 12.5044 9.38467 12.1205 8.9048L11.8082 9.15468C12.0963 9.51481 12.2403 10.1485 12.2403 11.3817H12.6403ZM12.1229 8.9078C11.9654 8.70306 11.7905 8.55814 11.5608 8.46884C11.3375 8.382 11.0774 8.35374 10.7603 8.35374V8.75374C11.0593 8.75374 11.2611 8.78148 11.4159 8.84164C11.5642 8.89934 11.6833 8.99242 11.8058 9.15168L12.1229 8.9078ZM10.7603 8.35374C10.143 8.35374 9.39199 8.52871 8.77572 8.69679L8.88097 9.08269C9.4967 8.91477 10.2017 8.75374 10.7603 8.75374V8.35374ZM8.64835 8.80255C7.77597 10.6036 6.99758 12.356 6.1587 13.9779L6.51399 14.1616C7.35511 12.5355 8.14472 10.7599 9.00834 8.97692L8.64835 8.80255ZM6.15853 13.9782C4.70192 16.8074 3.44453 19.2662 1.93586 21.8365L2.28083 22.039C3.79616 19.4573 5.05877 16.9881 6.51416 14.1613L6.15853 13.9782ZM1.93801 21.8329C1.83692 21.9972 1.73169 22.1097 1.60994 22.1827C1.48947 22.255 1.33772 22.2977 1.12834 22.2977V22.6977C1.39497 22.6977 1.62122 22.6425 1.81574 22.5257C2.009 22.4098 2.15577 22.2423 2.27868 22.0426L1.93801 21.8329ZM1.12834 22.2977C0.707639 22.2977 0.432344 22.026 0.432344 21.7137H0.0323439C0.0323439 22.2975 0.541049 22.6977 1.12834 22.6977V22.2977ZM0.432344 21.7137C0.432344 21.4003 0.525599 21.1313 0.760782 20.7916L0.431905 20.5639C0.163089 20.9522 0.0323439 21.2992 0.0323439 21.7137H0.432344ZM0.763041 20.7882C2.41832 18.2913 3.93333 15.7663 5.33607 13.1852L4.98462 12.9942C3.58736 15.5652 2.07836 18.0802 0.429646 20.5672L0.763041 20.7882ZM5.33701 13.1835C6.06414 11.8131 6.6826 10.6606 7.24492 9.47973L6.88377 9.30775C6.32609 10.4789 5.71254 11.6224 4.98367 12.996L5.33701 13.1835ZM6.99805 9.20505C5.95629 9.57107 4.85969 10.021 4.04787 10.3569L4.20081 10.7265C5.013 10.3905 6.10039 9.94441 7.13064 9.58243L6.99805 9.20505ZM4.04556 10.3579C3.6694 10.5191 3.40762 10.6167 3.18219 10.8099L3.4425 11.1136C3.60907 10.9708 3.79529 10.9004 4.20313 10.7256L4.04556 10.3579ZM3.18219 10.8099C2.99539 10.97 2.84617 11.0697 2.61234 11.0697V11.4697C2.99452 11.4697 3.23729 11.2895 3.4425 11.1136L3.18219 10.8099ZM2.61234 11.0697C2.29812 11.0697 1.92641 10.889 1.49377 10.4563L1.21092 10.7392C1.67428 11.2025 2.14257 11.4697 2.61234 11.4697V11.0697ZM1.49377 10.4563C1.209 10.1716 0.955041 9.8564 0.773381 9.53932C0.590745 9.22053 0.488344 8.91239 0.488344 8.63774H0.0883439C0.0883439 9.00708 0.223943 9.38494 0.426307 9.73816C0.629647 10.0931 0.907685 10.4359 1.21092 10.7392L1.49377 10.4563ZM0.488344 8.63774C0.488344 8.51021 0.518097 8.36768 0.561192 8.26138C0.582913 8.2078 0.604004 8.17347 0.618469 8.15631C0.637583 8.13363 0.621758 8.16574 0.568344 8.16574V7.76574C0.44493 7.76574 0.359105 7.84335 0.312594 7.89855C0.261434 7.95926 0.221275 8.03518 0.190496 8.1111C0.128591 8.2638 0.0883439 8.45727 0.0883439 8.63774H0.488344ZM0.568344 8.16574C0.579198 8.16574 0.57991 8.16703 0.57654 8.16582C0.573023 8.16456 0.574453 8.16398 0.582656 8.17092C0.605994 8.19067 0.641246 8.2327 0.713597 8.33399L1.03909 8.10149C0.971442 8.00678 0.908693 7.92281 0.841032 7.86556C0.757937 7.79525 0.669667 7.76574 0.568344 7.76574V8.16574ZM0.718843 8.341C0.973439 8.66632 1.21599 8.94024 1.4587 9.13365C1.7024 9.32785 1.96239 9.45374 2.24834 9.45374V9.05374C2.0863 9.05374 1.91229 8.98363 1.70798 8.82083C1.5027 8.65724 1.28325 8.41316 1.03384 8.09448L0.718843 8.341ZM2.24834 9.45374C2.86635 9.45374 3.39922 9.30526 4.31146 9.08411L4.21722 8.69537C3.28147 8.92222 2.80633 9.05374 2.24834 9.05374V9.45374ZM4.30891 9.08471C5.29312 8.85975 6.36046 8.57883 7.70463 8.21478L7.60006 7.82869C6.25623 8.19265 5.19557 8.47173 4.21978 8.69477L4.30891 9.08471ZM7.83576 8.10148C8.39878 6.80652 8.79341 5.70741 9.10361 4.69218L8.72107 4.5753C8.41528 5.57607 8.0259 6.66095 7.46893 7.94199L7.83576 8.10148ZM9.10208 4.69699C9.24733 4.26124 9.30834 3.93164 9.30834 3.54174H8.90834C8.90834 3.87984 8.85736 4.16624 8.72261 4.57049L9.10208 4.69699ZM9.30834 3.54174C9.30834 3.40004 9.29281 3.25926 9.2058 3.11594C9.12384 2.98095 8.99017 2.86345 8.80219 2.7333L8.5745 3.06218C8.75052 3.18403 8.82685 3.26253 8.86389 3.32354C8.89587 3.37622 8.90834 3.43144 8.90834 3.54174H9.30834ZM8.79928 2.73133C8.65092 2.63242 8.43481 2.54174 8.20909 2.4665C7.97979 2.39007 7.72597 2.32481 7.4932 2.28116L7.41949 2.67431C7.63472 2.71467 7.87089 2.77541 8.0826 2.84598C8.29788 2.91774 8.47377 2.99506 8.5774 3.06415L8.79928 2.73133ZM7.49557 2.28162C7.42857 2.26822 7.37641 2.25574 7.33567 2.24323C7.29426 2.23052 7.27142 2.21978 7.25963 2.21258C7.24928 2.20626 7.25381 2.20656 7.25951 2.21644C7.26552 2.22688 7.26434 2.23317 7.26434 2.22574H6.86434C6.86434 2.28831 6.87717 2.35409 6.91293 2.41616C6.94838 2.47767 6.99841 2.52172 7.05105 2.5539C7.14775 2.61299 7.27825 2.64608 7.41712 2.67385L7.49557 2.28162ZM7.26434 2.22574C7.26434 2.24117 7.25476 2.22831 7.3062 2.18229C7.35531 2.13835 7.42956 2.09139 7.52757 2.03539L7.32912 1.68809C7.23113 1.74408 7.12337 1.80913 7.03948 1.88419C6.95793 1.95716 6.86434 2.07031 6.86434 2.22574H7.26434ZM7.51779 2.04063C7.71494 1.94205 8.07641 1.83774 8.43634 1.83774V1.43774C8.01228 1.43774 7.58975 1.55743 7.3389 1.68285L7.51779 2.04063ZM8.43634 1.83774C9.29912 1.83774 10.2632 2.25858 11.1078 2.96698L11.3649 2.6605C10.4735 1.9129 9.42157 1.43774 8.43634 1.43774V1.83774ZM11.1083 2.96738C11.3943 3.20573 11.4843 3.48314 11.4843 3.73774H11.8843C11.8843 3.37634 11.7504 2.98175 11.3644 2.66009L11.1083 2.96738ZM11.4843 3.73774C11.4843 3.83272 11.4576 3.90598 11.4012 3.9737C11.3403 4.04683 11.2368 4.12246 11.0685 4.20015L11.2362 4.56333C11.4318 4.47302 11.5944 4.36665 11.7085 4.22978C11.8271 4.0875 11.8843 3.92276 11.8843 3.73774H11.4843ZM11.0736 4.19791C10.9258 4.26125 10.7877 4.40158 10.6668 4.56274C10.5412 4.73033 10.4155 4.9458 10.2994 5.19258L10.6613 5.3629C10.7692 5.13368 10.8815 4.94315 10.9868 4.80274C11.097 4.6559 11.1829 4.58623 11.2311 4.56557L11.0736 4.19791ZM10.2976 5.19651C9.95951 5.95717 9.57535 6.75174 9.17807 7.63142L9.54262 7.79606C9.92934 6.93974 10.3292 6.11031 10.6631 5.35897L10.2976 5.19651ZM29.2027 14.8537L29.0308 14.7516L28.9209 14.9364L29.1133 15.0326L29.2027 14.8537ZM29.2587 14.8817L29.1693 15.0606L29.3032 15.1276L29.4052 15.018L29.2587 14.8817ZM35.2227 14.2377L35.3812 14.1158L35.3806 14.115L35.2227 14.2377ZM36.2307 17.4017L36.4302 17.3871L36.4301 17.3855L36.2307 17.4017ZM36.8187 20.1457L36.6496 20.2526L36.6523 20.2567L36.8187 20.1457ZM43.1747 18.2977L43.3269 18.4275L43.3272 18.4272L43.1747 18.2977ZM46.1707 12.6697L45.981 12.6065L45.9807 12.6072L46.1707 12.6697ZM46.8147 13.0897L47.0118 13.1247L47.0127 13.118L46.8147 13.0897ZM43.9307 19.9497L43.7737 19.8258L43.7729 19.827L43.9307 19.9497ZM35.5027 21.6297L35.6655 21.5135L35.6634 21.5107L35.5027 21.6297ZM34.5787 17.8777L34.3789 17.8856L34.3789 17.8864L34.5787 17.8777ZM34.0467 14.8817L33.8726 14.9802L33.8731 14.981L34.0467 14.8817ZM29.4267 15.9177L29.2651 15.7999L29.2625 15.8035L29.4267 15.9177ZM26.7107 21.3777L26.5251 21.3023L26.521 21.3145L26.7107 21.3777ZM24.8347 20.3697L25.0112 20.4639L25.0127 20.4609L24.8347 20.3697ZM30.1827 10.2897L30.3596 10.383L30.36 10.3823L30.1827 10.2897ZM33.0107 4.57774L33.1958 4.65365L33.1958 4.65347L33.0107 4.57774ZM32.2547 1.91774L32.1487 2.08737L32.1518 2.08924L32.2547 1.91774ZM35.0547 2.39374L34.9212 2.54265L34.9215 2.54293L35.0547 2.39374ZM35.5307 4.74574L35.4299 4.57298L35.4293 4.57335L35.5307 4.74574ZM34.4107 6.00574L34.2398 5.90194L34.2392 5.90284L34.4107 6.00574ZM29.1133 15.0326L29.1693 15.0606L29.3482 14.7029L29.2922 14.6749L29.1133 15.0326ZM29.4052 15.018C30.4984 13.8427 31.6247 13.3177 32.7307 13.3177V12.9177C31.4847 12.9177 30.259 13.5128 29.1123 14.7455L29.4052 15.018ZM32.7307 13.3177C33.717 13.3177 34.5216 13.662 35.0648 14.3605L35.3806 14.115C34.7479 13.3015 33.8164 12.9177 32.7307 12.9177V13.3177ZM35.0642 14.3597C35.5915 15.0451 35.921 16.0659 36.0314 17.418L36.4301 17.3855C36.3164 15.9936 35.974 14.8864 35.3812 14.1158L35.0642 14.3597ZM36.0313 17.4163C36.0736 17.9946 36.1373 18.5565 36.234 19.0437C36.3298 19.5262 36.4615 19.9547 36.6496 20.2525L36.9878 20.0389C36.8399 19.8048 36.7196 19.4353 36.6264 18.9658C36.5341 18.501 36.4719 17.9569 36.4302 17.3871L36.0313 17.4163ZM36.6523 20.2567C36.8618 20.5709 37.096 20.802 37.3943 20.9511C37.6907 21.0993 38.0327 21.1577 38.4427 21.1577V20.7577C38.0688 20.7577 37.7947 20.7041 37.5732 20.5934C37.3535 20.4835 37.1676 20.3085 36.9851 20.0348L36.6523 20.2567ZM38.4427 21.1577C39.9482 21.1577 41.8472 20.1633 43.3269 18.4275L43.0225 18.168C41.5903 19.8481 39.7933 20.7577 38.4427 20.7577V21.1577ZM43.3272 18.4272C44.6081 16.9186 45.6549 14.8778 46.3607 12.7322L45.9807 12.6072C45.2865 14.7177 44.2614 16.7089 43.0223 18.1683L43.3272 18.4272ZM46.3605 12.733C46.4021 12.6081 46.4337 12.5456 46.4633 12.5126C46.4804 12.4935 46.5006 12.4777 46.5627 12.4777V12.0777C46.4008 12.0777 46.267 12.132 46.1652 12.2459C46.0757 12.3459 46.0234 12.4794 45.981 12.6065L46.3605 12.733ZM46.5627 12.4777C46.5972 12.4777 46.6172 12.4899 46.6332 12.5102C46.6527 12.5349 46.6707 12.5797 46.6707 12.6417H47.0707C47.0707 12.5078 47.0327 12.3706 46.9472 12.2623C46.8582 12.1496 46.7242 12.0777 46.5627 12.0777V12.4777ZM46.6707 12.6417C46.6707 12.6682 46.6658 12.7182 46.6551 12.7967C46.6446 12.8736 46.6313 12.9597 46.6167 13.0615L47.0127 13.118C47.0262 13.0237 47.0409 12.9279 47.0514 12.8508C47.0617 12.7752 47.0707 12.6993 47.0707 12.6417H46.6707ZM46.6178 13.0548C46.2291 15.2481 45.4261 17.7328 43.7737 19.8258L44.0877 20.0737C45.7953 17.9106 46.6163 15.3554 47.0117 13.1246L46.6178 13.0548ZM43.7729 19.827C42.429 21.5548 40.5507 22.7177 38.3307 22.7177V23.1177C40.7028 23.1177 42.6885 21.8727 44.0886 20.0725L43.7729 19.827ZM38.3307 22.7177C37.2762 22.7177 36.3146 22.4222 35.6655 21.5135L35.34 21.746C36.0909 22.7973 37.2012 23.1177 38.3307 23.1177V22.7177ZM35.6634 21.5107C35.1405 20.8048 34.8621 19.7919 34.7785 17.8691L34.3789 17.8864C34.4633 19.8276 34.7449 20.9427 35.342 21.7488L35.6634 21.5107ZM34.7786 17.8699C34.7504 17.1524 34.701 16.5406 34.6149 16.0314C34.5291 15.5237 34.405 15.1056 34.2204 14.7825L33.8731 14.981C34.0245 15.2459 34.1383 15.6118 34.2205 16.0981C34.3024 16.5828 34.351 17.1751 34.3789 17.8856L34.7786 17.8699ZM34.2208 14.7833C34.0276 14.4415 33.8091 14.1927 33.5302 14.0327C33.2516 13.873 32.9335 13.8137 32.5627 13.8137V14.2137C32.892 14.2137 33.1338 14.2665 33.3312 14.3797C33.5283 14.4928 33.7018 14.678 33.8726 14.9802L34.2208 14.7833ZM32.5627 13.8137C31.4187 13.8137 30.2721 14.4189 29.2651 15.7999L29.5883 16.0356C30.5413 14.7286 31.5788 14.2137 32.5627 14.2137V13.8137ZM29.2625 15.8035C28.3533 17.1106 27.5625 18.7518 26.5254 21.3024L26.896 21.4531C27.9309 18.9077 28.7082 17.3009 29.5909 16.032L29.2625 15.8035ZM26.521 21.3145C26.4436 21.5466 26.3252 21.7654 26.1544 21.9244C25.9879 22.0794 25.7635 22.1857 25.4507 22.1857V22.5857C25.866 22.5857 26.1875 22.4401 26.427 22.2171C26.6623 21.9981 26.8098 21.7129 26.9005 21.441L26.521 21.3145ZM25.4507 22.1857C25.2558 22.1857 25.0881 22.1235 24.9686 21.9988C24.8489 21.8741 24.7547 21.6631 24.7547 21.3217H24.3547C24.3547 21.7364 24.4705 22.0574 24.6799 22.2757C24.8893 22.494 25.1696 22.5857 25.4507 22.5857V22.1857ZM24.7547 21.3217C24.7547 21.0551 24.798 20.8635 25.0112 20.4639L24.6582 20.2756C24.4234 20.716 24.3547 20.9724 24.3547 21.3217H24.7547ZM25.0127 20.4609C26.7485 17.0734 28.7328 13.4684 30.3596 10.383L30.0058 10.1965C28.3847 13.2711 26.393 16.89 24.6567 20.2785L25.0127 20.4609ZM30.36 10.3823C31.6745 7.86512 32.7435 5.75603 33.1958 4.65365L32.8257 4.50183C32.3819 5.58345 31.3229 7.67436 30.0054 10.1972L30.36 10.3823ZM33.1958 4.65347C33.4475 4.03831 33.5747 3.61332 33.5747 3.28974H33.1747C33.1747 3.52616 33.078 3.88517 32.8256 4.50201L33.1958 4.65347ZM33.5747 3.28974C33.5747 3.00551 33.4888 2.74491 33.2864 2.48991C33.0895 2.24185 32.7858 2.00316 32.3576 1.74624L32.1518 2.08924C32.5636 2.33632 32.8199 2.54563 32.9731 2.73857C33.1207 2.92457 33.1747 3.09797 33.1747 3.28974H33.5747ZM32.3607 1.74814C32.237 1.67079 32.1746 1.63437 32.1344 1.59922C32.1184 1.58519 32.1163 1.57976 32.1174 1.58189C32.1195 1.58597 32.1187 1.58819 32.1187 1.58174H31.7187C31.7187 1.72337 31.7834 1.82355 31.871 1.90025C31.9429 1.96311 32.0485 2.02468 32.1487 2.08734L32.3607 1.74814ZM32.1187 1.58174C32.1187 1.62108 32.0966 1.62916 32.1202 1.60833C32.1413 1.58967 32.183 1.56343 32.2506 1.53699C32.3842 1.48472 32.5827 1.44574 32.8147 1.44574V1.04574C32.5427 1.04574 32.2933 1.09076 32.1048 1.16449C32.0114 1.20105 31.9236 1.2483 31.8555 1.3084C31.7899 1.36632 31.7187 1.4584 31.7187 1.58174H32.1187ZM32.8147 1.44574C33.382 1.44574 34.1184 1.8229 34.9212 2.54265L35.1882 2.24483C34.367 1.50857 33.5354 1.04574 32.8147 1.04574V1.44574ZM34.9215 2.54293C35.7001 3.23809 35.8627 3.60641 35.8627 3.90574H36.2627C36.2627 3.42107 35.9773 2.94938 35.1879 2.24455L34.9215 2.54293ZM35.8627 3.90574C35.8627 4.09843 35.8213 4.21667 35.7591 4.30525C35.6932 4.39894 35.5905 4.47934 35.4299 4.57298L35.6315 4.9185C35.807 4.81614 35.9702 4.70053 36.0864 4.53523C36.2061 4.3648 36.2627 4.16105 36.2627 3.90574H35.8627ZM35.4293 4.57335C35.1805 4.71972 35.0005 4.85118 34.8209 5.05422C34.6466 5.25131 34.4773 5.51076 34.2398 5.90194L34.5817 6.10954C34.8202 5.71672 34.9729 5.48617 35.1205 5.31925C35.2629 5.1583 35.405 5.05176 35.6321 4.91813L35.4293 4.57335ZM34.2392 5.90284C32.8966 8.14058 31.3229 10.8941 29.0308 14.7516L29.3747 14.9559C31.6745 11.0854 33.2369 8.3509 34.5822 6.10864L34.2392 5.90284ZM65.454 2.75774L65.3907 2.94758L65.3971 2.9495L65.454 2.75774ZM67.89 4.15774L67.7562 4.30641L67.7583 4.30825L67.89 4.15774ZM64.894 3.23374L65.0148 3.0744L65.014 3.07374L64.894 3.23374ZM67.89 0.881739L67.9402 0.688021L67.9334 0.686502L67.89 0.881739ZM70.13 1.97374L70.0137 2.13649L70.0144 2.13694L70.13 1.97374ZM69.766 3.96174L69.9391 3.86153L69.9389 3.86131L69.766 3.96174ZM67.19 1.32974L67.2916 1.15695L67.2794 1.15086L67.19 1.32974ZM69.374 16.0577L69.4916 15.896L69.374 16.0577ZM65.174 15.8897L65.1609 15.69L65.1519 15.691L65.174 15.8897ZM65.09 15.1897L65.049 14.9938L65.0415 14.9957L65.09 15.1897ZM68.226 14.4057L68.1627 14.216L68.1594 14.2171L68.226 14.4057ZM67.722 11.7457L67.8812 11.6247L67.722 11.7457ZM64.642 8.80574L64.7539 8.63997L64.7529 8.63933L64.642 8.80574ZM65.034 8.18974L64.9445 8.36862L64.951 8.37184L64.9576 8.37459L65.034 8.18974ZM68.954 10.8497L68.808 10.9864L68.8093 10.9878L68.954 10.8497ZM57.39 7.90974L57.2077 7.82742L57.0455 8.18665L57.4312 8.10545L57.39 7.90974ZM61.254 8.88974L61.4171 8.77399L61.4167 8.77349L61.254 8.88974ZM60.974 18.1577L60.7861 18.0891L60.7854 18.091L60.974 18.1577ZM58.79 21.7417L58.9266 21.8878L58.9272 21.8873L58.79 21.7417ZM55.262 22.2737L55.065 22.3085L55.0659 22.313L55.262 22.2737ZM54.842 21.2657L54.9968 21.1391L54.9949 21.1369L54.842 21.2657ZM53.218 19.5017L53.3623 19.3632L53.3594 19.3603L53.218 19.5017ZM53.666 19.0537L53.5459 19.2139L53.5524 19.2184L53.666 19.0537ZM55.878 20.4817L55.7778 20.6553L55.7885 20.6606L55.878 20.4817ZM57.754 20.1457L57.6084 20.0085L57.607 20.0101L57.754 20.1457ZM59.742 16.3377L59.9328 16.3978L59.9336 16.3949L59.742 16.3377ZM59.994 9.22574L59.8354 9.3477L59.8378 9.35068L59.994 9.22574ZM56.858 9.08574L56.8053 8.89279L56.7176 8.91671L56.678 8.99855L56.858 9.08574ZM54.366 14.2657L54.1883 14.1739L54.1882 14.1742L54.366 14.2657ZM50.138 22.1337L50.3083 22.2386L50.3105 22.235L50.138 22.1337ZM48.626 20.8737L48.7904 20.9876L48.7927 20.9842L48.626 20.8737ZM53.19 13.2857L53.3657 13.3812L53.3666 13.3795L53.19 13.2857ZM55.094 9.58974L55.2745 9.67573L55.4812 9.24169L55.0277 9.40105L55.094 9.58974ZM52.154 10.7377L52.0775 10.5529L52.0752 10.5539L52.154 10.7377ZM51.342 11.1577L51.2118 11.0059L51.342 11.1577ZM49.382 10.7937L49.2405 10.9352L49.382 10.7937ZM48.906 8.41374L48.7431 8.5301L48.7485 8.537L48.906 8.41374ZM52.294 9.08574L52.2494 8.89075L52.2468 8.89137L52.294 9.08574ZM55.682 8.21774L55.7343 8.41078L55.827 8.38565L55.8654 8.29749L55.682 8.21774ZM56.942 4.82974L56.7522 4.76647L56.7507 4.7713L56.942 4.82974ZM56.718 3.09374L56.8318 2.92928L56.8289 2.92733L56.718 3.09374ZM55.486 2.67374L55.4467 2.86987L55.4491 2.87031L55.486 2.67374ZM55.458 2.05774L55.3684 1.87858L55.3587 1.88409L55.458 2.05774ZM59.266 3.00974L59.1374 3.16298L59.1379 3.16338L59.266 3.00974ZM59.182 4.57774L59.2608 4.76164L59.2658 4.75933L59.182 4.57774ZM58.51 5.47374L58.329 5.38856L58.3272 5.39251L58.51 5.47374ZM65.006 2.87374C65.1405 2.87374 65.3113 2.92099 65.3907 2.94748L65.5172 2.568C65.4287 2.53849 65.2075 2.47374 65.006 2.47374V2.87374ZM65.3971 2.9495C66.1255 3.1653 66.939 3.57092 67.7562 4.3064L68.0238 4.00908C67.161 3.23256 66.2944 2.79818 65.5108 2.56598L65.3971 2.9495ZM67.7583 4.30825C68.4288 4.89495 68.754 5.3462 68.754 5.83774H69.154C69.154 5.15328 68.6952 4.59653 68.0217 4.00722L67.7583 4.30825ZM68.754 5.83774C68.754 6.02156 68.6965 6.18286 68.5996 6.29502C68.5057 6.4037 68.3656 6.47774 68.17 6.47774V6.87774C68.4783 6.87774 68.7302 6.75577 68.9023 6.55646C69.0715 6.36062 69.154 6.10191 69.154 5.83774H68.754ZM68.17 6.47774C67.9186 6.47774 67.6634 6.30944 67.4249 5.8323L67.0671 6.01118C67.3325 6.54204 67.6933 6.87774 68.17 6.87774V6.47774ZM67.4249 5.8323C67.2035 5.38956 66.8054 4.85643 66.3667 4.36113C65.9267 3.86433 65.4341 3.39247 65.0148 3.0744L64.7731 3.39308C65.1658 3.69101 65.6393 4.14315 66.0673 4.62635C66.4966 5.11105 66.8685 5.61392 67.0671 6.01118L67.4249 5.8323ZM65.014 3.07374C64.9718 3.04209 64.938 3.00735 64.9167 2.97749C64.9062 2.96275 64.9006 2.95188 64.8981 2.94566C64.8953 2.93894 64.898 2.94221 64.898 2.95374H64.498C64.498 3.05632 64.546 3.14663 64.5912 3.20999C64.6399 3.27813 64.7042 3.34139 64.774 3.39374L65.014 3.07374ZM64.898 2.95374C64.898 2.93656 64.9051 2.9175 64.9199 2.90266C64.9328 2.88973 64.958 2.87374 65.006 2.87374V2.47374C64.6995 2.47374 64.498 2.70328 64.498 2.95374H64.898ZM67.274 0.969739C67.3226 0.969739 67.3969 0.98008 67.5007 1.00086C67.603 1.02131 67.717 1.04817 67.8466 1.07698L67.9334 0.686502C67.811 0.659307 67.6869 0.630173 67.5792 0.608623C67.4731 0.587399 67.3653 0.569739 67.274 0.569739V0.969739ZM67.8398 1.07534C68.5682 1.2642 69.2462 1.58824 70.0137 2.13649L70.2462 1.81099C69.4458 1.23924 68.7237 0.891283 67.9402 0.68814L67.8398 1.07534ZM70.0144 2.13694C70.3408 2.36815 70.6467 2.63555 70.8691 2.91679C71.0931 3.20015 71.218 3.47905 71.218 3.73774H71.618C71.618 3.35243 71.4348 2.98733 71.1829 2.66869C70.9292 2.34793 70.5912 2.05533 70.2456 1.81053L70.0144 2.13694ZM71.218 3.73774C71.218 3.9778 71.1464 4.15185 71.0478 4.26308C70.9501 4.37326 70.8161 4.43374 70.662 4.43374V4.83374C70.9279 4.83374 71.1718 4.72622 71.3471 4.5284C71.5215 4.33163 71.618 4.05767 71.618 3.73774H71.218ZM70.662 4.43374C70.5096 4.43374 70.4073 4.40559 70.3104 4.33532C70.2047 4.25871 70.0887 4.11999 69.9391 3.86153L69.5929 4.06195C69.7513 4.33549 69.9012 4.53277 70.0756 4.65916C70.2587 4.79189 70.4504 4.83374 70.662 4.83374V4.43374ZM69.9389 3.86131C69.4199 2.96744 68.2766 1.73692 67.2914 1.15735L67.0886 1.50213C68.0073 2.04255 69.104 3.22004 69.593 4.06217L69.9389 3.86131ZM67.2794 1.15086C67.2155 1.11889 67.194 1.06623 67.194 1.04974H66.794C66.794 1.25725 66.9405 1.42859 67.1005 1.50863L67.2794 1.15086ZM67.194 1.04974C67.194 1.03183 67.2018 1.01023 67.2172 0.993703C67.2307 0.979176 67.2488 0.969739 67.274 0.969739V0.569739C66.9827 0.569739 66.794 0.812501 66.794 1.04974H67.194ZM70.994 15.1617C70.994 15.544 70.8863 15.7911 70.7442 15.9413C70.6022 16.0913 70.406 16.1657 70.186 16.1657V16.5657C70.498 16.5657 70.8057 16.4582 71.0347 16.2162C71.2636 15.9744 71.394 15.6195 71.394 15.1617H70.994ZM70.186 16.1657C69.9605 16.1657 69.7769 16.1035 69.4916 15.896L69.2563 16.2195C69.587 16.46 69.8514 16.5657 70.186 16.5657V16.1657ZM69.4916 15.896C69.144 15.6432 68.821 15.5497 68.338 15.5497V15.9497C68.7509 15.9497 68.9879 16.0243 69.2563 16.2195L69.4916 15.896ZM68.338 15.5497C67.4346 15.5497 66.4485 15.6062 65.1609 15.6902L65.187 16.0893C66.4754 16.0053 67.4493 15.9497 68.338 15.9497V15.5497ZM65.1519 15.691C65.0868 15.6982 65.051 15.6777 65.0285 15.654C65.0013 15.6254 64.982 15.5787 64.982 15.5257H64.582C64.582 15.6688 64.6326 15.818 64.7385 15.9295C64.8489 16.0458 65.0092 16.1093 65.1961 16.0885L65.1519 15.691ZM64.982 15.5257C64.982 15.4765 64.9933 15.4579 65.0025 15.4474C65.0149 15.4333 65.0487 15.4062 65.1385 15.3838L65.0415 14.9957C64.9072 15.0293 64.7871 15.0862 64.7015 15.184C64.6126 15.2856 64.582 15.4069 64.582 15.5257H64.982ZM65.1309 15.3855C66.3304 15.1344 67.3252 14.9357 68.2925 14.5943L68.1594 14.2171C67.2227 14.5477 66.2575 14.741 65.049 14.994L65.1309 15.3855ZM68.2892 14.5955C68.454 14.5406 68.6122 14.4792 68.7208 14.3652C68.8422 14.2377 68.874 14.0779 68.874 13.9017H68.474C68.474 14.0336 68.4497 14.0698 68.4311 14.0893C68.3997 14.1223 68.334 14.1589 68.1627 14.216L68.2892 14.5955ZM68.874 13.9017C68.874 13.6071 68.7551 13.212 68.5804 12.8165C68.4031 12.4147 68.1573 11.9881 67.8812 11.6247L67.5627 11.8668C67.8186 12.2034 68.0488 12.6027 68.2145 12.978C68.3829 13.3594 68.474 13.6923 68.474 13.9017H68.874ZM67.8812 11.6247C66.8032 10.2063 65.8909 9.40749 64.7539 8.63997L64.5301 8.97151C65.633 9.71599 66.5127 10.4851 67.5627 11.8668L67.8812 11.6247ZM64.7529 8.63933C64.6892 8.59688 64.6373 8.54431 64.6028 8.49505C64.5648 8.4407 64.562 8.41119 64.562 8.41374H64.162C64.162 8.52829 64.2152 8.63878 64.2751 8.72443C64.3386 8.81517 64.4267 8.9026 64.531 8.97215L64.7529 8.63933ZM64.562 8.41374C64.562 8.42662 64.5559 8.41101 64.5937 8.38399C64.629 8.35878 64.692 8.33374 64.782 8.33374V7.93374C64.6199 7.93374 64.4729 7.97869 64.3612 8.05849C64.2521 8.13647 64.162 8.26086 64.162 8.41374H64.562ZM64.782 8.33374C64.8094 8.33374 64.8299 8.33398 64.8541 8.33802C64.8773 8.34189 64.9072 8.34995 64.9445 8.36862L65.1234 8.01086C64.9696 7.93396 64.8482 7.93374 64.782 7.93374V8.33374ZM64.9576 8.37459C66.2264 8.89866 67.6002 9.69628 68.808 10.9864L69.1 10.7131C67.8438 9.3712 66.4175 8.54482 65.1103 8.00489L64.9576 8.37459ZM68.8093 10.9878C69.9821 12.2165 70.994 13.6221 70.994 15.1617H71.394C71.394 13.4534 70.2779 11.947 69.0986 10.7116L68.8093 10.9878ZM57.4312 8.10545C57.948 7.99665 58.578 7.94174 59.042 7.94174V7.54174C58.5539 7.54174 57.896 7.59883 57.3488 7.71403L57.4312 8.10545ZM59.042 7.94174C59.8746 7.94174 60.5695 8.27555 61.0912 9.00599L61.4167 8.77349C60.8185 7.93593 60.0013 7.54174 59.042 7.54174V7.94174ZM61.0909 9.00549C61.6702 9.82185 61.866 11.0021 61.866 12.2217H62.266C62.266 10.9774 62.0697 9.69363 61.4171 8.77399L61.0909 9.00549ZM61.866 12.2217C61.866 14.2109 61.4233 16.3437 60.7861 18.0892L61.1618 18.2263C61.8126 16.4438 62.266 14.2645 62.266 12.2217H61.866ZM60.7854 18.091C60.3159 19.4166 59.6021 20.7011 58.6528 21.5962L58.9272 21.8873C59.9378 20.9343 60.68 19.5868 61.1625 18.2245L60.7854 18.091ZM58.6533 21.5957C57.7967 22.397 57.0885 22.8017 56.298 22.8017V23.2017C57.2434 23.2017 58.0472 22.7104 58.9266 21.8878L58.6533 21.5957ZM56.298 22.8017C55.9855 22.8017 55.8058 22.7592 55.693 22.6824C55.5893 22.6118 55.5089 22.4885 55.4581 22.2345L55.0659 22.313C55.1271 22.619 55.2426 22.8597 55.4679 23.0131C55.6841 23.1603 55.9664 23.2017 56.298 23.2017V22.8017ZM55.4589 22.239C55.4162 21.9967 55.3712 21.805 55.3001 21.631C55.2277 21.4541 55.1318 21.3042 54.9968 21.1391L54.6872 21.3924C54.8041 21.5353 54.8762 21.6514 54.9299 21.7825C54.9847 21.9165 55.0238 22.0748 55.065 22.3085L55.4589 22.239ZM54.9949 21.1369C54.5422 20.5992 54.0338 20.0628 53.3622 19.3632L53.0737 19.6402C53.7461 20.3407 54.2458 20.8682 54.689 21.3946L54.9949 21.1369ZM53.3594 19.3603C53.3147 19.3156 53.2959 19.2856 53.2876 19.2674C53.2803 19.2518 53.278 19.239 53.278 19.2217H52.878C52.878 19.3697 52.9355 19.5021 53.0765 19.6432L53.3594 19.3603ZM53.278 19.2217C53.278 19.2316 53.276 19.2272 53.2845 19.2082C53.292 19.1915 53.304 19.172 53.3191 19.1538C53.3345 19.1354 53.3491 19.1231 53.3597 19.1166C53.3707 19.1099 53.3697 19.1137 53.358 19.1137V18.7137C53.1996 18.7137 53.0787 18.8175 53.0118 18.8977C52.9443 18.9788 52.878 19.1 52.878 19.2217H53.278ZM53.358 19.1137C53.3954 19.1137 53.43 19.1268 53.546 19.2137L53.786 18.8937C53.6779 18.8127 53.5445 18.7137 53.358 18.7137V19.1137ZM53.5524 19.2184C54.3655 19.7791 55.0428 20.2308 55.778 20.655L55.9779 20.3085C55.2571 19.8927 54.5905 19.4484 53.7795 18.8891L53.5524 19.2184ZM55.7885 20.6606C56.0354 20.7841 56.3459 20.8777 56.69 20.8777V20.4777C56.4181 20.4777 56.1685 20.4034 55.9674 20.3029L55.7885 20.6606ZM56.69 20.8777C57.1217 20.8777 57.536 20.6767 57.9009 20.2814L57.607 20.0101C57.2999 20.3427 56.9862 20.4777 56.69 20.4777V20.8777ZM57.8995 20.2829C58.8546 19.2699 59.4537 17.9194 59.9327 16.3978L59.5512 16.2777C59.0782 17.7801 58.5013 19.0616 57.6085 20.0085L57.8995 20.2829ZM59.9336 16.3949C60.4151 14.7805 60.67 12.8292 60.67 11.5777H60.27C60.27 12.7903 60.0208 14.703 59.5503 16.2806L59.9336 16.3949ZM60.67 11.5777C60.67 10.3469 60.534 9.58067 60.1501 9.1008L59.8378 9.35068C60.1259 9.71081 60.27 10.3445 60.27 11.5777H60.67ZM60.1525 9.1038C59.995 8.89906 59.8201 8.75414 59.5905 8.66484C59.3672 8.578 59.107 8.54974 58.79 8.54974V8.94974C59.089 8.94974 59.2908 8.97748 59.4455 9.03764C59.5938 9.09534 59.7129 9.18842 59.8354 9.34768L60.1525 9.1038ZM58.79 8.54974C58.1726 8.54974 57.4216 8.72471 56.8053 8.89279L56.9106 9.27869C57.5263 9.11077 58.2314 8.94974 58.79 8.94974V8.54974ZM56.678 8.99855C55.8056 10.7996 55.0272 12.552 54.1883 14.1739L54.5436 14.3576C55.3847 12.7315 56.1743 10.9559 57.038 9.17292L56.678 8.99855ZM54.1882 14.1742C52.7315 17.0034 51.4742 19.4622 49.9655 22.0325L50.3105 22.235C51.8258 19.6533 53.0884 17.1841 54.5438 14.3573L54.1882 14.1742ZM49.9676 22.0289C49.8665 22.1932 49.7613 22.3057 49.6396 22.3787C49.5191 22.451 49.3673 22.4937 49.158 22.4937V22.8937C49.4246 22.8937 49.6508 22.8385 49.8454 22.7217C50.0386 22.6058 50.1854 22.4383 50.3083 22.2386L49.9676 22.0289ZM49.158 22.4937C48.7373 22.4937 48.462 22.222 48.462 21.9097H48.062C48.062 22.4935 48.5707 22.8937 49.158 22.8937V22.4937ZM48.462 21.9097C48.462 21.5963 48.5552 21.3273 48.7904 20.9876L48.4615 20.7599C48.1927 21.1482 48.062 21.4952 48.062 21.9097H48.462ZM48.7927 20.9842C50.4479 18.4873 51.963 15.9623 53.3657 13.3812L53.0142 13.1902C51.617 15.7612 50.108 18.2762 48.4593 20.7632L48.7927 20.9842ZM53.3666 13.3795C54.0938 12.0091 54.7122 10.8566 55.2745 9.67573L54.9134 9.50375C54.3557 10.6749 53.7422 11.8184 53.0133 13.192L53.3666 13.3795ZM55.0277 9.40105C53.9859 9.76707 52.8893 10.217 52.0775 10.5529L52.2304 10.9225C53.0426 10.5865 54.13 10.1404 55.1603 9.77843L55.0277 9.40105ZM52.0752 10.5539C51.699 10.7151 51.4372 10.8127 51.2118 11.0059L51.4721 11.3096C51.6387 11.1668 51.8249 11.0964 52.2328 10.9216L52.0752 10.5539ZM51.2118 11.0059C51.025 11.166 50.8758 11.2657 50.642 11.2657V11.6657C51.0241 11.6657 51.2669 11.4855 51.4721 11.3096L51.2118 11.0059ZM50.642 11.2657C50.3277 11.2657 49.956 11.085 49.5234 10.6523L49.2405 10.9352C49.7039 11.3985 50.1722 11.6657 50.642 11.6657V11.2657ZM49.5234 10.6523C49.2386 10.3676 48.9847 10.0524 48.803 9.73532C48.6204 9.41653 48.518 9.1084 48.518 8.83374H48.118C48.118 9.20308 48.2536 9.58095 48.4559 9.93416C48.6593 10.2891 48.9373 10.6319 49.2405 10.9352L49.5234 10.6523ZM48.518 8.83374C48.518 8.70621 48.5477 8.56368 48.5908 8.45738C48.6125 8.4038 48.6336 8.36947 48.6481 8.35231C48.6672 8.32962 48.6514 8.36174 48.598 8.36174V7.96174C48.4746 7.96174 48.3887 8.03935 48.3422 8.09455C48.2911 8.15526 48.2509 8.23118 48.2201 8.3071C48.1582 8.4598 48.118 8.65327 48.118 8.83374H48.518ZM48.598 8.36174C48.6088 8.36174 48.6095 8.36303 48.6062 8.36182C48.6026 8.36056 48.6041 8.35997 48.6123 8.36692C48.6356 8.38667 48.6709 8.4287 48.7432 8.52999L49.0687 8.29749C49.0011 8.20278 48.9383 8.11881 48.8707 8.06156C48.7876 7.99125 48.6993 7.96174 48.598 7.96174V8.36174ZM48.7485 8.537C49.0031 8.86232 49.2456 9.13624 49.4883 9.32965C49.732 9.52385 49.992 9.64974 50.278 9.64974V9.24974C50.1159 9.24974 49.9419 9.17963 49.7376 9.01683C49.5323 8.85324 49.3129 8.60916 49.0635 8.29048L48.7485 8.537ZM50.278 9.64974C50.896 9.64974 51.4288 9.50126 52.3411 9.28011L52.2468 8.89137C51.3111 9.11822 50.836 9.24974 50.278 9.24974V9.64974ZM52.3385 9.28071C53.3227 9.05575 54.3901 8.77483 55.7343 8.41078L55.6297 8.02469C54.2859 8.38865 53.2252 8.66773 52.2494 8.89077L52.3385 9.28071ZM55.8654 8.29749C56.4284 7.00253 56.823 5.90341 57.1332 4.88818L56.7507 4.7713C56.4449 5.77207 56.0555 6.85695 55.4986 8.13799L55.8654 8.29749ZM57.1317 4.89299C57.277 4.45724 57.338 4.12764 57.338 3.73774H56.938C56.938 4.07584 56.887 4.36224 56.7522 4.76649L57.1317 4.89299ZM57.338 3.73774C57.338 3.59604 57.3224 3.45526 57.2354 3.31194C57.1535 3.17694 57.0198 3.05945 56.8318 2.9293L56.6041 3.25818C56.7801 3.38003 56.8565 3.45853 56.8935 3.51954C56.9255 3.57222 56.938 3.62744 56.938 3.73774H57.338ZM56.8289 2.92733C56.6805 2.82842 56.4644 2.73774 56.2387 2.6625C56.0094 2.58607 55.7556 2.52081 55.5228 2.47717L55.4491 2.87031C55.6643 2.91067 55.9005 2.97141 56.1122 3.04198C56.3275 3.11374 56.5034 3.19106 56.607 3.26015L56.8289 2.92733ZM55.5252 2.47762C55.4582 2.46422 55.406 2.45174 55.3653 2.43923C55.3239 2.42652 55.301 2.41578 55.2893 2.40858C55.2789 2.40226 55.2834 2.40256 55.2891 2.41244C55.2951 2.42288 55.294 2.42917 55.294 2.42174H54.894C54.894 2.48431 54.9068 2.5501 54.9426 2.61216C54.978 2.67367 55.028 2.71772 55.0807 2.7499C55.1774 2.80899 55.3079 2.84208 55.4467 2.86986L55.5252 2.47762ZM55.294 2.42174C55.294 2.43717 55.2844 2.42431 55.3358 2.37829C55.3849 2.33435 55.4592 2.28739 55.5572 2.23139L55.3587 1.88409C55.2608 1.94008 55.153 2.00513 55.0691 2.08019C54.9876 2.15316 54.894 2.26631 54.894 2.42174H55.294ZM55.5474 2.23662C55.7446 2.13805 56.106 2.03374 56.466 2.03374V1.63374C56.0419 1.63374 55.6194 1.75343 55.3685 1.87885L55.5474 2.23662ZM56.466 2.03374C57.3287 2.03374 58.2928 2.45458 59.1374 3.16298L59.3945 2.8565C58.5031 2.1089 57.4512 1.63374 56.466 1.63374V2.03374ZM59.1379 3.16338C59.4239 3.40173 59.514 3.67914 59.514 3.93374H59.914C59.914 3.57234 59.78 3.17775 59.394 2.8561L59.1379 3.16338ZM59.514 3.93374C59.514 4.02872 59.4873 4.10198 59.4308 4.1697C59.3699 4.24283 59.2665 4.31846 59.0982 4.39615L59.2658 4.75933C59.4615 4.66902 59.6241 4.56265 59.7381 4.42578C59.8567 4.2835 59.914 4.11876 59.914 3.93374H59.514ZM59.1032 4.39391C58.9554 4.45724 58.8173 4.59758 58.6965 4.75874C58.5708 4.92633 58.4451 5.1418 58.329 5.38858L58.6909 5.5589C58.7988 5.32968 58.9112 5.13915 59.0165 4.99874C59.1266 4.8519 59.2125 4.78223 59.2607 4.76157L59.1032 4.39391ZM58.3272 5.39251C57.9891 6.15317 57.605 6.94774 57.2077 7.82742L57.5722 7.99206C57.959 7.13574 58.3588 6.30631 58.6927 5.55497L58.3272 5.39251ZM81.7106 3.96174L81.8242 4.12632L82.131 3.9145L81.7849 3.77604L81.7106 3.96174ZM79.4146 2.33774L79.5694 2.21107L79.567 2.20821L79.4146 2.33774ZM79.3586 0.96574L79.5152 0.84129L79.5148 0.8408L79.3586 0.96574ZM83.3346 2.61774L83.3475 2.41815L83.3469 2.41812L83.3346 2.61774ZM85.2386 3.03774L85.3446 2.86814L85.2386 3.03774ZM82.3826 4.99774L82.3064 4.8128L82.305 4.81341L82.3826 4.99774ZM79.4986 6.31374L79.4111 6.13388L79.4092 6.13485L79.4986 6.31374ZM78.9106 5.83774L78.8009 5.67052L78.7997 5.67133L78.9106 5.83774ZM80.2826 16.2537L80.1393 16.1142L80.384 16.4261L80.2826 16.2537ZM84.0066 17.0657L84.179 16.9643L84.1765 16.9603L84.0066 17.0657ZM85.3226 20.2857L85.1405 20.3685L85.1416 20.3709L85.3226 20.2857ZM90.2506 21.2657L90.2898 21.4619L90.2956 21.4606L90.2506 21.2657ZM91.9026 23.3937L91.8832 23.1947L91.8813 23.1949L91.9026 23.3937ZM86.0506 23.2257L86.1075 23.0337L86.0962 23.031L86.0506 23.2257ZM83.6986 20.7057L83.5061 20.76L83.5066 20.7617L83.6986 20.7057ZM82.7186 17.4297L82.8999 17.3451L82.8975 17.3403L82.7186 17.4297ZM78.4066 18.7737L78.5514 18.9117L78.5515 18.9116L78.4066 18.7737ZM74.9626 22.8617L75.1188 22.9867L75.1199 22.9853L74.9626 22.8617ZM73.7866 20.9857L73.9239 21.1312L73.9256 21.1296L73.7866 20.9857ZM79.5546 15.0777L79.7006 15.2144L79.7013 15.2137L79.5546 15.0777ZM84.3426 9.58974L84.5026 9.71036L84.509 9.70068L84.3426 9.58974ZM84.1746 9.33774L84.1196 9.14517L84.1096 9.1486L84.1746 9.33774ZM78.5186 11.8577L78.4234 11.6818L78.4205 11.6834L78.5186 11.8577ZM77.7066 12.3617L77.8268 12.5219L77.8346 12.5154L77.7066 12.3617ZM75.6626 11.8297L75.8078 11.6921L75.804 11.6883L75.6626 11.8297ZM74.9066 9.50574L74.7169 9.44249L74.7144 9.44978L74.7126 9.45723L74.9066 9.50574ZM75.4946 9.61774L75.3218 9.71852L75.3231 9.72064L75.4946 9.61774ZM75.9986 10.2897L76.14 10.1483L76.1346 10.1429L76.1288 10.1379L75.9986 10.2897ZM77.9586 10.4297L78.0219 10.6195L78.0259 10.6181L77.9586 10.4297ZM83.2226 8.49774L83.1565 8.30891L83.152 8.3106L83.2226 8.49774ZM84.1466 7.99374L84.2883 8.1354L84.2961 8.12661L84.1466 7.99374ZM86.3866 8.38574L86.2607 8.54126L86.2656 8.54497L86.3866 8.38574ZM86.7226 10.2897L86.7447 10.4886L86.7509 10.4877L86.7226 10.2897ZM85.7146 10.7657L85.5732 10.6243L85.5721 10.6254L85.7146 10.7657ZM81.7849 3.77604C80.8341 3.39574 80.0506 2.79918 79.5694 2.21109L79.2598 2.46439C79.7866 3.1083 80.6271 3.74374 81.6363 4.14744L81.7849 3.77604ZM79.567 2.20821C79.1125 1.67356 78.9986 1.24179 78.9986 1.02174H78.5986C78.5986 1.36168 78.7647 1.88192 79.2622 2.46727L79.567 2.20821ZM78.9986 1.02174C78.9986 1.02054 78.9988 1.01663 79.0022 1.00959C79.0057 1.0022 79.0119 0.993322 79.0205 0.98466C79.0293 0.975863 79.0378 0.970264 79.0429 0.967682C79.0452 0.966479 79.0453 0.966697 79.043 0.967362C79.0409 0.967958 79.0338 0.969739 79.0226 0.969739V0.569739C78.9072 0.569739 78.8033 0.636198 78.7377 0.701818C78.6663 0.773228 78.5986 0.884282 78.5986 1.02174H78.9986ZM79.0226 0.969739C79.0561 0.969739 79.1157 0.982266 79.2024 1.09068L79.5148 0.8408C79.3775 0.669213 79.2131 0.569739 79.0226 0.569739V0.969739ZM79.202 1.09019C80.1215 2.24694 81.4784 2.70389 83.3223 2.81736L83.3469 2.41812C81.5508 2.30759 80.3317 1.86854 79.5152 0.841291L79.202 1.09019ZM83.3217 2.81732C84.1942 2.87361 84.7329 2.95756 85.1326 3.20734L85.3446 2.86814C84.8483 2.55792 84.211 2.47387 83.3475 2.41815L83.3217 2.81732ZM85.1326 3.20734C85.3313 3.33154 85.443 3.45984 85.5077 3.58918C85.5732 3.72007 85.5986 3.86831 85.5986 4.04574H85.9986C85.9986 3.83117 85.968 3.61541 85.8655 3.4103C85.7622 3.20364 85.5939 3.02394 85.3446 2.86814L85.1326 3.20734ZM85.5986 4.04574C85.5986 4.2727 85.5233 4.37956 85.4339 4.44049C85.3297 4.51153 85.1688 4.54574 84.9586 4.54574V4.94574C85.1964 4.94574 85.4555 4.90994 85.6593 4.77098C85.8779 4.62192 85.9986 4.37878 85.9986 4.04574H85.5986ZM84.9586 4.54574C84.8131 4.54574 84.6179 4.53239 84.4161 4.51823C84.2198 4.50445 84.0153 4.48974 83.8666 4.48974V4.88974C83.9979 4.88974 84.1854 4.90303 84.3881 4.91725C84.5853 4.93109 84.7961 4.94574 84.9586 4.94574V4.54574ZM83.8666 4.48974C83.3331 4.48974 82.8033 4.60824 82.3064 4.8128L82.4587 5.18268C82.9139 4.99524 83.3921 4.88974 83.8666 4.88974V4.48974ZM82.305 4.81341C81.2368 5.26319 80.4494 5.62879 79.4111 6.13389L79.5861 6.49359C80.6198 5.99069 81.4004 5.62829 82.4602 5.18207L82.305 4.81341ZM79.4092 6.13485C79.2178 6.23054 79.0255 6.25374 78.9386 6.25374V6.65374C79.0757 6.65374 79.3314 6.62094 79.588 6.49262L79.4092 6.13485ZM78.9386 6.25374C78.9225 6.25374 78.907 6.2472 78.8958 6.23678C78.8829 6.22491 78.8866 6.21946 78.8866 6.22974H78.4866C78.4866 6.46697 78.7035 6.65374 78.9386 6.65374V6.25374ZM78.8866 6.22974C78.8866 6.1545 78.9109 6.0779 79.0215 6.00415L78.7997 5.67133C78.5743 5.82158 78.4866 6.02497 78.4866 6.22974H78.8866ZM79.0203 6.00495C79.9164 5.41688 80.6461 4.93976 81.8242 4.12632L81.597 3.79716C80.4231 4.60771 79.6968 5.0826 78.8009 5.67053L79.0203 6.00495ZM80.384 16.4261C80.8416 16.1569 81.3383 15.9777 81.8226 15.9777V15.5777C81.2429 15.5777 80.6756 15.7906 80.1812 16.0814L80.384 16.4261ZM81.8226 15.9777C82.7213 15.9777 83.3623 16.4069 83.8367 17.1712L84.1765 16.9603C83.6429 16.1006 82.8839 15.5777 81.8226 15.5777V15.9777ZM83.8342 17.1671C84.104 17.6257 84.3227 18.1842 84.529 18.7543C84.7327 19.3169 84.9262 19.8969 85.1405 20.3685L85.5047 20.203C85.299 19.7506 85.1145 19.1966 84.9052 18.6182C84.6985 18.0473 84.4692 17.4578 84.179 16.9643L83.8342 17.1671ZM85.1416 20.3709C85.3692 20.8545 85.5999 21.2224 85.9849 21.4574C86.3661 21.6902 86.8675 21.7737 87.5906 21.7737V21.3737C86.8857 21.3737 86.4771 21.2893 86.1933 21.116C85.9133 20.9451 85.724 20.669 85.5036 20.2006L85.1416 20.3709ZM87.5906 21.7737C88.5058 21.7737 89.4445 21.6309 90.2898 21.4619L90.2114 21.0696C89.3767 21.2366 88.4674 21.3737 87.5906 21.3737V21.7737ZM90.2956 21.4606C90.6573 21.3771 91.0587 21.2977 91.4546 21.2977V20.8977C91.0105 20.8977 90.5719 20.9863 90.2056 21.0709L90.2956 21.4606ZM91.4546 21.2977C91.9575 21.2977 92.4419 21.431 92.7607 21.6763L93.0045 21.3592C92.5953 21.0444 92.0157 20.8977 91.4546 20.8977V21.2977ZM92.7607 21.6763C93.0902 21.9298 93.2146 22.1843 93.2146 22.4417H93.6146C93.6146 22.0271 93.403 21.6657 93.0045 21.3592L92.7607 21.6763ZM93.2146 22.4417C93.2146 22.6343 93.151 22.7797 92.9759 22.8999C92.7838 23.0318 92.447 23.1397 91.8832 23.1947L91.922 23.5928C92.5062 23.5358 92.9254 23.4197 93.2023 23.2296C93.4962 23.0278 93.6146 22.7532 93.6146 22.4417H93.2146ZM91.8813 23.1949C91.1085 23.2777 89.8855 23.3057 89.0466 23.3057V23.7057C89.8877 23.7057 91.1287 23.6778 91.9239 23.5926L91.8813 23.1949ZM89.0466 23.3057C88.0643 23.3057 86.8319 23.2486 86.1074 23.034L85.9938 23.4175C86.7813 23.6508 88.0689 23.7057 89.0466 23.7057V23.3057ZM86.0962 23.031C85.4748 22.8856 85.0225 22.6115 84.6779 22.2218C84.3302 21.8286 84.0821 21.3064 83.8906 20.6497L83.5066 20.7617C83.7071 21.4491 83.977 22.0329 84.3783 22.4867C84.7827 22.944 85.3104 23.2579 86.005 23.4205L86.0962 23.031ZM83.8911 20.6514C83.7359 20.1014 83.5941 19.5112 83.4331 18.9206C83.2753 18.3422 83.1036 17.7819 82.8998 17.3452L82.5374 17.5143C82.7256 17.9176 82.8899 18.4493 83.0471 19.0259C83.2011 19.5903 83.3532 20.2181 83.5061 20.76L83.8911 20.6514ZM82.8975 17.3403C82.7447 17.0347 82.5467 16.7999 82.2911 16.6432C82.0356 16.4866 81.7383 16.4177 81.4026 16.4177V16.8177C81.6829 16.8177 81.9036 16.8748 82.0821 16.9843C82.2604 17.0936 82.4125 17.2648 82.5397 17.5192L82.8975 17.3403ZM81.4026 16.4177C80.8434 16.4177 80.3225 16.7048 79.821 17.1096C79.3183 17.5154 78.8037 18.0661 78.2617 18.6359L78.5515 18.9116C79.1015 18.3334 79.5949 17.8061 80.0722 17.4209C80.5507 17.0347 80.9818 16.8177 81.4026 16.8177V16.4177ZM78.2618 18.6358C77.1347 19.8192 76.0378 21.1696 74.8053 22.7382L75.1199 22.9853C76.3514 21.4179 77.4385 20.0803 78.5514 18.9117L78.2618 18.6358ZM74.8064 22.7368C74.621 22.9685 74.3989 23.0817 74.0666 23.0817V23.4817C74.5183 23.4817 74.8562 23.315 75.1188 22.9867L74.8064 22.7368ZM74.0666 23.0817C73.8083 23.0817 73.6389 22.9793 73.5266 22.82C73.4078 22.6515 73.3426 22.4029 73.3426 22.1057H72.9426C72.9426 22.4526 73.0174 22.792 73.1996 23.0505C73.3883 23.3182 73.6809 23.4817 74.0666 23.4817V23.0817ZM73.3426 22.1057C73.3426 21.8754 73.4397 21.5884 73.9239 21.1311L73.6493 20.8403C73.1255 21.3351 72.9426 21.72 72.9426 22.1057H73.3426ZM73.9256 21.1296C75.5807 19.5305 77.6552 17.3999 79.7006 15.2144L79.4086 14.9411C77.366 17.1236 75.2964 19.249 73.6476 20.8419L73.9256 21.1296ZM79.7013 15.2137C81.4633 13.3118 83.2069 11.4279 84.5023 9.71016L84.1829 9.46932C82.9023 11.1676 81.1739 13.0357 79.4079 14.9418L79.7013 15.2137ZM84.509 9.70068C84.585 9.58674 84.6363 9.41772 84.5423 9.27159C84.4417 9.11513 84.2571 9.10617 84.1197 9.14544L84.2295 9.53004C84.2552 9.52271 84.2616 9.52645 84.2538 9.52461C84.2494 9.52359 84.2413 9.52092 84.2318 9.51453C84.2221 9.50801 84.213 9.49897 84.2059 9.48789C84.1911 9.46488 84.1927 9.44642 84.1929 9.44502C84.193 9.4443 84.1913 9.45611 84.1762 9.4788L84.509 9.70068ZM84.1096 9.1486C82.3053 9.76882 80.1392 10.7536 78.4234 11.6818L78.6138 12.0336C80.314 11.1139 82.4599 10.1387 84.2396 9.52688L84.1096 9.1486ZM78.4205 11.6834C77.9786 11.932 77.7638 12.0537 77.5786 12.2081L77.8346 12.5154C77.9854 12.3898 78.1626 12.2875 78.6167 12.0321L78.4205 11.6834ZM77.5866 12.2017C77.4791 12.2824 77.3908 12.3399 77.2928 12.379C77.197 12.4174 77.0827 12.4417 76.9226 12.4417V12.8417C77.1265 12.8417 77.2922 12.8101 77.4414 12.7504C77.5884 12.6916 77.7101 12.6091 77.8266 12.5217L77.5866 12.2017ZM76.9226 12.4417C76.7782 12.4417 76.6276 12.3913 76.4462 12.2693C76.2621 12.1455 76.0574 11.9556 75.8078 11.6922L75.5174 11.9673C75.7719 12.2359 76.0011 12.452 76.223 12.6012C76.4476 12.7522 76.675 12.8417 76.9226 12.8417V12.4417ZM75.804 11.6883C75.6054 11.4897 75.4067 11.2377 75.2589 10.9782C75.109 10.7151 75.0226 10.4638 75.0226 10.2617H74.6226C74.6226 10.5637 74.7462 10.8864 74.9113 11.1762C75.0785 11.4698 75.2998 11.7498 75.5212 11.9712L75.804 11.6883ZM75.0226 10.2617C75.0226 9.88659 75.0485 9.76287 75.1006 9.55425L74.7126 9.45723C74.6527 9.69661 74.6226 9.85289 74.6226 10.2617H75.0226ZM75.0963 9.56898C75.1201 9.49775 75.1448 9.45463 75.1635 9.4329C75.1798 9.41381 75.1776 9.42574 75.1586 9.42574V9.02574C75.0276 9.02574 74.9274 9.09367 74.8597 9.17258C74.7944 9.24885 74.7491 9.34573 74.7169 9.44249L75.0963 9.56898ZM75.1586 9.42574C75.1543 9.42574 75.1405 9.42437 75.1265 9.41706C75.1165 9.41188 75.1186 9.40977 75.1341 9.42744C75.1684 9.46671 75.2223 9.54794 75.3218 9.71851L75.6674 9.51696C75.5709 9.35154 75.4987 9.23677 75.4351 9.16404C75.4016 9.12571 75.3617 9.0886 75.3115 9.06242C75.2572 9.03411 75.2049 9.02574 75.1586 9.02574V9.42574ZM75.3231 9.72064C75.4887 9.99665 75.644 10.2492 75.8684 10.4416L76.1288 10.1379C75.9612 9.99429 75.8365 9.79883 75.6661 9.51484L75.3231 9.72064ZM75.8572 10.4312C76.1143 10.6883 76.4436 10.8537 76.8666 10.8537V10.4537C76.5615 10.4537 76.3309 10.3392 76.14 10.1483L75.8572 10.4312ZM76.8666 10.8537C77.0885 10.8537 77.4181 10.8207 78.0218 10.6195L77.8954 10.24C77.3231 10.4308 77.0367 10.4537 76.8666 10.4537V10.8537ZM78.0259 10.6181C79.5949 10.0577 81.584 9.32931 83.2932 8.68488L83.152 8.3106C81.4452 8.95417 79.4583 9.68176 77.8913 10.2414L78.0259 10.6181ZM83.2887 8.68651C83.5722 8.58727 83.7674 8.50567 83.9194 8.41994C84.0758 8.33167 84.1811 8.24211 84.288 8.13516L84.0052 7.85232C83.9161 7.94137 83.8394 8.00581 83.7228 8.07154C83.6018 8.13981 83.433 8.21221 83.1565 8.30897L83.2887 8.68651ZM84.2961 8.12661C84.5141 7.88135 84.6586 7.80174 84.7906 7.80174V7.40174C84.4746 7.40174 84.2271 7.60213 83.9971 7.86087L84.2961 8.12661ZM84.7906 7.80174C84.8976 7.80174 85.1155 7.86166 85.3977 7.99585C85.6712 8.12593 85.9797 8.31364 86.2608 8.54119L86.5124 8.23029C86.2055 7.98183 85.87 7.77754 85.5695 7.63463C85.2776 7.49582 84.9916 7.40174 84.7906 7.40174V7.80174ZM86.2656 8.54497C86.619 8.81354 86.868 9.01156 87.0309 9.19681C87.1869 9.37418 87.2506 9.52511 87.2506 9.70174H87.6506C87.6506 9.40237 87.5323 9.1613 87.3313 8.93267C87.1372 8.71192 86.8542 8.48994 86.5076 8.22651L86.2656 8.54497ZM87.2506 9.70174C87.2506 9.82783 87.2025 9.9007 87.1207 9.95668C87.026 10.0214 86.8809 10.0651 86.6943 10.0918L86.7509 10.4877C86.9563 10.4584 87.1752 10.404 87.3465 10.2868C87.5307 10.1608 87.6506 9.96765 87.6506 9.70174H87.2506ZM86.7005 10.091C86.1426 10.153 85.8224 10.3751 85.5732 10.6243L85.856 10.9072C86.0548 10.7084 86.2946 10.5385 86.7447 10.4885L86.7005 10.091ZM85.5721 10.6254C83.7839 12.4416 82.2107 13.9868 80.1393 16.1142L80.4259 16.3933C82.4985 14.2647 84.0613 12.7299 85.8571 10.9061L85.5721 10.6254ZM99.8093 13.2857L99.6598 13.1529L99.5345 13.2938L99.6679 13.4272L99.8093 13.2857ZM99.8653 13.3417L99.7239 13.4832L99.8482 13.6075L99.9875 13.5001L99.8653 13.3417ZM106.501 21.4337L106.311 21.4957L106.374 21.6879L106.565 21.6232L106.501 21.4337ZM99.2773 14.9937L99.1346 14.8536L99.1339 14.8543L99.2773 14.9937ZM97.0933 17.4577L96.9313 17.3404L96.9306 17.3415L97.0933 17.4577ZM95.8613 15.7217L96.0075 15.8582L96.0079 15.8578L95.8613 15.7217ZM102.357 8.52574L102.512 8.65239L102.513 8.65175L102.357 8.52574ZM106.109 3.79374L105.951 3.67094L105.95 3.67297L106.109 3.79374ZM105.577 3.62574L105.514 3.436L105.577 3.62574ZM101.769 5.02574L101.842 5.21215L101.844 5.21143L101.769 5.02574ZM100.817 5.61374L100.959 5.75536L100.966 5.74753L100.817 5.61374ZM98.6613 5.10974L98.8109 4.9768L98.8065 4.97219L98.6613 5.10974ZM98.3533 2.78574L98.1905 2.90204L98.194 2.90662L98.3533 2.78574ZM101.293 3.68174L101.338 3.87679L101.341 3.87602L101.293 3.68174ZM104.989 2.61774L104.934 2.42525L104.926 2.428L104.989 2.61774ZM105.829 2.11374L105.971 2.25516L105.971 2.25516L105.829 2.11374ZM108.237 2.70174L108.12 2.86351L108.123 2.86559L108.237 2.70174ZM108.349 4.49374L108.389 4.6899L108.393 4.68898L108.349 4.49374ZM107.201 5.30574L107.06 5.16432L107.201 5.30574ZM103.477 9.36574L103.629 9.49619L103.629 9.49572L103.477 9.36574ZM104.765 21.8537L104.809 22.049L105.012 22.0039L104.959 21.8028L104.765 21.8537ZM99.6679 13.4272L99.7239 13.4832L100.007 13.2003L99.9507 13.1443L99.6679 13.4272ZM99.9875 13.5001C101.918 12.0107 103.892 11.3297 105.745 11.3297V10.9297C103.79 10.9297 101.732 11.6488 99.7432 13.1834L99.9875 13.5001ZM105.745 11.3297C107.761 11.3297 109.305 11.9596 110.343 12.9411C111.382 13.9227 111.929 15.2689 111.929 16.7297H112.329C112.329 15.1666 111.742 13.7127 110.618 12.6504C109.494 11.5878 107.846 10.9297 105.745 10.9297V11.3297ZM111.929 16.7297C111.929 18.7765 111.01 20.3717 109.589 21.4605C108.163 22.5528 106.227 23.1377 104.205 23.1377V23.5377C106.299 23.5377 108.325 22.9327 109.832 21.778C111.344 20.6198 112.329 18.911 112.329 16.7297H111.929ZM104.205 23.1377C102.704 23.1377 101.44 22.8273 100.56 22.2983C99.683 21.7716 99.1973 21.0382 99.1973 20.1737H98.7973C98.7973 21.2133 99.3896 22.0619 100.354 22.6412C101.314 23.2182 102.655 23.5377 104.205 23.5377V23.1377ZM99.1973 20.1737C99.1973 19.48 99.4834 18.9573 99.9421 18.603C100.406 18.2444 101.06 18.0497 101.797 18.0497V17.6497C100.995 17.6497 100.248 17.8611 99.6976 18.2865C99.1413 18.7161 98.7973 19.3555 98.7973 20.1737H99.1973ZM101.797 18.0497C103.037 18.0497 104.062 18.5955 104.833 19.3058C105.607 20.0185 106.112 20.8856 106.311 21.4957L106.691 21.3717C106.47 20.6939 105.926 19.7689 105.104 19.0116C104.279 18.252 103.162 17.6497 101.797 17.6497V18.0497ZM106.565 21.6232C108.887 20.8395 110.229 18.8586 110.229 16.5897H109.829C109.829 18.6888 108.595 20.516 106.437 21.2442L106.565 21.6232ZM110.229 16.5897C110.229 14.9892 109.701 13.8181 108.843 13.0493C107.989 12.2838 106.831 11.9377 105.605 11.9377V12.3377C106.76 12.3377 107.814 12.6636 108.576 13.3472C109.335 14.0274 109.829 15.0823 109.829 16.5897H110.229ZM105.605 11.9377C102.933 11.9377 100.7 13.2596 99.1346 14.8536L99.42 15.1339C100.934 13.5919 103.07 12.3377 105.605 12.3377V11.9377ZM99.1339 14.8543C98.1551 15.8611 97.5291 16.515 96.9313 17.3404L97.2553 17.575C97.8335 16.7765 98.4395 16.1424 99.4207 15.1332L99.1339 14.8543ZM96.9306 17.3415C96.8242 17.4904 96.6022 17.6217 96.3933 17.6217V18.0217C96.7444 18.0217 97.0825 17.817 97.2561 17.574L96.9306 17.3415ZM96.3933 17.6217C95.9787 17.6217 95.5853 17.2703 95.5853 16.7297H95.1853C95.1853 17.4771 95.7439 18.0217 96.3933 18.0217V17.6217ZM95.5853 16.7297C95.5853 16.5078 95.6447 16.247 96.0075 15.8582L95.7151 15.5853C95.294 16.0365 95.1853 16.3916 95.1853 16.7297H95.5853ZM96.0079 15.8578C98.16 13.538 100.491 11.1227 102.512 8.65239L102.203 8.39909C100.192 10.8568 97.8746 13.2575 95.7147 15.5857L96.0079 15.8578ZM102.513 8.65175C103.716 7.16846 104.866 5.7657 106.269 3.91451L105.95 3.67297C104.552 5.51778 103.407 6.91502 102.202 8.39973L102.513 8.65175ZM106.267 3.91653C106.321 3.84677 106.364 3.78148 106.391 3.71998C106.417 3.66156 106.439 3.58351 106.42 3.50027C106.397 3.40408 106.331 3.34494 106.266 3.31583C106.208 3.29015 106.15 3.28574 106.109 3.28574V3.68574C106.125 3.68574 106.119 3.68833 106.103 3.68103C106.093 3.67663 106.077 3.6676 106.062 3.6506C106.045 3.63268 106.035 3.61136 106.03 3.59021C106.021 3.55247 106.035 3.53567 106.025 3.55862C106.016 3.5785 105.995 3.61471 105.951 3.67095L106.267 3.91653ZM106.109 3.28574C106.021 3.28574 105.904 3.31538 105.809 3.34243C105.706 3.37183 105.597 3.40825 105.514 3.436L105.641 3.81548C105.725 3.78723 105.826 3.75365 105.919 3.72704C106.021 3.69809 106.086 3.68574 106.109 3.68574V3.28574ZM105.514 3.436C104.25 3.85743 102.818 4.39083 101.695 4.84004L101.844 5.21143C102.961 4.76465 104.385 4.23405 105.641 3.81548L105.514 3.436ZM101.697 4.83934C101.443 4.93796 101.254 5.0202 101.095 5.11748C100.931 5.21725 100.805 5.32901 100.669 5.47995L100.966 5.74753C101.082 5.61847 101.18 5.53423 101.303 5.459C101.43 5.38128 101.591 5.30952 101.842 5.21214L101.697 4.83934ZM100.676 5.47232C100.54 5.60818 100.337 5.72174 100.061 5.72174V6.12174C100.457 6.12174 100.759 5.9553 100.959 5.75516L100.676 5.47232ZM100.061 5.72174C99.9277 5.72174 99.7247 5.66217 99.491 5.53049C99.2617 5.40129 99.02 5.21225 98.8108 4.97687L98.5118 5.24261C98.7506 5.51123 99.027 5.72819 99.2946 5.87899C99.5579 6.02731 99.8309 6.12174 100.061 6.12174V5.72174ZM98.8065 4.97219C98.3105 4.44859 97.8533 3.76935 97.8533 3.06574H97.4533C97.4533 3.93013 98.0042 4.70689 98.5161 5.24729L98.8065 4.97219ZM97.8533 3.06574C97.8533 2.96194 97.8855 2.84851 97.9326 2.76479C97.956 2.72329 97.9787 2.69683 97.995 2.68304C98.012 2.66865 98.0099 2.67774 97.9893 2.67774V2.27774C97.8848 2.27774 97.7986 2.32532 97.7369 2.37743C97.6745 2.43015 97.6237 2.49819 97.584 2.56869C97.5051 2.70897 97.4533 2.88954 97.4533 3.06574H97.8533ZM97.9893 2.67774C97.9754 2.67774 97.9857 2.67047 98.0285 2.70821C98.0705 2.74528 98.1229 2.80727 98.1906 2.90199L98.5161 2.66949C98.4437 2.56821 98.3701 2.47619 98.2931 2.40827C98.2169 2.34101 98.1152 2.27774 97.9893 2.27774V2.67774ZM98.194 2.90662C98.812 3.72127 99.2569 4.07774 99.8373 4.07774V3.67774C99.4657 3.67774 99.1266 3.47421 98.5127 2.66486L98.194 2.90662ZM99.8373 4.07774C100.221 4.07774 100.712 4.01892 101.338 3.87677L101.249 3.48671C100.642 3.62456 100.182 3.67774 99.8373 3.67774V4.07774ZM101.341 3.87602C102.606 3.56678 103.787 3.22928 105.053 2.80748L104.926 2.428C103.671 2.8462 102.501 3.1807 101.246 3.48746L101.341 3.87602ZM105.044 2.81004C105.477 2.68647 105.729 2.49669 105.971 2.25516L105.688 1.97232C105.481 2.17878 105.286 2.32501 104.934 2.42543L105.044 2.81004ZM105.971 2.25516C106.13 2.09577 106.304 2.03374 106.473 2.03374V1.63374C106.195 1.63374 105.921 1.73971 105.688 1.97232L105.971 2.25516ZM106.473 2.03374C106.646 2.03374 106.897 2.11863 107.2 2.27698C107.496 2.43166 107.816 2.64245 108.12 2.86349L108.355 2.53999C108.043 2.31303 107.705 2.08982 107.385 1.92249C107.072 1.75884 106.748 1.63374 106.473 1.63374V2.03374ZM108.123 2.86559C108.668 3.2475 108.877 3.55935 108.877 3.90574H109.277C109.277 3.35613 108.926 2.93997 108.352 2.53789L108.123 2.86559ZM108.877 3.90574C108.877 3.98281 108.851 4.04628 108.775 4.10835C108.691 4.17759 108.544 4.24554 108.306 4.2985L108.393 4.68898C108.658 4.62994 108.876 4.54389 109.029 4.41713C109.192 4.2832 109.277 4.10867 109.277 3.90574H108.877ZM108.31 4.29762C107.968 4.36613 107.679 4.54484 107.06 5.16432L107.343 5.44716C107.955 4.83464 108.171 4.73335 108.389 4.68986L108.31 4.29762ZM107.06 5.16432C106.132 6.09193 104.981 7.29975 103.325 9.23576L103.629 9.49572C105.278 7.56773 106.422 6.36755 107.343 5.44716L107.06 5.16432ZM103.326 9.23529C102.812 9.83231 102.179 10.4933 101.531 11.166C100.884 11.8368 100.223 12.5192 99.6598 13.1529L99.9588 13.4186C100.516 12.7923 101.17 12.1167 101.819 11.4435C102.466 10.7722 103.107 10.1032 103.629 9.49619L103.326 9.23529ZM104.959 21.8028C104.739 20.9661 104.235 20.1509 103.61 19.5437C102.987 18.9395 102.219 18.5177 101.461 18.5177V18.9177C102.076 18.9177 102.749 19.266 103.331 19.8307C103.91 20.3926 104.372 21.1454 104.572 21.9046L104.959 21.8028ZM101.461 18.5177C100.916 18.5177 100.48 18.6851 100.178 18.9625C99.8763 19.2397 99.7213 19.6158 99.7213 20.0057H100.121C100.121 19.7237 100.232 19.4558 100.449 19.257C100.665 19.0584 100.999 18.9177 101.461 18.9177V18.5177ZM99.7213 20.0057C99.7213 20.6809 100.161 21.22 100.851 21.5796C101.54 21.9388 102.506 22.1377 103.645 22.1377V21.7377C102.545 21.7377 101.649 21.5447 101.036 21.2249C100.423 20.9055 100.121 20.4785 100.121 20.0057H99.7213ZM103.645 22.1377C104.125 22.1377 104.535 22.1099 104.809 22.049L104.722 21.6585C104.492 21.7096 104.118 21.7377 103.645 21.7377V22.1377Z" fill="#2E2521" mask="url(#path-1-outside-1_13_523)"/>
</svg>
