<svg width="92" height="25" viewBox="0 0 92 25" fill="none" xmlns="http://www.w3.org/2000/svg">
<mask id="path-1-outside-1_13_535" maskUnits="userSpaceOnUse" x="0" y="-0.16626" width="92" height="25" fill="black">
<rect fill="white" y="-0.16626" width="92" height="25"/>
<path d="M15.5171 10.0097C16.9171 10.1777 18.5131 10.7097 19.6891 11.6897C21.1451 12.8097 21.8451 14.1537 21.8451 16.0577C21.8451 18.6897 19.5211 21.0977 16.3851 22.3017C14.3131 23.0857 11.6251 23.7017 9.94506 23.7577C9.63706 23.7577 9.46906 23.6177 9.46906 23.4217C9.46906 23.1977 9.60906 23.0577 9.88906 23.0017C11.9611 22.6097 13.8931 22.0777 15.8531 20.9857C17.6451 19.9777 19.6891 17.9057 19.6891 15.6097C19.6891 13.8457 19.2411 12.9217 18.3451 12.0817C17.3651 11.1857 16.2171 10.8777 15.1251 10.7657C13.5851 13.2577 11.7931 15.5257 9.66506 17.5417C9.88906 18.1297 10.0851 18.5217 10.2811 18.9417C10.3931 19.1657 10.4771 19.5017 10.4771 19.7257C10.4771 20.0617 10.1971 20.3697 9.72106 20.3697C9.38506 20.3697 9.10506 20.1177 8.76906 19.6697C8.54506 19.3617 8.40506 19.0257 8.29306 18.7457C6.38906 20.2857 4.28906 21.4057 2.97306 21.4057C1.46106 21.4057 0.929063 20.3697 0.929063 19.0257C0.929063 17.0377 2.41306 14.8257 4.28906 13.3697C5.18506 12.6697 6.44506 11.8857 7.53706 11.4097C7.62106 9.78574 7.76106 8.46974 7.95706 7.01374C7.25706 7.09774 6.55706 7.12574 6.10906 7.12574C4.34506 7.12574 3.36506 6.42574 2.66506 5.38974C2.49706 5.13774 2.38506 4.82974 2.38506 4.68974C2.38506 4.57774 2.49706 4.49374 2.58106 4.49374C2.72106 4.49374 2.83306 4.57774 2.97306 4.68974C3.84106 5.50174 4.42906 5.78174 5.94106 5.78174C6.66906 5.78174 7.48106 5.69774 8.18106 5.58574C8.29306 4.80174 8.37706 4.29774 8.46106 3.59774C8.48906 3.26174 8.54506 2.89774 8.54506 2.61774C8.54506 2.05774 8.37706 1.91774 7.81706 1.63774C7.50906 1.49774 7.25706 1.46974 6.97706 1.41374C6.80906 1.38574 6.69706 1.27374 6.69706 1.13374C6.69706 0.993739 6.89306 0.85374 7.06106 0.797739C7.48106 0.629739 7.92906 0.629739 8.18106 0.629739C8.71306 0.629739 9.41306 0.881739 10.0571 1.27374C10.5331 1.58174 11.0371 2.02974 11.0371 2.50574C11.0371 2.78574 10.8971 3.03774 10.6171 3.20574C10.2811 3.42974 10.1131 3.90574 9.80506 5.30574C11.5131 4.88574 12.9971 4.40974 14.3131 3.76574C14.6771 3.56974 15.2091 3.42974 15.7131 3.40174C16.2451 3.40174 16.8051 3.68174 16.8051 4.18574C16.8051 4.54974 16.6371 4.74574 16.2451 4.94174C15.5451 5.27774 14.5651 5.61374 13.2211 5.97774C12.0731 6.28574 10.8691 6.56574 9.44106 6.81774C9.18906 8.18974 8.96506 9.58974 8.90906 10.8497C10.3091 10.3737 11.9611 10.0657 13.6411 9.92574C13.6971 9.81374 13.7251 9.61774 13.7251 9.47774C13.7251 8.97374 13.2771 8.58174 12.8011 8.38574C12.6051 8.30174 12.5491 8.18974 12.5491 8.10574C12.5491 7.96574 12.8011 7.82574 13.1651 7.82574C13.8651 7.82574 14.5371 8.18974 15.2371 8.91774C15.4891 9.14174 15.6011 9.44974 15.6011 9.56174C15.5731 9.81374 15.5451 9.92574 15.5171 10.0097ZM8.82506 11.8577C8.79706 13.9577 8.88106 15.0497 9.18906 16.3377C10.9531 14.6857 12.4091 12.5577 13.3891 10.7937C11.9891 10.8777 10.1971 11.3257 8.82506 11.8577ZM7.90106 17.4577C7.53706 15.8337 7.45306 14.1537 7.48106 12.5017C5.38106 13.6217 2.55306 16.1697 2.55306 18.4937C2.55306 19.3897 2.83306 19.6697 3.30906 19.6697C4.68106 19.6697 6.02506 18.8297 7.90106 17.4577ZM31.2303 4.91374C30.6423 4.63374 30.0263 4.04574 29.6063 3.59774C28.8783 2.89774 28.4303 1.80574 28.4303 1.02174C28.4303 0.769739 28.5423 0.68574 28.6543 0.68574C28.7943 0.68574 28.8783 0.741739 29.0183 0.993739C29.7743 2.28174 31.0343 3.03774 32.5183 3.56974C33.1343 3.79374 33.7503 4.04574 34.1703 4.46574C34.6743 4.96974 34.7583 5.33374 34.7583 5.66974C34.7583 6.17374 34.3663 6.45374 34.0023 6.45374C33.6663 6.45374 33.3583 6.39774 33.1343 6.31374C32.7703 6.20174 32.4343 6.14574 31.7903 6.14574C31.0903 6.14574 29.6623 6.36974 28.2623 6.95774C27.8143 7.15374 27.5623 7.43374 27.5623 7.71374C27.5623 7.93774 27.6743 8.24574 27.7863 8.46974C27.9543 8.86174 28.0103 9.28174 28.0103 9.67374C28.0103 9.98174 27.9543 10.6817 27.8143 11.6337C27.6183 12.8377 27.4783 14.2937 27.4503 15.6657C27.4503 15.7777 27.4783 15.8617 27.5903 15.8617C27.6743 15.8617 27.7583 15.8337 27.9263 15.6937C28.7663 15.0497 30.0543 14.0697 31.6783 13.1737C33.6383 12.0537 35.1223 11.5217 36.8583 11.5217C38.7903 11.5217 40.3023 12.1377 41.2263 13.0897C42.1223 13.9857 42.5423 15.0217 42.5423 16.1697C42.5423 18.7177 40.7783 20.5377 38.0343 21.7977C35.7103 22.8617 32.4343 23.5897 29.1583 23.6457C28.8503 23.6457 28.5983 23.5617 28.5983 23.3097C28.5983 23.0857 28.8223 22.9177 29.0183 22.8897C31.7063 22.4697 34.7303 21.7137 36.8583 20.4817C39.0983 19.1937 40.3863 17.6537 40.3863 15.8617C40.3863 14.7417 40.0503 13.9017 39.4063 13.2577C38.7903 12.6977 37.8383 12.3897 36.6903 12.3897C35.4023 12.3897 34.1983 12.8377 32.9943 13.5937C31.5383 14.4897 30.3063 15.6937 29.5783 16.4777C28.7383 17.4297 28.2623 18.0457 28.0943 18.5497C27.9263 19.0817 27.7303 19.2777 27.2823 19.2777C26.9183 19.2777 26.5543 18.9977 26.2183 18.4657C25.9383 18.0177 25.7703 17.4857 25.7703 16.8417C25.7703 15.0777 26.0503 13.2577 26.4423 11.1297C26.6383 10.0937 26.6663 9.44974 26.6663 9.00174C26.6663 8.69374 26.6103 8.30174 26.6103 7.93774C26.6103 7.20974 27.0303 6.70574 27.7023 6.31374C28.3463 5.92174 29.7743 5.33374 31.2303 4.91374ZM52.602 10.3177L52.574 11.2697C55.374 9.16974 57.838 8.04974 60.33 8.04974C62.346 8.04974 63.998 8.91774 64.978 9.78574C66.294 10.9617 66.77 12.5017 66.77 13.7617C66.77 16.3657 65.538 18.2977 63.774 19.6137C61.59 21.2657 59.126 22.1057 56.97 22.4697C56.718 22.5257 56.522 22.5537 56.242 22.5537C56.046 22.5537 55.878 22.4137 55.878 22.2737C55.878 22.0217 55.99 21.9097 56.186 21.8537C58.65 21.0137 60.778 19.9777 62.402 18.4097C63.802 17.0657 64.586 15.3297 64.586 13.4537C64.586 12.4457 64.194 11.2417 63.494 10.5137C62.57 9.56174 61.366 9.05774 59.938 9.05774C57.446 9.05774 54.366 10.8497 52.602 12.4457C52.546 14.7137 52.602 17.0377 52.658 18.9417C52.658 19.5297 52.742 20.3977 52.742 20.9577C52.742 22.9177 52.238 23.8977 51.538 23.8977C51.174 23.8977 50.866 23.6457 50.81 22.8897C50.754 22.2177 50.502 21.7417 50.054 21.1817C49.494 20.4537 48.654 19.4457 47.59 18.4377C47.002 19.2497 46.75 19.6417 46.33 20.1457C46.078 20.4537 45.798 20.6777 45.434 20.6777C45.042 20.6777 44.65 20.3977 44.65 19.8377C44.65 19.3897 44.874 19.0817 45.21 18.6617C46.33 17.4017 47.646 15.8617 48.906 14.2097C49.914 12.8657 50.67 11.8577 51.342 10.6537C51.37 9.92574 51.37 9.16974 51.37 8.52574C50.67 8.74974 49.914 9.08574 49.186 9.44974C48.85 9.61774 48.514 9.81374 48.234 10.0097C48.01 10.2337 47.814 10.3457 47.562 10.3457C47.142 10.3457 46.862 10.1497 46.414 9.67374C45.854 9.05774 45.518 8.44174 45.518 7.93774C45.518 7.54574 45.63 7.37774 45.77 7.37774C45.854 7.37774 45.966 7.48974 46.022 7.54574C46.526 8.18974 46.946 8.55374 47.394 8.55374C47.618 8.55374 47.87 8.52574 48.15 8.44174C49.214 8.16174 50.334 7.71374 51.426 7.26574C51.454 5.83774 51.482 4.38174 51.482 3.17774C51.482 2.56174 51.51 2.25374 51.146 1.88974C50.95 1.69374 50.474 1.52574 49.998 1.41374C49.718 1.35774 49.662 1.35774 49.662 1.21774C49.662 1.10574 49.746 1.02174 49.886 0.937738C50.166 0.769739 50.53 0.68574 50.866 0.68574C51.454 0.68574 51.986 0.909739 52.658 1.32974C53.442 1.86174 53.946 2.33774 53.946 2.81374C53.946 3.03774 53.806 3.31774 53.61 3.48574C53.386 3.65374 53.218 3.96174 53.162 4.35374C53.078 5.02574 52.994 5.75374 52.938 6.59374C53.162 6.45374 53.386 6.42574 53.554 6.42574C53.806 6.42574 53.974 6.50974 54.226 6.67774C54.506 6.84574 54.618 7.06974 54.618 7.32174C54.618 7.54574 54.394 7.76974 54.198 7.99374C53.526 8.72174 53.134 9.42174 52.602 10.3177ZM47.982 17.8777C48.738 18.5497 49.634 19.2217 50.418 19.8097C50.726 20.0337 50.894 20.1177 51.006 20.1177C51.146 20.1177 51.174 20.0057 51.174 19.6697C51.202 17.9897 51.23 15.6937 51.258 13.6497C50.138 15.0497 48.962 16.6177 47.982 17.8777ZM81.8158 6.06174C83.5238 5.89374 85.0638 5.80974 86.4638 5.72574C87.2478 5.69774 87.6678 5.55774 87.8918 5.44574C88.1158 5.33374 88.4238 5.24974 88.7598 5.24974C89.4318 5.24974 90.3838 5.64174 90.9438 5.97774C91.3918 6.25774 91.6438 6.56574 91.6438 7.01374C91.6438 7.43374 91.3358 7.71374 90.9998 7.71374C90.5798 7.71374 90.1038 7.57374 89.5158 7.46174C88.3958 7.26574 87.3318 7.15374 86.1278 7.15374C84.6438 7.15374 83.2998 7.15374 81.7598 7.26574C81.7318 9.30974 81.7038 10.7657 81.7038 12.3617C82.0398 13.2297 82.1798 14.2097 82.1798 15.4417C82.1798 17.8777 80.9758 20.0897 78.8198 21.7137C77.5038 22.6937 75.7398 23.4497 74.0318 23.9537C73.6678 24.0657 73.3318 24.1217 73.1638 24.1217C72.9118 24.1217 72.7718 23.9817 72.7718 23.8137C72.7718 23.6737 72.8558 23.5337 73.1358 23.4217C74.8438 22.7777 76.3558 21.8817 77.6158 20.8177C78.9878 19.6977 79.8558 18.3537 80.2758 16.7297C79.6598 17.2337 79.0158 17.3737 78.3438 17.3737C76.7478 17.3737 75.2918 16.3377 75.2918 13.9297C75.2918 12.0537 76.6918 10.5137 78.4558 10.5137C79.1278 10.5137 79.7718 10.6537 80.2478 10.9617C80.2478 9.75774 80.2198 8.63774 80.1918 7.43374C77.9518 7.68574 75.4038 8.13374 73.2758 8.66574C72.1558 8.94574 71.7078 9.11374 71.3718 9.33774C71.0918 9.53374 70.8118 9.61774 70.5598 9.61774C70.0278 9.61774 69.4958 9.33774 68.9078 8.80574C68.1238 8.07774 67.7598 7.46174 67.7598 6.98574C67.7598 6.64974 67.8438 6.45374 67.9838 6.45374C68.0398 6.45374 68.1238 6.48174 68.1798 6.53774C69.0478 7.37774 69.4678 7.60174 70.2798 7.60174C70.6718 7.60174 71.1478 7.54574 72.0718 7.37774C74.7598 6.92974 77.5878 6.50974 80.1638 6.20174C80.1638 5.16574 80.1638 4.43774 80.1358 3.45774C80.1078 2.89774 80.0798 2.44974 79.9678 2.22574C79.7998 1.94574 79.6318 1.83374 79.1838 1.77774C78.7918 1.72174 78.4838 1.69374 78.3718 1.69374C78.2038 1.69374 78.0918 1.63774 78.0918 1.52574C78.0918 1.35774 78.1478 1.27374 78.3438 1.10574C78.7078 0.769739 79.3518 0.545738 79.7438 0.545738C80.4158 0.545738 81.1158 0.881739 81.7878 1.38574C82.3478 1.80574 82.5718 2.05774 82.5718 2.39374C82.5718 2.72974 82.4318 2.92574 82.2078 3.17774C81.9838 3.40174 81.9278 3.68174 81.8998 3.98974C81.8718 4.52174 81.8438 5.19374 81.8158 6.06174ZM78.3718 11.3537C77.3918 11.3537 76.4958 12.1377 76.4958 13.7337C76.4958 15.0777 77.3638 15.8057 78.4558 15.8057C79.6318 15.8057 80.3598 14.9937 80.3878 13.6497C80.3038 12.4177 79.6878 11.3537 78.3718 11.3537Z"/>
</mask>
<path d="M15.5171 10.0097C16.9171 10.1777 18.5131 10.7097 19.6891 11.6897C21.1451 12.8097 21.8451 14.1537 21.8451 16.0577C21.8451 18.6897 19.5211 21.0977 16.3851 22.3017C14.3131 23.0857 11.6251 23.7017 9.94506 23.7577C9.63706 23.7577 9.46906 23.6177 9.46906 23.4217C9.46906 23.1977 9.60906 23.0577 9.88906 23.0017C11.9611 22.6097 13.8931 22.0777 15.8531 20.9857C17.6451 19.9777 19.6891 17.9057 19.6891 15.6097C19.6891 13.8457 19.2411 12.9217 18.3451 12.0817C17.3651 11.1857 16.2171 10.8777 15.1251 10.7657C13.5851 13.2577 11.7931 15.5257 9.66506 17.5417C9.88906 18.1297 10.0851 18.5217 10.2811 18.9417C10.3931 19.1657 10.4771 19.5017 10.4771 19.7257C10.4771 20.0617 10.1971 20.3697 9.72106 20.3697C9.38506 20.3697 9.10506 20.1177 8.76906 19.6697C8.54506 19.3617 8.40506 19.0257 8.29306 18.7457C6.38906 20.2857 4.28906 21.4057 2.97306 21.4057C1.46106 21.4057 0.929063 20.3697 0.929063 19.0257C0.929063 17.0377 2.41306 14.8257 4.28906 13.3697C5.18506 12.6697 6.44506 11.8857 7.53706 11.4097C7.62106 9.78574 7.76106 8.46974 7.95706 7.01374C7.25706 7.09774 6.55706 7.12574 6.10906 7.12574C4.34506 7.12574 3.36506 6.42574 2.66506 5.38974C2.49706 5.13774 2.38506 4.82974 2.38506 4.68974C2.38506 4.57774 2.49706 4.49374 2.58106 4.49374C2.72106 4.49374 2.83306 4.57774 2.97306 4.68974C3.84106 5.50174 4.42906 5.78174 5.94106 5.78174C6.66906 5.78174 7.48106 5.69774 8.18106 5.58574C8.29306 4.80174 8.37706 4.29774 8.46106 3.59774C8.48906 3.26174 8.54506 2.89774 8.54506 2.61774C8.54506 2.05774 8.37706 1.91774 7.81706 1.63774C7.50906 1.49774 7.25706 1.46974 6.97706 1.41374C6.80906 1.38574 6.69706 1.27374 6.69706 1.13374C6.69706 0.993739 6.89306 0.85374 7.06106 0.797739C7.48106 0.629739 7.92906 0.629739 8.18106 0.629739C8.71306 0.629739 9.41306 0.881739 10.0571 1.27374C10.5331 1.58174 11.0371 2.02974 11.0371 2.50574C11.0371 2.78574 10.8971 3.03774 10.6171 3.20574C10.2811 3.42974 10.1131 3.90574 9.80506 5.30574C11.5131 4.88574 12.9971 4.40974 14.3131 3.76574C14.6771 3.56974 15.2091 3.42974 15.7131 3.40174C16.2451 3.40174 16.8051 3.68174 16.8051 4.18574C16.8051 4.54974 16.6371 4.74574 16.2451 4.94174C15.5451 5.27774 14.5651 5.61374 13.2211 5.97774C12.0731 6.28574 10.8691 6.56574 9.44106 6.81774C9.18906 8.18974 8.96506 9.58974 8.90906 10.8497C10.3091 10.3737 11.9611 10.0657 13.6411 9.92574C13.6971 9.81374 13.7251 9.61774 13.7251 9.47774C13.7251 8.97374 13.2771 8.58174 12.8011 8.38574C12.6051 8.30174 12.5491 8.18974 12.5491 8.10574C12.5491 7.96574 12.8011 7.82574 13.1651 7.82574C13.8651 7.82574 14.5371 8.18974 15.2371 8.91774C15.4891 9.14174 15.6011 9.44974 15.6011 9.56174C15.5731 9.81374 15.5451 9.92574 15.5171 10.0097ZM8.82506 11.8577C8.79706 13.9577 8.88106 15.0497 9.18906 16.3377C10.9531 14.6857 12.4091 12.5577 13.3891 10.7937C11.9891 10.8777 10.1971 11.3257 8.82506 11.8577ZM7.90106 17.4577C7.53706 15.8337 7.45306 14.1537 7.48106 12.5017C5.38106 13.6217 2.55306 16.1697 2.55306 18.4937C2.55306 19.3897 2.83306 19.6697 3.30906 19.6697C4.68106 19.6697 6.02506 18.8297 7.90106 17.4577ZM31.2303 4.91374C30.6423 4.63374 30.0263 4.04574 29.6063 3.59774C28.8783 2.89774 28.4303 1.80574 28.4303 1.02174C28.4303 0.769739 28.5423 0.68574 28.6543 0.68574C28.7943 0.68574 28.8783 0.741739 29.0183 0.993739C29.7743 2.28174 31.0343 3.03774 32.5183 3.56974C33.1343 3.79374 33.7503 4.04574 34.1703 4.46574C34.6743 4.96974 34.7583 5.33374 34.7583 5.66974C34.7583 6.17374 34.3663 6.45374 34.0023 6.45374C33.6663 6.45374 33.3583 6.39774 33.1343 6.31374C32.7703 6.20174 32.4343 6.14574 31.7903 6.14574C31.0903 6.14574 29.6623 6.36974 28.2623 6.95774C27.8143 7.15374 27.5623 7.43374 27.5623 7.71374C27.5623 7.93774 27.6743 8.24574 27.7863 8.46974C27.9543 8.86174 28.0103 9.28174 28.0103 9.67374C28.0103 9.98174 27.9543 10.6817 27.8143 11.6337C27.6183 12.8377 27.4783 14.2937 27.4503 15.6657C27.4503 15.7777 27.4783 15.8617 27.5903 15.8617C27.6743 15.8617 27.7583 15.8337 27.9263 15.6937C28.7663 15.0497 30.0543 14.0697 31.6783 13.1737C33.6383 12.0537 35.1223 11.5217 36.8583 11.5217C38.7903 11.5217 40.3023 12.1377 41.2263 13.0897C42.1223 13.9857 42.5423 15.0217 42.5423 16.1697C42.5423 18.7177 40.7783 20.5377 38.0343 21.7977C35.7103 22.8617 32.4343 23.5897 29.1583 23.6457C28.8503 23.6457 28.5983 23.5617 28.5983 23.3097C28.5983 23.0857 28.8223 22.9177 29.0183 22.8897C31.7063 22.4697 34.7303 21.7137 36.8583 20.4817C39.0983 19.1937 40.3863 17.6537 40.3863 15.8617C40.3863 14.7417 40.0503 13.9017 39.4063 13.2577C38.7903 12.6977 37.8383 12.3897 36.6903 12.3897C35.4023 12.3897 34.1983 12.8377 32.9943 13.5937C31.5383 14.4897 30.3063 15.6937 29.5783 16.4777C28.7383 17.4297 28.2623 18.0457 28.0943 18.5497C27.9263 19.0817 27.7303 19.2777 27.2823 19.2777C26.9183 19.2777 26.5543 18.9977 26.2183 18.4657C25.9383 18.0177 25.7703 17.4857 25.7703 16.8417C25.7703 15.0777 26.0503 13.2577 26.4423 11.1297C26.6383 10.0937 26.6663 9.44974 26.6663 9.00174C26.6663 8.69374 26.6103 8.30174 26.6103 7.93774C26.6103 7.20974 27.0303 6.70574 27.7023 6.31374C28.3463 5.92174 29.7743 5.33374 31.2303 4.91374ZM52.602 10.3177L52.574 11.2697C55.374 9.16974 57.838 8.04974 60.33 8.04974C62.346 8.04974 63.998 8.91774 64.978 9.78574C66.294 10.9617 66.77 12.5017 66.77 13.7617C66.77 16.3657 65.538 18.2977 63.774 19.6137C61.59 21.2657 59.126 22.1057 56.97 22.4697C56.718 22.5257 56.522 22.5537 56.242 22.5537C56.046 22.5537 55.878 22.4137 55.878 22.2737C55.878 22.0217 55.99 21.9097 56.186 21.8537C58.65 21.0137 60.778 19.9777 62.402 18.4097C63.802 17.0657 64.586 15.3297 64.586 13.4537C64.586 12.4457 64.194 11.2417 63.494 10.5137C62.57 9.56174 61.366 9.05774 59.938 9.05774C57.446 9.05774 54.366 10.8497 52.602 12.4457C52.546 14.7137 52.602 17.0377 52.658 18.9417C52.658 19.5297 52.742 20.3977 52.742 20.9577C52.742 22.9177 52.238 23.8977 51.538 23.8977C51.174 23.8977 50.866 23.6457 50.81 22.8897C50.754 22.2177 50.502 21.7417 50.054 21.1817C49.494 20.4537 48.654 19.4457 47.59 18.4377C47.002 19.2497 46.75 19.6417 46.33 20.1457C46.078 20.4537 45.798 20.6777 45.434 20.6777C45.042 20.6777 44.65 20.3977 44.65 19.8377C44.65 19.3897 44.874 19.0817 45.21 18.6617C46.33 17.4017 47.646 15.8617 48.906 14.2097C49.914 12.8657 50.67 11.8577 51.342 10.6537C51.37 9.92574 51.37 9.16974 51.37 8.52574C50.67 8.74974 49.914 9.08574 49.186 9.44974C48.85 9.61774 48.514 9.81374 48.234 10.0097C48.01 10.2337 47.814 10.3457 47.562 10.3457C47.142 10.3457 46.862 10.1497 46.414 9.67374C45.854 9.05774 45.518 8.44174 45.518 7.93774C45.518 7.54574 45.63 7.37774 45.77 7.37774C45.854 7.37774 45.966 7.48974 46.022 7.54574C46.526 8.18974 46.946 8.55374 47.394 8.55374C47.618 8.55374 47.87 8.52574 48.15 8.44174C49.214 8.16174 50.334 7.71374 51.426 7.26574C51.454 5.83774 51.482 4.38174 51.482 3.17774C51.482 2.56174 51.51 2.25374 51.146 1.88974C50.95 1.69374 50.474 1.52574 49.998 1.41374C49.718 1.35774 49.662 1.35774 49.662 1.21774C49.662 1.10574 49.746 1.02174 49.886 0.937738C50.166 0.769739 50.53 0.68574 50.866 0.68574C51.454 0.68574 51.986 0.909739 52.658 1.32974C53.442 1.86174 53.946 2.33774 53.946 2.81374C53.946 3.03774 53.806 3.31774 53.61 3.48574C53.386 3.65374 53.218 3.96174 53.162 4.35374C53.078 5.02574 52.994 5.75374 52.938 6.59374C53.162 6.45374 53.386 6.42574 53.554 6.42574C53.806 6.42574 53.974 6.50974 54.226 6.67774C54.506 6.84574 54.618 7.06974 54.618 7.32174C54.618 7.54574 54.394 7.76974 54.198 7.99374C53.526 8.72174 53.134 9.42174 52.602 10.3177ZM47.982 17.8777C48.738 18.5497 49.634 19.2217 50.418 19.8097C50.726 20.0337 50.894 20.1177 51.006 20.1177C51.146 20.1177 51.174 20.0057 51.174 19.6697C51.202 17.9897 51.23 15.6937 51.258 13.6497C50.138 15.0497 48.962 16.6177 47.982 17.8777ZM81.8158 6.06174C83.5238 5.89374 85.0638 5.80974 86.4638 5.72574C87.2478 5.69774 87.6678 5.55774 87.8918 5.44574C88.1158 5.33374 88.4238 5.24974 88.7598 5.24974C89.4318 5.24974 90.3838 5.64174 90.9438 5.97774C91.3918 6.25774 91.6438 6.56574 91.6438 7.01374C91.6438 7.43374 91.3358 7.71374 90.9998 7.71374C90.5798 7.71374 90.1038 7.57374 89.5158 7.46174C88.3958 7.26574 87.3318 7.15374 86.1278 7.15374C84.6438 7.15374 83.2998 7.15374 81.7598 7.26574C81.7318 9.30974 81.7038 10.7657 81.7038 12.3617C82.0398 13.2297 82.1798 14.2097 82.1798 15.4417C82.1798 17.8777 80.9758 20.0897 78.8198 21.7137C77.5038 22.6937 75.7398 23.4497 74.0318 23.9537C73.6678 24.0657 73.3318 24.1217 73.1638 24.1217C72.9118 24.1217 72.7718 23.9817 72.7718 23.8137C72.7718 23.6737 72.8558 23.5337 73.1358 23.4217C74.8438 22.7777 76.3558 21.8817 77.6158 20.8177C78.9878 19.6977 79.8558 18.3537 80.2758 16.7297C79.6598 17.2337 79.0158 17.3737 78.3438 17.3737C76.7478 17.3737 75.2918 16.3377 75.2918 13.9297C75.2918 12.0537 76.6918 10.5137 78.4558 10.5137C79.1278 10.5137 79.7718 10.6537 80.2478 10.9617C80.2478 9.75774 80.2198 8.63774 80.1918 7.43374C77.9518 7.68574 75.4038 8.13374 73.2758 8.66574C72.1558 8.94574 71.7078 9.11374 71.3718 9.33774C71.0918 9.53374 70.8118 9.61774 70.5598 9.61774C70.0278 9.61774 69.4958 9.33774 68.9078 8.80574C68.1238 8.07774 67.7598 7.46174 67.7598 6.98574C67.7598 6.64974 67.8438 6.45374 67.9838 6.45374C68.0398 6.45374 68.1238 6.48174 68.1798 6.53774C69.0478 7.37774 69.4678 7.60174 70.2798 7.60174C70.6718 7.60174 71.1478 7.54574 72.0718 7.37774C74.7598 6.92974 77.5878 6.50974 80.1638 6.20174C80.1638 5.16574 80.1638 4.43774 80.1358 3.45774C80.1078 2.89774 80.0798 2.44974 79.9678 2.22574C79.7998 1.94574 79.6318 1.83374 79.1838 1.77774C78.7918 1.72174 78.4838 1.69374 78.3718 1.69374C78.2038 1.69374 78.0918 1.63774 78.0918 1.52574C78.0918 1.35774 78.1478 1.27374 78.3438 1.10574C78.7078 0.769739 79.3518 0.545738 79.7438 0.545738C80.4158 0.545738 81.1158 0.881739 81.7878 1.38574C82.3478 1.80574 82.5718 2.05774 82.5718 2.39374C82.5718 2.72974 82.4318 2.92574 82.2078 3.17774C81.9838 3.40174 81.9278 3.68174 81.8998 3.98974C81.8718 4.52174 81.8438 5.19374 81.8158 6.06174ZM78.3718 11.3537C77.3918 11.3537 76.4958 12.1377 76.4958 13.7337C76.4958 15.0777 77.3638 15.8057 78.4558 15.8057C79.6318 15.8057 80.3598 14.9937 80.3878 13.6497C80.3038 12.4177 79.6878 11.3537 78.3718 11.3537Z" fill="#2E2521"/>
<path d="M15.5171 10.0097L15.3273 9.94649L15.2498 10.1791L15.4932 10.2083L15.5171 10.0097ZM19.6891 11.6897L19.5609 11.8435L19.5671 11.8483L19.6891 11.6897ZM16.3851 22.3017L16.4558 22.4888L16.4567 22.4885L16.3851 22.3017ZM9.94506 23.7577L9.94506 23.9579L9.95173 23.9576L9.94506 23.7577ZM9.88906 23.0017L9.85188 22.8052L9.84984 22.8056L9.88906 23.0017ZM15.8531 20.9857L15.9504 21.1605L15.9511 21.1601L15.8531 20.9857ZM18.3451 12.0817L18.4819 11.9358L18.48 11.9341L18.3451 12.0817ZM15.1251 10.7657L15.1455 10.5668L15.0208 10.554L14.9549 10.6606L15.1251 10.7657ZM9.66506 17.5417L9.52751 17.3965L9.43068 17.4883L9.47817 17.6129L9.66506 17.5417ZM10.2811 18.9417L10.0998 19.0263L10.1022 19.0312L10.2811 18.9417ZM8.76906 19.6697L8.6073 19.7874L8.60906 19.7897L8.76906 19.6697ZM8.29306 18.7457L8.47876 18.6715L8.37807 18.4198L8.16729 18.5902L8.29306 18.7457ZM4.28906 13.3697L4.41169 13.5277L4.41219 13.5273L4.28906 13.3697ZM7.53706 11.4097L7.61698 11.5931L7.7304 11.5436L7.7368 11.4201L7.53706 11.4097ZM7.95706 7.01374L8.15528 7.04042L8.18974 6.78438L7.93323 6.81516L7.95706 7.01374ZM2.66506 5.38974L2.49865 5.50068L2.49934 5.50171L2.66506 5.38974ZM2.97306 4.68974L3.10969 4.54369L3.10404 4.5384L3.098 4.53357L2.97306 4.68974ZM8.18106 5.58574L8.21266 5.78323L8.35821 5.75994L8.37905 5.61402L8.18106 5.58574ZM8.46106 3.59774L8.65977 3.62158L8.66037 3.61435L8.46106 3.59774ZM7.81706 1.63774L7.90657 1.45873L7.89982 1.45567L7.81706 1.63774ZM6.97706 1.41374L7.01631 1.21752L7.00994 1.21646L6.97706 1.41374ZM7.06106 0.797739L7.12442 0.987803L7.13534 0.983434L7.06106 0.797739ZM10.0571 1.27374L10.1658 1.10576L10.1611 1.1029L10.0571 1.27374ZM10.6171 3.20574L10.514 3.03405L10.5061 3.03933L10.6171 3.20574ZM9.80506 5.30574L9.60973 5.26277L9.54067 5.57671L9.85282 5.49995L9.80506 5.30574ZM14.3131 3.76574L14.401 3.94552L14.4079 3.94183L14.3131 3.76574ZM15.7131 3.40174V3.20143L15.702 3.20205L15.7131 3.40174ZM16.2451 4.94174L16.3316 5.12207L16.3345 5.12062L16.2451 4.94174ZM13.2211 5.97774L13.2729 6.17091L13.2733 6.17078L13.2211 5.97774ZM9.44106 6.81774L9.40631 6.62078L9.26946 6.64493L9.24435 6.78161L9.44106 6.81774ZM8.90906 10.8497L8.70926 10.8409L8.69626 11.1333L8.97344 11.0391L8.90906 10.8497ZM13.6411 9.92574L13.6577 10.125L13.7697 10.1157L13.82 10.0152L13.6411 9.92574ZM12.8011 8.38574L12.7223 8.56959L12.7249 8.57067L12.8011 8.38574ZM15.2371 8.91774L15.0929 9.05636L15.0983 9.06201L15.1042 9.06722L15.2371 8.91774ZM15.6011 9.56174L15.7998 9.58383L15.8011 9.57282V9.56174H15.6011ZM8.82506 11.8577L8.75276 11.6713L8.62688 11.7201L8.62508 11.8551L8.82506 11.8577ZM9.18906 16.3377L8.99455 16.3843L9.07458 16.719L9.32577 16.4837L9.18906 16.3377ZM13.3891 10.7937L13.5639 10.8909L13.7409 10.5723L13.3771 10.5941L13.3891 10.7937ZM7.90106 17.4577L8.01913 17.6192L8.12487 17.5418L8.09622 17.414L7.90106 17.4577ZM7.48106 12.5017L7.68103 12.5051L7.68679 12.1653L7.38695 12.3253L7.48106 12.5017ZM15.4932 10.2083C16.867 10.3732 18.4228 10.8949 19.561 11.8434L19.8171 11.5361C18.6033 10.5246 16.9672 9.98232 15.5409 9.81116L15.4932 10.2083ZM19.5671 11.8483C20.2763 12.3938 20.7933 12.9875 21.1342 13.6692C21.4749 14.3507 21.6451 15.131 21.6451 16.0577H22.0451C22.0451 15.0804 21.8652 14.2368 21.4919 13.4903C21.1188 12.744 20.5578 12.1057 19.811 11.5312L19.5671 11.8483ZM21.6451 16.0577C21.6451 18.5688 19.4151 20.9242 16.3134 22.115L16.4567 22.4885C19.627 21.2713 22.0451 18.8106 22.0451 16.0577H21.6451ZM16.3143 22.1147C14.2558 22.8936 11.5901 23.5028 9.9384 23.5579L9.95173 23.9576C11.6601 23.9007 14.3703 23.2779 16.4558 22.4888L16.3143 22.1147ZM9.94506 23.5577C9.81852 23.5577 9.74595 23.5287 9.71044 23.5024C9.68077 23.4805 9.66906 23.4561 9.66906 23.4217H9.26906C9.26906 23.5834 9.34136 23.727 9.47268 23.8241C9.59817 23.9168 9.76361 23.9577 9.94506 23.9577V23.5577ZM9.66906 23.4217C9.66906 23.3552 9.68804 23.3176 9.71548 23.2902C9.74776 23.2579 9.8107 23.2214 9.92829 23.1979L9.84984 22.8056C9.68743 22.8381 9.54037 22.8996 9.43264 23.0073C9.32009 23.1199 9.26906 23.2643 9.26906 23.4217H9.66906ZM9.92624 23.1983C12.0089 22.8042 13.9642 22.2671 15.9504 21.1605L15.7557 20.811C13.8219 21.8884 11.9132 22.4152 9.85188 22.8052L9.92624 23.1983ZM15.9511 21.1601C16.8675 20.6446 17.8473 19.8582 18.6 18.9047C19.3522 17.952 19.8891 16.8174 19.8891 15.6097H19.4891C19.4891 16.6981 19.004 17.7475 18.2861 18.6568C17.5689 19.5653 16.6307 20.3189 15.755 20.8114L15.9511 21.1601ZM19.8891 15.6097C19.8891 14.7115 19.7751 14.0121 19.5386 13.4246C19.3012 12.8349 18.9456 12.3706 18.4819 11.9358L18.2083 12.2276C18.6405 12.6329 18.9569 13.0506 19.1675 13.5739C19.379 14.0993 19.4891 14.744 19.4891 15.6097H19.8891ZM18.48 11.9341C17.4561 10.998 16.2601 10.6811 15.1455 10.5668L15.1047 10.9647C16.174 11.0744 17.274 11.3735 18.2101 12.2293L18.48 11.9341ZM14.9549 10.6606C13.423 13.1396 11.6416 15.3937 9.52751 17.3965L9.80261 17.6869C11.9445 15.6578 13.7471 13.3759 15.2952 10.8709L14.9549 10.6606ZM9.47817 17.6129C9.70545 18.2096 9.9056 18.6101 10.0998 19.0263L10.4623 18.8572C10.2645 18.4334 10.0727 18.0499 9.85196 17.4705L9.47817 17.6129ZM10.1022 19.0312C10.2019 19.2307 10.2771 19.5363 10.2771 19.7257H10.6771C10.6771 19.4672 10.5842 19.1008 10.4599 18.8523L10.1022 19.0312ZM10.2771 19.7257C10.2771 19.9357 10.1029 20.1697 9.72106 20.1697V20.5697C10.2913 20.5697 10.6771 20.1878 10.6771 19.7257H10.2771ZM9.72106 20.1697C9.49435 20.1697 9.26855 20.0024 8.92906 19.5497L8.60906 19.7897C8.94158 20.2331 9.27578 20.5697 9.72106 20.5697V20.1697ZM8.93081 19.5521C8.72287 19.2662 8.59058 18.951 8.47876 18.6715L8.10737 18.82C8.21954 19.1005 8.36726 19.4573 8.60732 19.7874L8.93081 19.5521ZM8.16729 18.5902C7.22402 19.3532 6.23465 20.01 5.32178 20.475C4.40337 20.9429 3.58347 21.2057 2.97306 21.2057V21.6057C3.67865 21.6057 4.56675 21.3086 5.50335 20.8314C6.44547 20.3515 7.4581 19.6783 8.41884 18.9012L8.16729 18.5902ZM2.97306 21.2057C2.2676 21.2057 1.82116 20.9672 1.54375 20.5993C1.25873 20.2214 1.12906 19.6766 1.12906 19.0257H0.729063C0.729063 19.7189 0.865396 20.3641 1.22438 20.8402C1.59097 21.3263 2.16652 21.6057 2.97306 21.6057V21.2057ZM1.12906 19.0257C1.12906 17.1253 2.55968 14.9651 4.41169 13.5277L4.16644 13.2117C2.26644 14.6864 0.729063 16.9502 0.729063 19.0257H1.12906ZM4.41219 13.5273C5.29705 12.836 6.5427 12.0614 7.61698 11.5931L7.45715 11.2264C6.34743 11.7101 5.07307 12.5034 4.16593 13.2121L4.41219 13.5273ZM7.7368 11.4201C7.82045 9.80279 7.95982 8.49239 8.15528 7.04042L7.75885 6.98706C7.56231 8.44709 7.42168 9.76869 7.33733 11.3994L7.7368 11.4201ZM7.93323 6.81516C7.24237 6.89807 6.55044 6.92574 6.10906 6.92574V7.32574C6.56369 7.32574 7.27176 7.29741 7.98089 7.21232L7.93323 6.81516ZM6.10906 6.92574C5.2543 6.92574 4.60277 6.7564 4.08453 6.47104C3.56609 6.18557 3.16795 5.77678 2.83078 5.27777L2.49934 5.50171C2.86217 6.0387 3.30404 6.49791 3.89159 6.82144C4.47935 7.14507 5.19982 7.32574 6.10906 7.32574V6.92574ZM2.83147 5.2788C2.75628 5.16601 2.69274 5.03911 2.64846 4.92525C2.60167 4.80493 2.58506 4.72136 2.58506 4.68974H2.18506C2.18506 4.79812 2.22445 4.93855 2.27566 5.07023C2.32938 5.20837 2.40584 5.36146 2.49865 5.50068L2.83147 5.2788ZM2.58506 4.68974C2.58506 4.69578 2.58343 4.69997 2.58276 4.70131C2.58233 4.70217 2.58302 4.70052 2.5861 4.69773C2.58923 4.69488 2.59247 4.69301 2.59422 4.69226C2.59493 4.69195 2.59449 4.69222 2.59272 4.69262C2.59101 4.69301 2.58707 4.69374 2.58106 4.69374V4.29374C2.47889 4.29374 2.38383 4.34102 2.31703 4.40175C2.24755 4.46492 2.18506 4.56438 2.18506 4.68974H2.58506ZM2.58106 4.69374C2.63949 4.69374 2.69727 4.72523 2.84812 4.84591L3.098 4.53357C2.96885 4.43025 2.80264 4.29374 2.58106 4.29374V4.69374ZM2.83643 4.83579C3.27795 5.24883 3.66406 5.54183 4.14357 5.72683C4.62135 5.91117 5.17465 5.98174 5.94106 5.98174V5.58174C5.19547 5.58174 4.69878 5.51231 4.28756 5.35365C3.87807 5.19565 3.53617 4.94265 3.10969 4.54369L2.83643 4.83579ZM5.94106 5.98174C6.68265 5.98174 7.50567 5.89635 8.21266 5.78323L8.14947 5.38825C7.45646 5.49913 6.65548 5.58174 5.94106 5.58174V5.98174ZM8.37905 5.61402C8.49038 4.83477 8.5753 4.32443 8.65964 3.62157L8.26249 3.57391C8.17883 4.27105 8.09575 4.76871 7.98307 5.55745L8.37905 5.61402ZM8.66037 3.61435C8.68642 3.30174 8.74506 2.90746 8.74506 2.61774H8.34506C8.34506 2.88802 8.2917 3.22174 8.26175 3.58113L8.66037 3.61435ZM8.74506 2.61774C8.74506 2.32032 8.70119 2.09024 8.54724 1.8978C8.40358 1.71823 8.18075 1.59598 7.90651 1.45885L7.72762 1.81663C8.01337 1.9595 8.15455 2.04725 8.23489 2.14768C8.30494 2.23524 8.34506 2.35516 8.34506 2.61774H8.74506ZM7.89982 1.45567C7.5648 1.30338 7.28059 1.27048 7.01629 1.21762L6.93784 1.60986C7.23354 1.669 7.45333 1.6921 7.7343 1.81981L7.89982 1.45567ZM7.00994 1.21646C6.96079 1.20827 6.93081 1.18965 6.91548 1.17432C6.90147 1.1603 6.89706 1.14723 6.89706 1.13374H6.49706C6.49706 1.39893 6.70957 1.57192 6.94418 1.61102L7.00994 1.21646ZM6.89706 1.13374C6.89706 1.14605 6.89283 1.14741 6.90004 1.13585C6.90726 1.12426 6.92158 1.10703 6.94559 1.08663C6.99434 1.0452 7.0623 1.00814 7.12431 0.987475L6.99782 0.608002C6.89182 0.643334 6.77779 0.704282 6.68653 0.781852C6.60331 0.852591 6.49706 0.973546 6.49706 1.13374H6.89706ZM7.13534 0.983434C7.51525 0.831472 7.92694 0.829739 8.18106 0.829739V0.429739C7.93119 0.429739 7.44688 0.428006 6.98678 0.612043L7.13534 0.983434ZM8.18106 0.829739C8.66126 0.829739 9.32432 1.06186 9.95307 1.44458L10.1611 1.1029C9.50181 0.701621 8.76486 0.429739 8.18106 0.429739V0.829739ZM9.94841 1.44165C10.1783 1.59037 10.4068 1.76798 10.5757 1.95915C10.747 2.15314 10.8371 2.3383 10.8371 2.50574H11.2371C11.2371 2.19718 11.0751 1.92034 10.8755 1.69433C10.6733 1.4655 10.4119 1.26511 10.1657 1.10582L9.94841 1.44165ZM10.8371 2.50574C10.8371 2.71049 10.7383 2.89974 10.5142 3.03424L10.72 3.37724C11.0558 3.17574 11.2371 2.86098 11.2371 2.50574H10.8371ZM10.5061 3.03933C10.2894 3.18383 10.1435 3.40235 10.0136 3.74362C9.8852 4.08123 9.76349 4.56386 9.60973 5.26277L10.0004 5.34871C10.1546 4.64761 10.2709 4.19225 10.3875 3.88585C10.5027 3.58313 10.6087 3.45165 10.728 3.37215L10.5061 3.03933ZM9.85282 5.49995C11.5679 5.07822 13.0671 4.59813 14.401 3.94538L14.2252 3.5861C12.927 4.22135 11.4582 4.69326 9.75731 5.11152L9.85282 5.49995ZM14.4079 3.94183C14.7416 3.76217 15.2439 3.62811 15.7242 3.60143L15.702 3.20205C15.1742 3.23137 14.6126 3.37731 14.2182 3.58964L14.4079 3.94183ZM15.7131 3.60174C15.9477 3.60174 16.1815 3.66417 16.3503 3.77288C16.5158 3.87949 16.6051 4.01897 16.6051 4.18574H17.0051C17.0051 3.84851 16.8143 3.59599 16.5669 3.4366C16.3226 3.27931 16.0105 3.20174 15.7131 3.20174V3.60174ZM16.6051 4.18574C16.6051 4.33383 16.572 4.42832 16.5132 4.50525C16.4495 4.58854 16.3414 4.66997 16.1556 4.76285L16.3345 5.12062C16.5407 5.01751 16.7126 4.90294 16.8309 4.74823C16.9541 4.58715 17.0051 4.40164 17.0051 4.18574H16.6051ZM16.1585 4.76143C15.4749 5.08957 14.5086 5.42182 13.1688 5.78469L13.2733 6.17078C14.6215 5.80566 15.6152 5.4659 16.3316 5.12204L16.1585 4.76143ZM13.1692 5.78457C12.0262 6.09125 10.8279 6.36992 9.40631 6.62078L9.47582 7.0147C10.9102 6.76156 12.12 6.48023 13.2729 6.17091L13.1692 5.78457ZM9.24435 6.78161C8.99214 8.15475 8.76591 9.56621 8.70926 10.8409L9.10887 10.8586C9.16422 9.61327 9.38598 8.22473 9.63777 6.85387L9.24435 6.78161ZM8.97344 11.0391C10.3544 10.5696 11.9897 10.264 13.6577 10.125L13.6245 9.72643C11.9324 9.86744 10.2637 10.1779 8.84468 10.6604L8.97344 11.0391ZM13.82 10.0152C13.8962 9.86265 13.9251 9.6304 13.9251 9.47774H13.5251C13.5251 9.60508 13.4979 9.76483 13.4622 9.8363L13.82 10.0152ZM13.9251 9.47774C13.9251 8.84862 13.3766 8.40644 12.8772 8.2008L12.7249 8.57067C13.1775 8.75704 13.5251 9.09886 13.5251 9.47774H13.9251ZM12.8798 8.20191C12.8044 8.16956 12.7717 8.13856 12.7588 8.12217C12.7471 8.10722 12.7491 8.10143 12.7491 8.10574H12.3491C12.3491 8.29457 12.4786 8.46514 12.7223 8.56957L12.8798 8.20191ZM12.7491 8.10574C12.7491 8.15823 12.7141 8.13855 12.8077 8.09327C12.8835 8.05656 13.0065 8.02574 13.1651 8.02574V7.62574C12.9596 7.62574 12.7746 7.66492 12.6335 7.73321C12.51 7.79293 12.3491 7.91325 12.3491 8.10574H12.7491ZM13.1651 8.02574C13.7884 8.02574 14.4118 8.34799 15.0929 9.05636L15.3812 8.77912C14.6624 8.03149 13.9417 7.62574 13.1651 7.62574V8.02574ZM15.1042 9.06722C15.2078 9.15935 15.2844 9.27058 15.3347 9.37118C15.3597 9.42121 15.3772 9.46654 15.3881 9.50283C15.3935 9.52094 15.397 9.53571 15.399 9.54683C15.4011 9.5586 15.4011 9.56318 15.4011 9.56174H15.8011C15.8011 9.46042 15.7576 9.32262 15.6924 9.1923C15.6238 9.0549 15.5183 8.90013 15.3699 8.76826L15.1042 9.06722ZM15.4023 9.53965C15.3752 9.78311 15.3494 9.88022 15.3273 9.94649L15.7068 10.073C15.7407 9.97126 15.7709 9.84437 15.7998 9.58383L15.4023 9.53965ZM8.62508 11.8551C8.59698 13.9624 8.68103 15.0732 8.99455 16.3843L9.38358 16.2912C9.0811 15.0263 8.99714 13.953 9.02505 11.8604L8.62508 11.8551ZM9.32577 16.4837C11.1099 14.8129 12.5777 12.666 13.5639 10.8909L13.2142 10.6966C12.2404 12.4495 10.7963 14.5586 9.05235 16.1918L9.32577 16.4837ZM13.3771 10.5941C11.9517 10.6796 10.1391 11.1337 8.75276 11.6713L8.89737 12.0442C10.255 11.5178 12.0264 11.0759 13.401 10.9934L13.3771 10.5941ZM8.09622 17.414C7.73705 15.8115 7.65317 14.149 7.68103 12.5051L7.28109 12.4984C7.25295 14.1585 7.33708 15.856 7.7059 17.5015L8.09622 17.414ZM7.38695 12.3253C6.31772 12.8955 5.06721 13.8264 4.08151 14.9118C3.10114 15.9912 2.35306 17.2564 2.35306 18.4937H2.75306C2.75306 17.4071 3.41899 16.2362 4.37762 15.1807C5.33092 14.131 6.54441 13.228 7.57518 12.6782L7.38695 12.3253ZM2.35306 18.4937C2.35306 18.9541 2.42331 19.3 2.5896 19.5337C2.76774 19.784 3.02823 19.8697 3.30906 19.8697V19.4697C3.11389 19.4697 2.99639 19.4154 2.91552 19.3018C2.82282 19.1715 2.75306 18.9294 2.75306 18.4937H2.35306ZM3.30906 19.8697C4.75712 19.8697 6.15352 18.9836 8.01913 17.6192L7.783 17.2963C5.89661 18.6759 4.605 19.4697 3.30906 19.4697V19.8697ZM31.2303 4.91374L31.2857 5.1059L31.7922 4.9598L31.3163 4.73317L31.2303 4.91374ZM29.6063 3.59774L29.7524 3.46077L29.7449 3.45357L29.6063 3.59774ZM29.0183 0.993739L28.8434 1.0909L28.8458 1.09498L29.0183 0.993739ZM32.5183 3.56974L32.5867 3.38178L32.5858 3.38147L32.5183 3.56974ZM33.1343 6.31374L33.2047 6.12613L33.1931 6.12258L33.1343 6.31374ZM28.2623 6.95774L28.1849 6.77332L28.1821 6.77451L28.2623 6.95774ZM27.7863 8.46974L27.9705 8.39082L27.9652 8.3803L27.7863 8.46974ZM27.8143 11.6337L28.0117 11.6659L28.0122 11.6628L27.8143 11.6337ZM27.4503 15.6657L27.2503 15.6617V15.6657H27.4503ZM27.9263 15.6937L27.8045 15.5349L27.7983 15.5401L27.9263 15.6937ZM31.6783 13.1737L31.7749 13.3489L31.7775 13.3474L31.6783 13.1737ZM41.2263 13.0897L41.0828 13.229L41.0849 13.2312L41.2263 13.0897ZM38.0343 21.7977L38.1176 21.9796L38.1178 21.9795L38.0343 21.7977ZM29.1583 23.6457V23.8458L29.1617 23.8457L29.1583 23.6457ZM29.0183 22.8897L29.0466 23.0877L29.0492 23.0873L29.0183 22.8897ZM36.8583 20.4817L36.7586 20.3084L36.7581 20.3087L36.8583 20.4817ZM39.4063 13.2577L39.5479 13.1162L39.5408 13.1098L39.4063 13.2577ZM32.9943 13.5937L33.0991 13.7641L33.1007 13.7631L32.9943 13.5937ZM29.5783 16.4777L29.4317 16.3416L29.4283 16.3454L29.5783 16.4777ZM28.0943 18.5497L27.9046 18.4865L27.9036 18.4895L28.0943 18.5497ZM26.2183 18.4657L26.0487 18.5717L26.0492 18.5725L26.2183 18.4657ZM26.4423 11.1297L26.2458 11.0926L26.2456 11.0935L26.4423 11.1297ZM27.7023 6.31374L27.8031 6.48653L27.8063 6.48458L27.7023 6.31374ZM31.3163 4.73317C30.7653 4.47079 30.1714 3.90811 29.7522 3.46095L29.4604 3.73453C29.8812 4.18337 30.5193 4.79669 31.1443 5.09431L31.3163 4.73317ZM29.7449 3.45357C29.0531 2.78836 28.6303 1.74726 28.6303 1.02174H28.2303C28.2303 1.86422 28.7035 3.00712 29.4677 3.74191L29.7449 3.45357ZM28.6303 1.02174C28.6303 0.922182 28.6528 0.888799 28.6565 0.884179C28.6579 0.882405 28.6571 0.88385 28.6541 0.885187C28.6517 0.886264 28.6513 0.88574 28.6543 0.88574V0.48574C28.5452 0.48574 28.4286 0.528694 28.3441 0.6343C28.2638 0.73468 28.2303 0.869297 28.2303 1.02174H28.6303ZM28.6543 0.88574C28.6908 0.88574 28.6984 0.890919 28.7102 0.900463C28.7348 0.920468 28.7756 0.968686 28.8435 1.09087L29.1931 0.896611C29.121 0.766793 29.0498 0.661011 28.9624 0.590017C28.8622 0.508561 28.7578 0.48574 28.6543 0.48574V0.88574ZM28.8458 1.09498C29.6359 2.44105 30.9469 3.21885 32.4508 3.75801L32.5858 3.38147C31.1218 2.85663 29.9127 2.12243 29.1908 0.892499L28.8458 1.09498ZM32.45 3.7577C33.0694 3.98293 33.6443 4.2226 34.0289 4.60716L34.3117 4.32432C33.8563 3.86888 33.1993 3.60455 32.5867 3.38178L32.45 3.7577ZM34.0289 4.60716C34.268 4.8463 34.398 5.04277 34.4695 5.20952C34.54 5.37415 34.5583 5.52075 34.5583 5.66974H34.9583C34.9583 5.48273 34.9346 5.27933 34.8371 5.05196C34.7406 4.82671 34.5766 4.58918 34.3117 4.32432L34.0289 4.60716ZM34.5583 5.66974C34.5583 6.04924 34.2704 6.25374 34.0023 6.25374V6.65374C34.4622 6.65374 34.9583 6.29824 34.9583 5.66974H34.5583ZM34.0023 6.25374C33.6863 6.25374 33.4026 6.20075 33.2045 6.12647L33.0641 6.50101C33.314 6.59473 33.6463 6.65374 34.0023 6.65374V6.25374ZM33.1931 6.12258C32.806 6.00347 32.4495 5.94574 31.7903 5.94574V6.34574C32.4191 6.34574 32.7346 6.40001 33.0755 6.5049L33.1931 6.12258ZM31.7903 5.94574C31.0618 5.94574 29.6075 6.17582 28.1849 6.77334L28.3398 7.14214C29.7171 6.56366 31.1188 6.34574 31.7903 6.34574V5.94574ZM28.1821 6.77451C27.715 6.97889 27.3623 7.3088 27.3623 7.71374H27.7623C27.7623 7.55868 27.9136 7.32859 28.3425 7.14097L28.1821 6.77451ZM27.3623 7.71374C27.3623 7.98588 27.492 8.32839 27.6074 8.55918L27.9652 8.3803C27.8566 8.16309 27.7623 7.8896 27.7623 7.71374H27.3623ZM27.6025 8.54852C27.7567 8.90831 27.8103 9.29953 27.8103 9.67374H28.2103C28.2103 9.26395 28.1519 8.81517 27.9701 8.39096L27.6025 8.54852ZM27.8103 9.67374C27.8103 9.96711 27.756 10.6558 27.6164 11.6046L28.0122 11.6628C28.1526 10.7077 28.2103 9.99637 28.2103 9.67374H27.8103ZM27.6169 11.6016C27.4194 12.8147 27.2786 14.2801 27.2504 15.6617L27.6503 15.6698C27.6781 14.3074 27.8172 12.8608 28.0117 11.6659L27.6169 11.6016ZM27.2503 15.6657C27.2503 15.7301 27.2567 15.8252 27.3068 15.9086C27.369 16.0122 27.4744 16.0617 27.5903 16.0617V15.6617C27.5872 15.6617 27.5978 15.6612 27.614 15.6697C27.6314 15.6788 27.6433 15.6921 27.6498 15.7028C27.6551 15.7117 27.6546 15.7152 27.6531 15.7072C27.6517 15.6994 27.6503 15.6862 27.6503 15.6657H27.2503ZM27.5903 16.0617C27.7433 16.0617 27.8722 15.9992 28.0543 15.8474L27.7983 15.5401C27.7202 15.6051 27.6724 15.6349 27.6422 15.649C27.6177 15.6605 27.6047 15.6617 27.5903 15.6617V16.0617ZM28.048 15.8525C28.8871 15.2092 30.165 14.2371 31.7749 13.3489L31.5817 12.9986C29.9436 13.9024 28.6456 14.8903 27.8046 15.535L28.048 15.8525ZM31.7775 13.3474C33.7225 12.236 35.1712 11.7217 36.8583 11.7217V11.3217C35.0734 11.3217 33.5542 11.8715 31.5791 13.0001L31.7775 13.3474ZM36.8583 11.7217C38.7498 11.7217 40.205 12.3246 41.0828 13.229L41.3698 12.9504C40.3997 11.9509 38.8308 11.3217 36.8583 11.3217V11.7217ZM41.0849 13.2312C41.9447 14.091 42.3423 15.0766 42.3423 16.1697H42.7423C42.7423 14.9669 42.2999 13.8805 41.3677 12.9483L41.0849 13.2312ZM42.3423 16.1697C42.3423 18.6028 40.6648 20.3698 37.9509 21.616L38.1178 21.9795C40.8918 20.7057 42.7423 18.8327 42.7423 16.1697H42.3423ZM37.9511 21.6159C35.6556 22.6668 32.4074 23.3902 29.1549 23.4458L29.1617 23.8457C32.4613 23.7893 35.7651 23.0566 38.1176 21.9796L37.9511 21.6159ZM29.1583 23.4457C29.0164 23.4457 28.9143 23.4254 28.8547 23.3946C28.8275 23.3805 28.8154 23.3675 28.8097 23.3588C28.8048 23.3513 28.7983 23.3378 28.7983 23.3097H28.3983C28.3983 23.4077 28.4234 23.4992 28.4753 23.5783C28.5265 23.6562 28.5966 23.7114 28.6709 23.7499C28.8144 23.8241 28.9922 23.8457 29.1583 23.8457V23.4457ZM28.7983 23.3097C28.7983 23.2682 28.8188 23.2203 28.8697 23.1739C28.9214 23.1267 28.9896 23.0959 29.0466 23.0877L28.99 22.6917C28.851 22.7116 28.7092 22.7788 28.6 22.8785C28.4898 22.9791 28.3983 23.1273 28.3983 23.3097H28.7983ZM29.0492 23.0873C31.7442 22.6662 34.7979 21.9057 36.9585 20.6548L36.7581 20.3087C34.6628 21.5218 31.6684 22.2732 28.9874 22.6921L29.0492 23.0873ZM36.958 20.6551C39.2186 19.3553 40.5863 17.7629 40.5863 15.8617H40.1863C40.1863 17.5446 38.978 19.0322 36.7586 20.3084L36.958 20.6551ZM40.5863 15.8617C40.5863 14.697 40.2347 13.8033 39.5477 13.1163L39.2649 13.3992C39.8659 14.0002 40.1863 14.7865 40.1863 15.8617H40.5863ZM39.5408 13.1098C38.8766 12.5059 37.87 12.1897 36.6903 12.1897V12.5897C37.8066 12.5897 38.7041 12.8896 39.2718 13.4057L39.5408 13.1098ZM36.6903 12.1897C35.3532 12.1897 34.1125 12.6555 32.888 13.4244L33.1007 13.7631C34.2842 13.02 35.4514 12.5897 36.6903 12.5897V12.1897ZM32.8895 13.4234C31.4112 14.3331 30.165 15.552 29.4318 16.3417L29.7249 16.6138C30.4477 15.8355 31.6654 14.6464 33.0991 13.7641L32.8895 13.4234ZM29.4283 16.3454C29.0075 16.8224 28.6734 17.2201 28.4227 17.5639C28.1727 17.9067 27.9981 18.206 27.9046 18.4865L28.284 18.613C28.3586 18.3894 28.5059 18.1288 28.7459 17.7996C28.9852 17.4714 29.3092 17.0851 29.7283 16.6101L29.4283 16.3454ZM27.9036 18.4895C27.8222 18.7474 27.744 18.8871 27.6582 18.9658C27.5813 19.0363 27.4759 19.0777 27.2823 19.0777V19.4777C27.5368 19.4777 27.7533 19.4212 27.9285 19.2607C28.0946 19.1084 28.1985 18.8841 28.285 18.61L27.9036 18.4895ZM27.2823 19.0777C27.026 19.0777 26.7142 18.8763 26.3874 18.3589L26.0492 18.5725C26.3944 19.1191 26.8106 19.4777 27.2823 19.4777V19.0777ZM26.3879 18.3597C26.1279 17.9438 25.9703 17.4485 25.9703 16.8417H25.5703C25.5703 17.5229 25.7487 18.0917 26.0487 18.5717L26.3879 18.3597ZM25.9703 16.8417C25.9703 15.0974 26.2472 13.2929 26.639 11.166L26.2456 11.0935C25.8534 13.2226 25.5703 15.0581 25.5703 16.8417H25.9703ZM26.6388 11.1669C26.8373 10.1179 26.8663 9.46144 26.8663 9.00174H26.4663C26.4663 9.43804 26.4393 10.0696 26.2458 11.0926L26.6388 11.1669ZM26.8663 9.00174C26.8663 8.83835 26.8515 8.65465 26.8377 8.4754C26.8237 8.29253 26.8103 8.11092 26.8103 7.93774H26.4103C26.4103 8.12856 26.425 8.32495 26.4389 8.50608C26.4531 8.69083 26.4663 8.85713 26.4663 9.00174H26.8663ZM26.8103 7.93774C26.8103 7.30799 27.1648 6.85882 27.8031 6.4865L27.6015 6.14098C26.8958 6.55266 26.4103 7.11149 26.4103 7.93774H26.8103ZM27.8063 6.48458C28.4286 6.10579 29.8374 5.52369 31.2857 5.1059L31.1749 4.72157C29.7112 5.1438 28.264 5.73769 27.5983 6.1429L27.8063 6.48458ZM52.602 10.3177L52.43 10.2156L52.4036 10.2601L52.4021 10.3119L52.602 10.3177ZM52.574 11.2697L52.3741 11.2639L52.3619 11.6788L52.694 11.4297L52.574 11.2697ZM64.978 9.78574L65.1112 9.63661L65.1106 9.63602L64.978 9.78574ZM63.774 19.6137L63.6544 19.4534L63.6533 19.4542L63.774 19.6137ZM56.97 22.4697L56.9366 22.2723L56.9266 22.2745L56.97 22.4697ZM56.186 21.8537L56.241 22.0463L56.2505 22.043L56.186 21.8537ZM62.402 18.4097L62.2635 18.2655L62.2631 18.2659L62.402 18.4097ZM63.494 10.5137L63.6381 10.3751L63.6375 10.3744L63.494 10.5137ZM52.602 12.4457L52.4678 12.2974L52.4041 12.355L52.402 12.4408L52.602 12.4457ZM52.658 18.9417H52.8581L52.8579 18.9359L52.658 18.9417ZM50.81 22.8897L51.0094 22.875L51.0093 22.8731L50.81 22.8897ZM50.054 21.1817L49.8954 21.3037L49.8978 21.3067L50.054 21.1817ZM47.59 18.4377L47.7275 18.2925L47.5618 18.1356L47.428 18.3204L47.59 18.4377ZM46.33 20.1457L46.1763 20.0177L46.1752 20.0191L46.33 20.1457ZM45.21 18.6617L45.0603 18.5287L45.0538 18.5368L45.21 18.6617ZM48.906 14.2097L49.065 14.331L49.066 14.3297L48.906 14.2097ZM51.342 10.6537L51.5166 10.7512L51.54 10.7093L51.5418 10.6614L51.342 10.6537ZM51.37 8.52574H51.57V8.25175L51.309 8.33525L51.37 8.52574ZM49.186 9.44974L49.2754 9.62862L49.186 9.44974ZM48.234 10.0097L48.1193 9.84589L48.1049 9.85594L48.0925 9.86832L48.234 10.0097ZM46.414 9.67374L46.266 9.80829L46.2683 9.81081L46.414 9.67374ZM46.022 7.54574L46.1795 7.42248L46.172 7.41291L46.1634 7.40432L46.022 7.54574ZM48.15 8.44174L48.099 8.24821L48.0925 8.25017L48.15 8.44174ZM51.426 7.26574L51.5019 7.45077L51.6234 7.40094L51.6259 7.26966L51.426 7.26574ZM51.146 1.88974L51.2874 1.74832L51.146 1.88974ZM49.998 1.41374L50.0438 1.21895L50.0372 1.21762L49.998 1.41374ZM49.886 0.937738L49.7831 0.76624V0.76624L49.886 0.937738ZM52.658 1.32974L52.7703 1.16413L52.764 1.16014L52.658 1.32974ZM53.61 3.48574L53.7302 3.64608L53.7401 3.63759L53.61 3.48574ZM53.162 4.35374L52.9639 4.32545L52.9635 4.32893L53.162 4.35374ZM52.938 6.59374L52.7384 6.58043L52.7124 6.97057L53.044 6.76334L52.938 6.59374ZM54.226 6.67774L54.1149 6.84434L54.1231 6.84924L54.226 6.67774ZM54.198 7.99374L54.345 8.12944L54.3485 8.12544L54.198 7.99374ZM47.982 17.8777L47.8241 17.755L47.7091 17.9028L47.8491 18.0272L47.982 17.8777ZM50.418 19.8097L50.298 19.9698L50.3003 19.9715L50.418 19.8097ZM51.174 19.6697L50.974 19.6664V19.6697H51.174ZM51.258 13.6497L51.458 13.6525L51.4659 13.0696L51.1018 13.5248L51.258 13.6497ZM52.4021 10.3119L52.3741 11.2639L52.7739 11.2756L52.8019 10.3236L52.4021 10.3119ZM52.694 11.4297C55.4794 9.34064 57.901 8.24974 60.33 8.24974V7.84974C57.775 7.84974 55.2685 8.99884 52.454 11.1097L52.694 11.4297ZM60.33 8.24974C62.289 8.24974 63.8954 9.09406 64.8454 9.93546L65.1106 9.63602C64.1005 8.74142 62.4029 7.84974 60.33 7.84974V8.24974ZM64.8447 9.93487C66.1118 11.0672 66.57 12.5494 66.57 13.7617H66.97C66.97 12.4541 66.4761 10.8563 65.1112 9.63661L64.8447 9.93487ZM66.57 13.7617C66.57 16.2932 65.3758 18.1692 63.6544 19.4534L63.8936 19.774C65.7001 18.4263 66.97 16.4383 66.97 13.7617H66.57ZM63.6533 19.4542C61.5008 21.0825 59.0689 21.9125 56.9367 22.2725L57.0033 22.667C59.183 22.2989 61.6792 21.449 63.8946 19.7732L63.6533 19.4542ZM56.9266 22.2745C56.6857 22.328 56.5045 22.3537 56.242 22.3537V22.7537C56.5394 22.7537 56.7502 22.7235 57.0134 22.665L56.9266 22.2745ZM56.242 22.3537C56.1905 22.3537 56.1429 22.3349 56.1104 22.3093C56.0747 22.2811 56.078 22.2635 56.078 22.2737H55.678C55.678 22.424 55.7653 22.5464 55.8625 22.6232C55.9631 22.7026 56.0974 22.7537 56.242 22.7537V22.3537ZM56.078 22.2737C56.078 22.1769 56.0992 22.1347 56.1154 22.1142C56.1325 22.0926 56.1655 22.0676 56.2409 22.046L56.131 21.6614C56.0104 21.6959 55.8895 21.7549 55.8015 21.8663C55.7127 21.9788 55.678 22.1186 55.678 22.2737H56.078ZM56.2505 22.043C58.7262 21.199 60.8862 20.1513 62.5409 18.5536L62.2631 18.2659C60.6697 19.8042 58.5737 20.8284 56.1214 21.6644L56.2505 22.043ZM62.5405 18.554C63.9767 17.1753 64.786 15.3883 64.786 13.4537H64.386C64.386 15.2711 63.6273 16.9562 62.2635 18.2655L62.5405 18.554ZM64.786 13.4537C64.786 12.4058 64.3814 11.1481 63.6381 10.3751L63.3498 10.6524C64.0066 11.3354 64.386 12.4857 64.386 13.4537H64.786ZM63.6375 10.3744C62.6739 9.38168 61.4173 8.85774 59.938 8.85774V9.25774C61.3147 9.25774 62.466 9.7418 63.3504 10.653L63.6375 10.3744ZM59.938 8.85774C58.6486 8.85774 57.2237 9.31978 55.9079 9.97416C54.5896 10.6298 53.3634 11.4871 52.4678 12.2974L52.7362 12.594C53.6045 11.8084 54.8004 10.9717 56.086 10.3323C57.3742 9.6917 58.7353 9.25774 59.938 9.25774V8.85774ZM52.402 12.4408C52.3459 14.7146 52.402 17.0433 52.4581 18.9476L52.8579 18.9359C52.8019 17.0322 52.7461 14.7128 52.8019 12.4507L52.402 12.4408ZM52.458 18.9417C52.458 19.2428 52.4794 19.6131 52.5003 19.9719C52.5214 20.3345 52.542 20.6849 52.542 20.9577H52.942C52.942 20.6706 52.9205 20.307 52.8996 19.9486C52.8785 19.5864 52.858 19.2287 52.858 18.9417H52.458ZM52.542 20.9577C52.542 21.925 52.417 22.6287 52.2191 23.0829C52.0209 23.5378 51.7739 23.6977 51.538 23.6977V24.0977C52.002 24.0977 52.3571 23.7677 52.5858 23.2426C52.815 22.7167 52.942 21.9505 52.942 20.9577H52.542ZM51.538 23.6977C51.4071 23.6977 51.2993 23.6552 51.213 23.5502C51.1201 23.4373 51.0359 23.2319 51.0094 22.875L50.6105 22.9045C50.6401 23.3036 50.7379 23.6022 50.904 23.8043C51.0767 24.0143 51.3049 24.0977 51.538 24.0977V23.6977ZM51.0093 22.8731C50.9488 22.148 50.6728 21.6352 50.2101 21.0568L49.8978 21.3067C50.3311 21.8483 50.5591 22.2875 50.6107 22.9063L51.0093 22.8731ZM50.2125 21.0598C49.6482 20.3263 48.8013 19.3098 47.7275 18.2925L47.4524 18.5829C48.5067 19.5817 49.3397 20.5812 49.8954 21.3037L50.2125 21.0598ZM47.428 18.3204C46.8338 19.141 46.5905 19.5206 46.1763 20.0177L46.4836 20.2738C46.9094 19.7628 47.1701 19.3585 47.752 18.555L47.428 18.3204ZM46.1752 20.0191C45.9339 20.314 45.7052 20.4777 45.434 20.4777V20.8777C45.8907 20.8777 46.222 20.5935 46.4848 20.2724L46.1752 20.0191ZM45.434 20.4777C45.2845 20.4777 45.1393 20.4243 45.0329 20.3229C44.9291 20.224 44.85 20.0681 44.85 19.8377H44.45C44.45 20.1674 44.5669 20.4314 44.757 20.6126C44.9446 20.7912 45.1915 20.8777 45.434 20.8777V20.4777ZM44.85 19.8377C44.85 19.4681 45.0268 19.2108 45.3661 18.7867L45.0538 18.5368C44.7211 18.9526 44.45 19.3114 44.45 19.8377H44.85ZM45.3595 18.7946C46.4813 17.5325 47.8009 15.9884 49.065 14.331L48.7469 14.0884C47.4911 15.735 46.1786 17.271 45.0605 18.5289L45.3595 18.7946ZM49.066 14.3297C50.0725 12.9877 50.8369 11.969 51.5166 10.7512L51.1673 10.5563C50.503 11.7465 49.7554 12.7438 48.746 14.0897L49.066 14.3297ZM51.5418 10.6614C51.57 9.92896 51.57 9.16914 51.57 8.52574H51.17C51.17 9.17034 51.1699 9.92252 51.1421 10.6461L51.5418 10.6614ZM51.309 8.33525C50.5951 8.56369 49.8288 8.9047 49.0965 9.27085L49.2754 9.62862C49.9991 9.26678 50.7448 8.93579 51.4309 8.71622L51.309 8.33525ZM49.0965 9.27085C48.7534 9.44244 48.4087 9.64333 48.1193 9.84589L48.3487 10.1736C48.6193 9.98415 48.9466 9.79304 49.2754 9.62862L49.0965 9.27085ZM48.0925 9.86832C47.8872 10.0736 47.7392 10.1457 47.562 10.1457V10.5457C47.8887 10.5457 48.1327 10.3939 48.3754 10.1512L48.0925 9.86832ZM47.562 10.1457C47.2307 10.1457 47.0017 10.0064 46.5596 9.53667L46.2683 9.81081C46.7223 10.2931 47.0532 10.5457 47.562 10.5457V10.1457ZM46.562 9.5392C46.0104 8.93251 45.718 8.36434 45.718 7.93774H45.318C45.318 8.51914 45.6975 9.18297 46.266 9.80827L46.562 9.5392ZM45.718 7.93774C45.718 7.75608 45.7447 7.65157 45.7704 7.60018C45.7929 7.55512 45.7974 7.57774 45.77 7.57774V7.17774C45.6026 7.17774 45.4811 7.28435 45.4126 7.4213C45.3473 7.55191 45.318 7.7274 45.318 7.93774H45.718ZM45.77 7.57774C45.7487 7.57774 45.7401 7.57141 45.7488 7.57567C45.7559 7.57915 45.7679 7.58648 45.7845 7.59926C45.8182 7.6252 45.8516 7.65819 45.8805 7.68716L46.1634 7.40432C46.1364 7.37729 46.0857 7.32628 46.0284 7.28222C45.9995 7.25999 45.9643 7.23583 45.925 7.21656C45.8873 7.19807 45.8332 7.17774 45.77 7.17774V7.57774ZM45.8645 7.669C46.1201 7.99561 46.3634 8.26321 46.6074 8.45004C46.8531 8.63819 47.1119 8.75374 47.394 8.75374V8.35374C47.228 8.35374 47.0528 8.28729 46.8506 8.13244C46.6466 7.97627 46.4279 7.73987 46.1795 7.42248L45.8645 7.669ZM47.394 8.75374C47.6353 8.75374 47.9069 8.72348 48.2074 8.63331L48.0925 8.25017C47.8331 8.328 47.6006 8.35374 47.394 8.35374V8.75374ZM48.2009 8.63515C49.2794 8.35132 50.411 7.8983 51.5019 7.45077L51.3501 7.0807C50.2569 7.52918 49.1485 7.97216 48.0991 8.24833L48.2009 8.63515ZM51.6259 7.26966C51.6539 5.84217 51.682 4.38408 51.682 3.17774H51.282C51.282 4.37939 51.254 5.83331 51.226 7.26182L51.6259 7.26966ZM51.682 3.17774C51.682 2.88264 51.69 2.62499 51.6468 2.40134C51.6003 2.16039 51.496 1.95692 51.2874 1.74832L51.0045 2.03116C51.16 2.18656 51.2236 2.31909 51.2541 2.47714C51.2879 2.65248 51.282 2.85684 51.282 3.17774H51.682ZM51.2874 1.74832C51.1594 1.62029 50.9595 1.51714 50.7507 1.43432C50.536 1.34918 50.2881 1.27654 50.0438 1.21906L49.9522 1.60842C50.1839 1.66294 50.4119 1.7303 50.6032 1.80615C50.8004 1.88434 50.9366 1.96319 51.0045 2.03116L51.2874 1.74832ZM50.0372 1.21762C49.9634 1.20287 49.9128 1.19343 49.8713 1.18408C49.8515 1.17961 49.8374 1.17594 49.8272 1.17281C49.8168 1.16962 49.8136 1.16793 49.8144 1.16835C49.8204 1.17136 49.8426 1.18562 49.8562 1.21476C49.8656 1.23468 49.862 1.24422 49.862 1.21774H49.462C49.462 1.26126 49.4654 1.3233 49.494 1.38434C49.5268 1.45461 49.5805 1.49862 49.6355 1.52612C49.6833 1.55002 49.7371 1.56384 49.7834 1.57428C49.8311 1.58505 49.8925 1.59661 49.9587 1.60986L50.0372 1.21762ZM49.862 1.21774C49.862 1.21561 49.8622 1.21476 49.8628 1.21339C49.8635 1.21147 49.8662 1.20585 49.8741 1.19643C49.8919 1.17545 49.9263 1.14679 49.9889 1.10924L49.7831 0.76624C49.6398 0.852205 49.462 0.987938 49.462 1.21774H49.862ZM49.9889 1.10924C50.2321 0.963315 50.5589 0.88574 50.866 0.88574V0.48574C50.501 0.48574 50.0999 0.576162 49.7831 0.76624L49.9889 1.10924ZM50.866 0.88574C51.3978 0.88574 51.8909 1.08616 52.552 1.49934L52.764 1.16014C52.0811 0.733316 51.5102 0.48574 50.866 0.48574V0.88574ZM52.5457 1.49524C52.9337 1.75854 53.2403 2.00013 53.4484 2.22769C53.6581 2.45711 53.746 2.6485 53.746 2.81374H54.146C54.146 2.50297 53.9818 2.21837 53.7436 1.95779C53.5036 1.69535 53.1662 1.43294 52.7703 1.16424L52.5457 1.49524ZM53.746 2.81374C53.746 2.97014 53.639 3.19745 53.4798 3.33389L53.7401 3.63759C53.9729 3.43803 54.146 3.10534 54.146 2.81374H53.746ZM53.49 3.32574C53.2123 3.53401 53.0252 3.89676 52.964 4.32545L53.36 4.38202C53.4107 4.02672 53.5597 3.77346 53.73 3.64574L53.49 3.32574ZM52.9635 4.32893C52.8793 5.00236 52.7948 5.73477 52.7384 6.58043L53.1375 6.60704C53.1931 5.77271 53.2766 5.04911 53.3604 4.37855L52.9635 4.32893ZM53.044 6.76334C53.2254 6.64992 53.4084 6.62574 53.554 6.62574V6.22574C53.3636 6.22574 53.0985 6.25756 52.832 6.42414L53.044 6.76334ZM53.554 6.62574C53.7459 6.62574 53.873 6.68279 54.115 6.84415L54.3369 6.51133C54.0749 6.33669 53.8661 6.22574 53.554 6.22574V6.62574ZM54.1231 6.84924C54.3457 6.98282 54.418 7.14329 54.418 7.32174H54.818C54.818 6.99619 54.6662 6.70865 54.3289 6.50624L54.1231 6.84924ZM54.418 7.32174C54.418 7.36935 54.3928 7.43849 54.3191 7.54101C54.246 7.6427 54.1523 7.74218 54.0475 7.86204L54.3485 8.12544C54.4396 8.0213 54.556 7.89678 54.6439 7.77447C54.7312 7.65299 54.818 7.49813 54.818 7.32174H54.418ZM54.051 7.85808C53.3618 8.60472 52.9588 9.32503 52.43 10.2156L52.7739 10.4198C53.3091 9.51845 53.6901 8.83876 54.3449 8.1294L54.051 7.85808ZM47.8491 18.0272C48.6124 18.7057 49.5154 19.3828 50.298 19.9697L50.538 19.6497C49.7526 19.0607 48.8635 18.3937 48.1148 17.7283L47.8491 18.0272ZM50.3003 19.9715C50.4573 20.0856 50.5857 20.1694 50.6934 20.2253C50.7986 20.2798 50.9026 20.3177 51.006 20.3177V19.9177C50.9973 19.9177 50.9613 19.9136 50.8775 19.8702C50.7962 19.828 50.6867 19.7579 50.5356 19.648L50.3003 19.9715ZM51.006 20.3177C51.067 20.3177 51.1399 20.3055 51.2066 20.2584C51.2734 20.2113 51.3102 20.1461 51.3312 20.0858C51.3689 19.9783 51.374 19.8314 51.374 19.6697H50.974C50.974 19.7519 50.9722 19.8154 50.9681 19.8649C50.9639 19.9158 50.9578 19.942 50.9537 19.9537C50.9503 19.9634 50.9538 19.9472 50.9759 19.9316C50.998 19.916 51.0149 19.9177 51.006 19.9177V20.3177ZM51.3739 19.6731C51.4019 17.9927 51.43 15.696 51.458 13.6525L51.058 13.647C51.03 15.6915 51.002 17.9868 50.974 19.6664L51.3739 19.6731ZM51.1018 13.5248C49.9811 14.9257 48.8006 16.4995 47.8241 17.755L48.1398 18.0005C49.1234 16.736 50.2948 15.1738 51.4141 13.7747L51.1018 13.5248ZM81.8158 6.06174L81.6159 6.05529L81.6086 6.28309L81.8354 6.26078L81.8158 6.06174ZM86.4638 5.72574L86.4567 5.52581L86.4518 5.5261L86.4638 5.72574ZM87.8918 5.44574L87.8024 5.26685L87.8024 5.26685L87.8918 5.44574ZM90.9438 5.97774L91.0498 5.80811L91.0467 5.80624L90.9438 5.97774ZM89.5158 7.46174L89.5532 7.26525L89.5503 7.26473L89.5158 7.46174ZM81.7598 7.26574L81.7453 7.06627L81.5623 7.07957L81.5598 7.263L81.7598 7.26574ZM81.7038 12.3617H81.5038V12.3991L81.5173 12.4339L81.7038 12.3617ZM78.8198 21.7137L78.9393 21.8742L78.9401 21.8735L78.8198 21.7137ZM74.0318 23.9537L73.9752 23.7619L73.973 23.7626L74.0318 23.9537ZM73.1358 23.4217L73.0652 23.2346L73.0615 23.236L73.1358 23.4217ZM77.6158 20.8177L77.4893 20.6628L77.4868 20.6649L77.6158 20.8177ZM80.2758 16.7297L80.4694 16.7798L80.6226 16.1876L80.1492 16.5749L80.2758 16.7297ZM80.2478 10.9617L80.1392 11.1297L80.4478 11.3294V10.9617H80.2478ZM80.1918 7.43374L80.3918 7.42909L80.3867 7.21056L80.1695 7.23499L80.1918 7.43374ZM73.2758 8.66574L73.2273 8.47171L73.2758 8.66574ZM71.3718 9.33774L71.2608 9.17129L71.2571 9.17389L71.3718 9.33774ZM68.9078 8.80574L68.7717 8.95231L68.7736 8.95405L68.9078 8.80574ZM68.1798 6.53774L68.0384 6.67918L68.0407 6.68146L68.1798 6.53774ZM72.0718 7.37774L72.0389 7.18044L72.036 7.18097L72.0718 7.37774ZM80.1638 6.20174L80.1876 6.40032L80.3638 6.37925V6.20174H80.1638ZM80.1358 3.45774L80.3358 3.45203L80.3356 3.44775L80.1358 3.45774ZM79.9678 2.22574L80.1467 2.1363L80.1433 2.12943L80.1393 2.12284L79.9678 2.22574ZM79.1838 1.77774L79.1555 1.97576L79.159 1.97619L79.1838 1.77774ZM78.3438 1.10574L78.4741 1.25769L78.4795 1.2527L78.3438 1.10574ZM81.7878 1.38574L81.6678 1.54574L81.7878 1.38574ZM82.2078 3.17774L82.3495 3.31941L82.3573 3.31061L82.2078 3.17774ZM81.8998 3.98974L81.7005 3.97162L81.7001 3.97923L81.8998 3.98974ZM80.3878 13.6497L80.5878 13.6539L80.588 13.645L80.5873 13.6361L80.3878 13.6497ZM81.8354 6.26078C83.5388 6.09324 85.0745 6.00946 86.4758 5.92538L86.4518 5.5261C85.0532 5.61002 83.5089 5.69424 81.7962 5.8627L81.8354 6.26078ZM86.471 5.92561C87.276 5.89686 87.7256 5.75244 87.9813 5.62462L87.8024 5.26685C87.61 5.36304 87.2196 5.49862 86.4567 5.52587L86.471 5.92561ZM87.9813 5.62463C88.178 5.52627 88.4554 5.44974 88.7598 5.44974V5.04974C88.3922 5.04974 88.0537 5.14121 87.8024 5.26685L87.9813 5.62463ZM88.7598 5.44974C89.0626 5.44974 89.4437 5.53936 89.8265 5.67609C90.2066 5.81183 90.5726 5.98827 90.8409 6.14924L91.0467 5.80624C90.755 5.63121 90.365 5.44365 89.9611 5.29939C89.5599 5.15611 89.129 5.04974 88.7598 5.04974V5.44974ZM90.8378 6.14734C91.2586 6.41033 91.4438 6.66489 91.4438 7.01374H91.8438C91.8438 6.46659 91.525 6.10515 91.0498 5.80814L90.8378 6.14734ZM91.4438 7.01374C91.4438 7.32879 91.2199 7.51374 90.9998 7.51374V7.91374C91.4517 7.91374 91.8438 7.53869 91.8438 7.01374H91.4438ZM90.9998 7.51374C90.8102 7.51374 90.602 7.48202 90.36 7.43362C90.1305 7.38772 89.842 7.32027 89.5532 7.26527L89.4784 7.65821C89.7776 7.71521 90.0211 7.77375 90.2816 7.82586C90.5296 7.87546 90.7694 7.91374 90.9998 7.91374V7.51374ZM89.5503 7.26473C88.421 7.0671 87.3453 6.95374 86.1278 6.95374V7.35374C87.3184 7.35374 88.3707 7.46438 89.4813 7.65875L89.5503 7.26473ZM86.1278 6.95374C84.6445 6.95374 83.2936 6.95367 81.7453 7.06627L81.7743 7.46521C83.3061 7.35381 84.6432 7.35374 86.1278 7.35374V6.95374ZM81.5598 7.263C81.5319 9.30563 81.5038 10.7639 81.5038 12.3617H81.9038C81.9038 10.7676 81.9318 9.31385 81.9598 7.26848L81.5598 7.263ZM81.5173 12.4339C81.8414 13.2711 81.9798 14.2243 81.9798 15.4417H82.3798C82.3798 14.1951 82.2383 13.1884 81.8903 12.2895L81.5173 12.4339ZM81.9798 15.4417C81.9798 17.806 80.8129 19.9621 78.6995 21.554L78.9401 21.8735C81.1387 20.2174 82.3798 17.9495 82.3798 15.4417H81.9798ZM78.7004 21.5533C77.4101 22.5142 75.6704 23.2617 73.9752 23.7619L74.0884 24.1456C75.8092 23.6378 77.5975 22.8733 78.9393 21.8741L78.7004 21.5533ZM73.973 23.7626C73.6181 23.8718 73.3036 23.9217 73.1638 23.9217V24.3217C73.36 24.3217 73.7175 24.2597 74.0906 24.1449L73.973 23.7626ZM73.1638 23.9217C73.0741 23.9217 73.0251 23.8971 73.0021 23.8778C72.9809 23.8599 72.9718 23.839 72.9718 23.8137H72.5718C72.5718 23.9565 72.6327 24.0896 72.7445 24.1837C72.8545 24.2764 73.0015 24.3217 73.1638 24.3217V23.9217ZM72.9718 23.8137C72.9718 23.7882 72.9778 23.7645 73.0018 23.7361C73.0295 23.7032 73.0883 23.6561 73.2101 23.6074L73.0615 23.236C72.9033 23.2993 72.7801 23.3783 72.6958 23.4784C72.6078 23.583 72.5718 23.6993 72.5718 23.8137H72.9718ZM73.2064 23.6089C74.9351 22.9571 76.467 22.0496 77.7449 20.9705L77.4868 20.6649C76.2446 21.7139 74.7525 22.5984 73.0653 23.2346L73.2064 23.6089ZM77.7423 20.9727C79.1459 19.8269 80.0383 18.4467 80.4694 16.7798L80.0822 16.6797C79.6733 18.2607 78.8298 19.5686 77.4893 20.6628L77.7423 20.9727ZM80.1492 16.5749C79.5786 17.0418 78.984 17.1737 78.3438 17.1737V17.5737C79.0477 17.5737 79.741 17.4257 80.4025 16.8845L80.1492 16.5749ZM78.3438 17.1737C77.5885 17.1737 76.8797 16.929 76.3603 16.4129C75.8423 15.8981 75.4918 15.0924 75.4918 13.9297H75.0918C75.0918 15.1751 75.4694 16.0914 76.0783 16.6966C76.6859 17.3004 77.5031 17.5737 78.3438 17.5737V17.1737ZM75.4918 13.9297C75.4918 12.1484 76.8175 10.7137 78.4558 10.7137V10.3137C76.5662 10.3137 75.0918 11.9591 75.0918 13.9297H75.4918ZM78.4558 10.7137C79.1044 10.7137 79.7063 10.8495 80.1392 11.1297L80.3565 10.7938C79.8374 10.4579 79.1512 10.3137 78.4558 10.3137V10.7137ZM80.4478 10.9617C80.4478 9.75495 80.4197 8.63245 80.3918 7.42909L79.9919 7.43839C80.0199 8.64303 80.0478 9.76053 80.0478 10.9617H80.4478ZM80.1695 7.23499C77.9214 7.4879 75.3646 7.93738 73.2273 8.47171L73.3243 8.85977C75.443 8.3301 77.9822 7.88358 80.2142 7.63249L80.1695 7.23499ZM73.2273 8.47171C72.1084 8.75143 71.629 8.92593 71.2609 9.17133L71.4827 9.50415C71.7867 9.30155 72.2032 9.14005 73.3243 8.85977L73.2273 8.47171ZM71.2571 9.17389C71.0069 9.34906 70.7663 9.41774 70.5598 9.41774V9.81774C70.8573 9.81774 71.1767 9.71842 71.4865 9.50159L71.2571 9.17389ZM70.5598 9.41774C70.1014 9.41774 69.6161 9.17681 69.042 8.65743L68.7736 8.95405C69.3756 9.49866 69.9543 9.81774 70.5598 9.81774V9.41774ZM69.0439 8.65918C68.6602 8.3029 68.3865 7.98046 68.2097 7.69577C68.0323 7.40992 67.9598 7.17365 67.9598 6.98574H67.5598C67.5598 7.27382 67.6693 7.58356 67.8699 7.90671C68.0712 8.23102 68.3714 8.58058 68.7717 8.9523L69.0439 8.65918ZM67.9598 6.98574C67.9598 6.82992 67.9799 6.72742 68.0035 6.67167C68.0275 6.61503 68.0299 6.65374 67.9838 6.65374V6.25374C67.7978 6.25374 67.6882 6.39045 67.6351 6.51581C67.5817 6.64206 67.5598 6.80556 67.5598 6.98574H67.9598ZM67.9838 6.65374C67.9818 6.65374 67.9836 6.65357 67.989 6.6547C67.9941 6.65577 68.0005 6.65763 68.0075 6.66043C68.0226 6.66646 68.0331 6.67391 68.0384 6.67916L68.3212 6.39632C68.2253 6.30036 68.0893 6.25374 67.9838 6.25374V6.65374ZM68.0407 6.68146C68.4768 7.10344 68.8166 7.38744 69.1598 7.56283C69.5109 7.74226 69.8524 7.80174 70.2798 7.80174V7.40174C69.8952 7.40174 69.6208 7.34922 69.3418 7.20665C69.055 7.06004 68.7509 6.81204 68.3189 6.39402L68.0407 6.68146ZM70.2798 7.80174C70.691 7.80174 71.182 7.7428 72.1076 7.57451L72.036 7.18097C71.1136 7.34868 70.6526 7.40174 70.2798 7.40174V7.80174ZM72.1047 7.57502C74.7905 7.12738 77.6154 6.70787 80.1876 6.40032L80.1401 6.00315C77.5603 6.31161 74.7291 6.7321 72.0389 7.18046L72.1047 7.57502ZM80.3638 6.20174C80.3638 5.16585 80.3638 4.43523 80.3357 3.45203L79.9359 3.46345C79.9638 4.44025 79.9638 5.16562 79.9638 6.20174H80.3638ZM80.3356 3.44775C80.3216 3.16874 80.3074 2.9102 80.282 2.69256C80.2572 2.48021 80.2195 2.28189 80.1467 2.1363L79.7889 2.31518C79.8281 2.39359 79.8604 2.53127 79.8847 2.73892C79.9083 2.94128 79.922 3.18674 79.9361 3.46773L80.3356 3.44775ZM80.1393 2.12284C80.0458 1.96696 79.9406 1.83851 79.7822 1.74535C79.6285 1.65491 79.4427 1.60854 79.2086 1.57928L79.159 1.97619C79.3729 2.00294 79.4952 2.04057 79.5794 2.09013C79.659 2.13697 79.7218 2.20452 79.7963 2.32864L80.1393 2.12284ZM79.2121 1.57975C78.8199 1.52372 78.4994 1.49374 78.3718 1.49374V1.89374C78.4682 1.89374 78.7638 1.91976 79.1555 1.97573L79.2121 1.57975ZM78.3718 1.49374C78.3405 1.49374 78.3158 1.49109 78.2974 1.48732C78.2786 1.48347 78.27 1.47918 78.268 1.47809C78.2667 1.47732 78.2741 1.48128 78.2815 1.49324C78.2896 1.50617 78.2918 1.51887 78.2918 1.52574H77.8918C77.8918 1.66333 77.9673 1.76693 78.0696 1.82539C78.161 1.87764 78.2705 1.89374 78.3718 1.89374V1.49374ZM78.2918 1.52574C78.2918 1.46814 78.3004 1.4438 78.315 1.42003C78.3357 1.38616 78.3771 1.3406 78.474 1.25759L78.2137 0.953888C78.1145 1.03888 78.03 1.11932 77.9737 1.21145C77.9112 1.31368 77.8918 1.41534 77.8918 1.52574H78.2918ZM78.4795 1.2527C78.6373 1.10704 78.8648 0.978574 79.1049 0.886474C79.3458 0.794072 79.5798 0.745739 79.7438 0.745739V0.345738C79.5158 0.345738 79.2318 0.409405 78.9617 0.513004C78.6908 0.616904 78.4144 0.768441 78.2082 0.958779L78.4795 1.2527ZM79.7438 0.745739C80.3521 0.745739 81.0094 1.05195 81.6678 1.54574L81.9078 1.22574C81.2222 0.711528 80.4795 0.345738 79.7438 0.345738V0.745739ZM81.6678 1.54574C82.238 1.97339 82.3718 2.16992 82.3718 2.39374H82.7718C82.7718 1.94555 82.4576 1.63809 81.9078 1.22574L81.6678 1.54574ZM82.3718 2.39374C82.3718 2.65363 82.274 2.80222 82.0583 3.04487L82.3573 3.31061C82.5896 3.04926 82.7718 2.80584 82.7718 2.39374H82.3718ZM82.0664 3.03632C81.7898 3.31293 81.7294 3.65507 81.7006 3.97163L82.099 4.00785C82.1262 3.70841 82.1778 3.49055 82.3492 3.31916L82.0664 3.03632ZM81.7001 3.97923C81.672 4.51298 81.6439 5.1864 81.6159 6.05529L82.0157 6.06819C82.0437 5.20108 82.0716 4.5305 82.0995 4.00025L81.7001 3.97923ZM78.3718 11.1537C77.8265 11.1537 77.3019 11.3729 76.9159 11.8134C76.5307 12.2531 76.2958 12.8986 76.2958 13.7337H76.6958C76.6958 12.9729 76.909 12.4283 77.2167 12.077C77.5237 11.7266 77.9371 11.5537 78.3718 11.5537V11.1537ZM76.2958 13.7337C76.2958 14.4502 76.5283 15.0225 76.9256 15.4159C77.3219 15.8083 77.8652 16.0057 78.4558 16.0057V15.6057C77.9544 15.6057 77.5177 15.4392 77.207 15.1316C76.8974 14.825 76.6958 14.3612 76.6958 13.7337H76.2958ZM78.4558 16.0057C79.0926 16.0057 79.6258 15.7842 80.0013 15.3652C80.374 14.9494 80.5731 14.3596 80.5878 13.6539L80.1879 13.6456C80.1746 14.2838 79.9957 14.7721 79.7034 15.0983C79.4139 15.4213 78.995 15.6057 78.4558 15.6057V16.0057ZM80.5873 13.6361C80.5436 12.9944 80.3605 12.3776 79.9993 11.9164C79.6324 11.4481 79.0914 11.1537 78.3718 11.1537V11.5537C78.9682 11.5537 79.3932 11.7914 79.6844 12.1631C79.9811 12.5419 80.148 13.0731 80.1883 13.6633L80.5873 13.6361Z" fill="#2E2521" mask="url(#path-1-outside-1_13_535)"/>
</svg>
